M48
METRIC,TZ
T1C0.800
T2C1.000
T3C1.199
T4C2.200
%
G90
G05
T1
X17502Y30743
X17648Y26322
X17710Y32556
X20320Y39370
X20616Y27419
X20678Y28918
X21590Y57150
X26162Y11430
X27305Y48260
X27940Y26670
X27940Y12700
X33020Y16510
X34290Y11430
X35440Y22208
X38100Y24130
X38100Y21590
X38100Y19050
X38100Y16510
X38100Y13970
X38100Y11430
X38100Y8890
X45720Y24130
X45720Y21590
X45720Y19050
X45720Y16510
X45720Y13970
X45720Y11430
X45720Y8890
X46984Y3690
X49530Y19050
X49530Y13970
X52070Y20320
X52070Y11430
X57150Y38100
X59690Y13970
X63500Y39370
X63500Y26670
T2
X8600Y55290
X8600Y40790
X8890Y34290
X8890Y31750
X8890Y29210
X8890Y26670
X8890Y24130
X8890Y21590
X8890Y19050
X8890Y16510
X8890Y13970
X8890Y11430
X11100Y55290
X13600Y55290
X13600Y40790
X26162Y7620
X28702Y7620
X31242Y7620
X55880Y20574
X55880Y18034
X55880Y11430
X55880Y8890
X68600Y54790
X68600Y40290
X71100Y40290
X73600Y54790
X73600Y40290
X74930Y27940
X74930Y25400
X74930Y19304
X74930Y16764
X74930Y14224
X74930Y11684
T3
X26750Y52070
X26750Y41910
X27131Y31750
X36750Y52070
X36750Y41910
X37131Y31750
X47070Y52070
X47070Y41910
X47070Y31750
X57070Y52070
X57070Y41910
X57070Y31750
T4
X5500Y47790
X16700Y47790
X65500Y47790
X76700Y47790
T0
M30
