G04 #@! TF.FileFunction,Copper,L1,Top,Signal*
%FSLAX46Y46*%
G04 Gerber Fmt 4.6, Leading zero omitted, Abs format (unit mm)*
G04 Created by KiCad (PCBNEW 4.0.6) date 09/07/17 18:27:51*
%MOMM*%
%LPD*%
G01*
G04 APERTURE LIST*
%ADD10C,0.100000*%
%ADD11C,0.250000*%
%ADD12R,1.700000X1.700000*%
%ADD13O,1.700000X1.700000*%
%ADD14R,1.500000X1.250000*%
%ADD15R,4.500000X2.700000*%
%ADD16R,0.900000X0.800000*%
%ADD17R,1.250000X1.500000*%
%ADD18C,1.800000*%
%ADD19C,3.000000*%
%ADD20R,2.400000X1.600000*%
%ADD21O,2.400000X1.600000*%
%ADD22R,2.000000X3.800000*%
%ADD23R,2.000000X1.500000*%
%ADD24C,1.200000*%
%ADD25C,0.500000*%
%ADD26C,0.254000*%
G04 APERTURE END LIST*
D10*
D11*
X23336428Y4357619D02*
X23669761Y3357619D01*
X24003095Y4357619D01*
X24288809Y3405238D02*
X24384047Y3357619D01*
X24574523Y3357619D01*
X24669762Y3405238D01*
X24717381Y3500476D01*
X24717381Y3548095D01*
X24669762Y3643333D01*
X24574523Y3690952D01*
X24431666Y3690952D01*
X24336428Y3738571D01*
X24288809Y3833810D01*
X24288809Y3881429D01*
X24336428Y3976667D01*
X24431666Y4024286D01*
X24574523Y4024286D01*
X24669762Y3976667D01*
X25526905Y3405238D02*
X25431667Y3357619D01*
X25241190Y3357619D01*
X25145952Y3405238D01*
X25098333Y3500476D01*
X25098333Y3881429D01*
X25145952Y3976667D01*
X25241190Y4024286D01*
X25431667Y4024286D01*
X25526905Y3976667D01*
X25574524Y3881429D01*
X25574524Y3786190D01*
X25098333Y3690952D01*
X26145952Y3357619D02*
X26050714Y3405238D01*
X26003095Y3500476D01*
X26003095Y4357619D01*
X78509762Y14025714D02*
X78557381Y14168571D01*
X78557381Y14406667D01*
X78509762Y14501905D01*
X78462143Y14549524D01*
X78366905Y14597143D01*
X78271667Y14597143D01*
X78176429Y14549524D01*
X78128810Y14501905D01*
X78081190Y14406667D01*
X78033571Y14216190D01*
X77985952Y14120952D01*
X77938333Y14073333D01*
X77843095Y14025714D01*
X77747857Y14025714D01*
X77652619Y14073333D01*
X77605000Y14120952D01*
X77557381Y14216190D01*
X77557381Y14454286D01*
X77605000Y14597143D01*
X78557381Y15025714D02*
X77557381Y15025714D01*
X77557381Y15263809D01*
X77605000Y15406667D01*
X77700238Y15501905D01*
X77795476Y15549524D01*
X77985952Y15597143D01*
X78128810Y15597143D01*
X78319286Y15549524D01*
X78414524Y15501905D01*
X78509762Y15406667D01*
X78557381Y15263809D01*
X78557381Y15025714D01*
X78271667Y15978095D02*
X78271667Y16454286D01*
X78557381Y15882857D02*
X77557381Y16216190D01*
X78557381Y16549524D01*
X78509762Y8969524D02*
X78557381Y9112381D01*
X78557381Y9350477D01*
X78509762Y9445715D01*
X78462143Y9493334D01*
X78366905Y9540953D01*
X78271667Y9540953D01*
X78176429Y9493334D01*
X78128810Y9445715D01*
X78081190Y9350477D01*
X78033571Y9160000D01*
X77985952Y9064762D01*
X77938333Y9017143D01*
X77843095Y8969524D01*
X77747857Y8969524D01*
X77652619Y9017143D01*
X77605000Y9064762D01*
X77557381Y9160000D01*
X77557381Y9398096D01*
X77605000Y9540953D01*
X78462143Y10540953D02*
X78509762Y10493334D01*
X78557381Y10350477D01*
X78557381Y10255239D01*
X78509762Y10112381D01*
X78414524Y10017143D01*
X78319286Y9969524D01*
X78128810Y9921905D01*
X77985952Y9921905D01*
X77795476Y9969524D01*
X77700238Y10017143D01*
X77605000Y10112381D01*
X77557381Y10255239D01*
X77557381Y10350477D01*
X77605000Y10493334D01*
X77652619Y10540953D01*
X78557381Y11445715D02*
X78557381Y10969524D01*
X77557381Y10969524D01*
D12*
X26162000Y7620000D03*
D13*
X28702000Y7620000D03*
X31242000Y7620000D03*
D14*
X30500000Y38100000D03*
X33000000Y38100000D03*
X30500000Y48260000D03*
X33000000Y48260000D03*
X53320000Y38100000D03*
X50820000Y38100000D03*
X54570000Y27940000D03*
X52070000Y27940000D03*
X16530000Y16510000D03*
X19030000Y16510000D03*
X16530000Y18796000D03*
X19030000Y18796000D03*
D15*
X36031000Y31750000D03*
X28231000Y31750000D03*
X35650000Y41910000D03*
X27850000Y41910000D03*
X35650000Y52070000D03*
X27850000Y52070000D03*
X48170000Y52070000D03*
X55970000Y52070000D03*
X48170000Y41910000D03*
X55970000Y41910000D03*
X48170000Y31750000D03*
X55970000Y31750000D03*
D12*
X8890000Y34290000D03*
D13*
X8890000Y31750000D03*
X8890000Y29210000D03*
X8890000Y26670000D03*
X8890000Y24130000D03*
X8890000Y21590000D03*
X8890000Y19050000D03*
X8890000Y16510000D03*
X8890000Y13970000D03*
X8890000Y11430000D03*
D12*
X74930000Y19304000D03*
D13*
X74930000Y16764000D03*
X74930000Y14224000D03*
X74930000Y11684000D03*
D12*
X74930000Y27940000D03*
D13*
X74930000Y25400000D03*
D12*
X55880000Y18034000D03*
D13*
X55880000Y20574000D03*
D12*
X55880000Y8890000D03*
D13*
X55880000Y11430000D03*
D16*
X65040000Y20000000D03*
X65040000Y18100000D03*
X67040000Y19050000D03*
X64770000Y9520000D03*
X64770000Y7620000D03*
X66770000Y8570000D03*
D17*
X22860000Y44430000D03*
X22860000Y41930000D03*
X22860000Y35540000D03*
X22860000Y33040000D03*
D14*
X30500000Y35560000D03*
X33000000Y35560000D03*
X33000000Y45720000D03*
X30500000Y45720000D03*
D17*
X22860000Y54590000D03*
X22860000Y52090000D03*
D14*
X30500000Y55880000D03*
X33000000Y55880000D03*
D17*
X60960000Y43160000D03*
X60960000Y40660000D03*
X60960000Y54590000D03*
X60960000Y52090000D03*
D14*
X53320000Y55880000D03*
X50820000Y55880000D03*
X50820000Y45720000D03*
X53320000Y45720000D03*
D17*
X60960000Y38080000D03*
X60960000Y35580000D03*
D14*
X53320000Y35560000D03*
X50820000Y35560000D03*
D17*
X60960000Y20300000D03*
X60960000Y17800000D03*
D14*
X64790000Y24130000D03*
X67290000Y24130000D03*
D17*
X60960000Y10140000D03*
X60960000Y7640000D03*
D14*
X64790000Y13970000D03*
X67290000Y13970000D03*
D18*
X8600000Y40790000D03*
X8600000Y55290000D03*
X11100000Y55290000D03*
X13600000Y55290000D03*
X13600000Y40790000D03*
D19*
X16700000Y47790000D03*
X5500000Y47790000D03*
D18*
X73600000Y54790000D03*
X73600000Y40290000D03*
X71100000Y40290000D03*
X68600000Y40290000D03*
X68600000Y54790000D03*
D19*
X65500000Y47790000D03*
X76700000Y47790000D03*
D20*
X38100000Y24130000D03*
D21*
X45720000Y8890000D03*
X38100000Y21590000D03*
X45720000Y11430000D03*
X38100000Y19050000D03*
X45720000Y13970000D03*
X38100000Y16510000D03*
X45720000Y16510000D03*
X38100000Y13970000D03*
X45720000Y19050000D03*
X38100000Y11430000D03*
X45720000Y21590000D03*
X38100000Y8890000D03*
X45720000Y24130000D03*
D22*
X29058000Y18796000D03*
D23*
X22758000Y18796000D03*
X22758000Y16496000D03*
X22758000Y21096000D03*
D14*
X30500000Y27940000D03*
X33000000Y27940000D03*
X53320000Y48260000D03*
X50820000Y48260000D03*
X52090000Y26035000D03*
X54590000Y26035000D03*
D24*
X57150000Y38100000D03*
X27305000Y48260000D03*
X26162000Y11430000D03*
X63500000Y26670000D03*
X59690000Y13970000D03*
X63500000Y39370000D03*
X20320000Y39370000D03*
X21590000Y57150000D03*
X27940000Y12700000D03*
X17709588Y32555692D03*
X52070000Y11430000D03*
X17501980Y30743218D03*
X52070000Y20320000D03*
X20678408Y28918181D03*
X49530000Y13970000D03*
X20616241Y27419458D03*
X49530000Y19050000D03*
X17648111Y26322443D03*
X46984489Y3690010D03*
X33020000Y16510000D03*
X27940000Y26670000D03*
X35440010Y22207769D03*
X34290000Y11430000D03*
D25*
X53320000Y38100000D02*
X57150000Y38100000D01*
X30500000Y48260000D02*
X29250000Y48260000D01*
X29250000Y48260000D02*
X29845000Y48260000D01*
X30500000Y48260000D02*
X27305000Y48260000D01*
X36750000Y41910000D02*
X40254624Y41910000D01*
X40254624Y41910000D02*
X40254624Y19050000D01*
X40254624Y19050000D02*
X38100000Y19050000D01*
X36750000Y39290000D02*
X35560000Y38100000D01*
X35560000Y38100000D02*
X33000000Y38100000D01*
X36750000Y41910000D02*
X36750000Y39290000D01*
X36750000Y44530000D02*
X35560000Y45720000D01*
X35560000Y45720000D02*
X33000000Y45720000D01*
X36750000Y41910000D02*
X36750000Y44530000D01*
X36750000Y52070000D02*
X40640000Y52070000D01*
X40640000Y52070000D02*
X41263772Y51446228D01*
X41263772Y51446228D02*
X41263772Y14593772D01*
X41263772Y14593772D02*
X40640000Y13970000D01*
X40640000Y13970000D02*
X38100000Y13970000D01*
X36750000Y49450000D02*
X35560000Y48260000D01*
X35560000Y48260000D02*
X33000000Y48260000D01*
X36750000Y52070000D02*
X36750000Y49450000D01*
X36750000Y54690000D02*
X35560000Y55880000D01*
X35560000Y55880000D02*
X33000000Y55880000D01*
X36750000Y52070000D02*
X36750000Y54690000D01*
X43169979Y22090009D02*
X43169979Y18660021D01*
X43169979Y18660021D02*
X45320000Y16510000D01*
X42971342Y37811342D02*
X42971342Y22288646D01*
X45320000Y16510000D02*
X45720000Y16510000D01*
X42971342Y22288646D02*
X43169979Y22090009D01*
X47070000Y41910000D02*
X42971342Y37811342D01*
X47070000Y41910000D02*
X46944225Y41784225D01*
X47070000Y39290000D02*
X48260000Y38100000D01*
X48260000Y38100000D02*
X50820000Y38100000D01*
X47070000Y41910000D02*
X47070000Y39290000D01*
X47070000Y44530000D02*
X48260000Y45720000D01*
X48260000Y45720000D02*
X50820000Y45720000D01*
X47070000Y41910000D02*
X47070000Y44530000D01*
X47070000Y31750000D02*
X44981048Y31750000D01*
X44981048Y31750000D02*
X43771352Y30540304D01*
X43771352Y30540304D02*
X43771352Y22620022D01*
X43771352Y22620022D02*
X44801374Y21590000D01*
X44801374Y21590000D02*
X45720000Y21590000D01*
X47070000Y30400000D02*
X49530000Y27940000D01*
X49530000Y27940000D02*
X52070000Y27940000D01*
X47070000Y31750000D02*
X47070000Y30400000D01*
X47070000Y34370000D02*
X48260000Y35560000D01*
X48260000Y35560000D02*
X50820000Y35560000D01*
X47070000Y31750000D02*
X47070000Y34370000D01*
X64790000Y24130000D02*
X64790000Y26801321D01*
X64790000Y26801321D02*
X65928679Y27940000D01*
X73580000Y27940000D02*
X74930000Y27940000D01*
X65928679Y27940000D02*
X73580000Y27940000D01*
X63500000Y26670000D02*
X65337049Y24832951D01*
X65337049Y24832951D02*
X65337049Y24677049D01*
X65337049Y24677049D02*
X64790000Y24130000D01*
X26162000Y7620000D02*
X26162000Y11430000D01*
X26162000Y11430000D02*
X26162000Y13342000D01*
X64790000Y13970000D02*
X59690000Y13970000D01*
X26162000Y13342000D02*
X23008000Y16496000D01*
X23008000Y16496000D02*
X22758000Y16496000D01*
X19030000Y16510000D02*
X22744000Y16510000D01*
X22744000Y16510000D02*
X22758000Y16496000D01*
X17075000Y11465000D02*
X19030000Y13420000D01*
X19030000Y13420000D02*
X19030000Y16510000D01*
X10127081Y11465000D02*
X17075000Y11465000D01*
X8890000Y11430000D02*
X10092081Y11430000D01*
X10092081Y11430000D02*
X10127081Y11465000D01*
X22758000Y18796000D02*
X29058000Y18796000D01*
X31242000Y7620000D02*
X31242000Y11812000D01*
X31242000Y11812000D02*
X24258000Y18796000D01*
X24258000Y18796000D02*
X22758000Y18796000D01*
X19030000Y18796000D02*
X22758000Y18796000D01*
X8600000Y40790000D02*
X12716286Y36673714D01*
X18061286Y36673714D02*
X21735000Y33000000D01*
X21735000Y33000000D02*
X25881000Y33000000D01*
X12716286Y36673714D02*
X18061286Y36673714D01*
X25881000Y33000000D02*
X27131000Y31750000D01*
X27131000Y34751000D02*
X27940000Y35560000D01*
X27940000Y35560000D02*
X30500000Y35560000D01*
X27131000Y31750000D02*
X27131000Y34751000D01*
X22860000Y44430000D02*
X24230000Y44430000D01*
X24230000Y44430000D02*
X26750000Y41910000D01*
X22860000Y44430000D02*
X22860000Y46030000D01*
X22860000Y46030000D02*
X13600000Y55290000D01*
X26750000Y44530000D02*
X27940000Y45720000D01*
X27940000Y45720000D02*
X30500000Y45720000D01*
X26750000Y41910000D02*
X26750000Y44530000D01*
X26750000Y52070000D02*
X22880000Y52070000D01*
X22860000Y52175000D02*
X17283103Y57751897D01*
X22880000Y52070000D02*
X22860000Y52050000D01*
X12154861Y57751897D02*
X11147392Y56744428D01*
X22860000Y52050000D02*
X22860000Y52175000D01*
X17283103Y57751897D02*
X12154861Y57751897D01*
X11147392Y56744428D02*
X11147392Y55337392D01*
X11147392Y55337392D02*
X11100000Y55290000D01*
X26750000Y54690000D02*
X27940000Y55880000D01*
X27940000Y55880000D02*
X30500000Y55880000D01*
X26750000Y52070000D02*
X26750000Y54690000D01*
X73600000Y54790000D02*
X70860000Y52050000D01*
X70860000Y52050000D02*
X60960000Y52050000D01*
X57070000Y52070000D02*
X60940000Y52070000D01*
X60940000Y52070000D02*
X60960000Y52050000D01*
X60960000Y51925000D02*
X60960000Y52050000D01*
X53320000Y55880000D02*
X54610000Y55880000D01*
X54610000Y55880000D02*
X57070000Y53420000D01*
X57070000Y53420000D02*
X57070000Y52070000D01*
X60960000Y43160000D02*
X65730000Y43160000D01*
X65730000Y43160000D02*
X68600000Y40290000D01*
X57150000Y41910000D02*
X58400000Y43160000D01*
X58400000Y43160000D02*
X60960000Y43160000D01*
X57070000Y41910000D02*
X57150000Y41910000D01*
X57070000Y44530000D02*
X55880000Y45720000D01*
X55880000Y45720000D02*
X53320000Y45720000D01*
X57070000Y41910000D02*
X57070000Y44530000D01*
X60960000Y35540000D02*
X68560000Y35540000D01*
X68560000Y35540000D02*
X68580000Y35560000D01*
X68580000Y35560000D02*
X69850000Y35560000D01*
X69850000Y35560000D02*
X71100000Y36810000D01*
X71100000Y36810000D02*
X71100000Y40290000D01*
X57070000Y32940000D02*
X59670000Y35540000D01*
X59670000Y35540000D02*
X60960000Y35540000D01*
X57070000Y31750000D02*
X57070000Y32940000D01*
X57070000Y34370000D02*
X55880000Y35560000D01*
X55880000Y35560000D02*
X53320000Y35560000D01*
X57070000Y31750000D02*
X57070000Y34370000D01*
X57255000Y24130000D02*
X50165000Y24130000D01*
X50165000Y24130000D02*
X45720000Y24130000D01*
X52090000Y26035000D02*
X51965000Y26035000D01*
X51965000Y26035000D02*
X50165000Y24235000D01*
X50165000Y24235000D02*
X50165000Y24130000D01*
X63500000Y39370000D02*
X62267432Y38137432D01*
X62267432Y38137432D02*
X61017432Y38137432D01*
X61017432Y38137432D02*
X60960000Y38080000D01*
X50800000Y5080000D02*
X50800000Y15240000D01*
X50800000Y15240000D02*
X50800000Y22860000D01*
X60960000Y10140000D02*
X60960000Y10265000D01*
X60960000Y10265000D02*
X55985000Y15240000D01*
X55985000Y15240000D02*
X50800000Y15240000D01*
X22860000Y57150000D02*
X57275000Y57150000D01*
X57275000Y57150000D02*
X59835000Y54590000D01*
X59835000Y54590000D02*
X60960000Y54590000D01*
X60960000Y38080000D02*
X60960000Y40660000D01*
X22860000Y36830000D02*
X20320000Y39370000D01*
X22860000Y35540000D02*
X22860000Y36830000D01*
X22860000Y57150000D02*
X22860000Y54590000D01*
X21590000Y57150000D02*
X22860000Y57150000D01*
X22860000Y35540000D02*
X22860000Y41930000D01*
X28702000Y7620000D02*
X28702000Y11938000D01*
X28702000Y11938000D02*
X27940000Y12700000D01*
X64770000Y9520000D02*
X61580000Y9520000D01*
X61580000Y9520000D02*
X60960000Y10140000D01*
X57255000Y24130000D02*
X57255000Y24235000D01*
X65040000Y20000000D02*
X61260000Y20000000D01*
X61260000Y20000000D02*
X60960000Y20300000D01*
X60960000Y20300000D02*
X60960000Y20425000D01*
X60960000Y20425000D02*
X57255000Y24130000D01*
X50800000Y22860000D02*
X49530000Y24130000D01*
X49530000Y24130000D02*
X45720000Y24130000D01*
X48260000Y2540000D02*
X50800000Y5080000D01*
X32579919Y2540000D02*
X48260000Y2540000D01*
X28702000Y6417919D02*
X32579919Y2540000D01*
X28702000Y7620000D02*
X28702000Y6417919D01*
X15975280Y34290000D02*
X17109589Y33155691D01*
X8890000Y34290000D02*
X15975280Y34290000D01*
X17109589Y33155691D02*
X17709588Y32555692D01*
X52070000Y11430000D02*
X55880000Y11430000D01*
X8890000Y31750000D02*
X16495198Y31750000D01*
X16495198Y31750000D02*
X16901981Y31343217D01*
X16901981Y31343217D02*
X17501980Y30743218D01*
X52070000Y20320000D02*
X55626000Y20320000D01*
X55626000Y20320000D02*
X55880000Y20574000D01*
X8890000Y29210000D02*
X20386589Y29210000D01*
X20386589Y29210000D02*
X20678408Y28918181D01*
X49530000Y13970000D02*
X45720000Y13970000D01*
X20515700Y27519999D02*
X20616241Y27419458D01*
X9739999Y27519999D02*
X20515700Y27519999D01*
X8890000Y26670000D02*
X9739999Y27519999D01*
X49530000Y19050000D02*
X45720000Y19050000D01*
X8890000Y24130000D02*
X11082443Y26322443D01*
X11082443Y26322443D02*
X16799583Y26322443D01*
X16799583Y26322443D02*
X17648111Y26322443D01*
X45720000Y4954499D02*
X46384490Y4290009D01*
X45720000Y8890000D02*
X45720000Y4954499D01*
X46384490Y4290009D02*
X46984489Y3690010D01*
X25025837Y26670000D02*
X27091472Y26670000D01*
X22351860Y23996023D02*
X25025837Y26670000D01*
X8890000Y21590000D02*
X11296023Y23996023D01*
X27091472Y26670000D02*
X27940000Y26670000D01*
X11296023Y23996023D02*
X22351860Y23996023D01*
X33020000Y16510000D02*
X38100000Y16510000D01*
X8890000Y19050000D02*
X13036012Y23196012D01*
X22683235Y23196012D02*
X24887223Y25400000D01*
X24887223Y25400000D02*
X32247779Y25400000D01*
X32247779Y25400000D02*
X34840011Y22807768D01*
X13036012Y23196012D02*
X22683235Y23196012D01*
X34840011Y22807768D02*
X35440010Y22207769D01*
X34290000Y11430000D02*
X38100000Y11430000D01*
X31815775Y24130000D02*
X35655775Y20290000D01*
X37700000Y21590000D02*
X38100000Y21590000D01*
X23014610Y22396001D02*
X24748609Y24130000D01*
X8890000Y16510000D02*
X14776001Y22396001D01*
X36400000Y20290000D02*
X37700000Y21590000D01*
X14776001Y22396001D02*
X23014610Y22396001D01*
X24748609Y24130000D02*
X31815775Y24130000D01*
X35655775Y20290000D02*
X36400000Y20290000D01*
X72390000Y18101919D02*
X72390000Y22860000D01*
X72390000Y22860000D02*
X74930000Y25400000D01*
X74930000Y16764000D02*
X73727919Y16764000D01*
X73727919Y16764000D02*
X72390000Y18101919D01*
X74930000Y14224000D02*
X70966000Y14224000D01*
X70966000Y14224000D02*
X67290000Y17900000D01*
X67290000Y17900000D02*
X67290000Y19300000D01*
X67290000Y24130000D02*
X67290000Y19300000D01*
X67290000Y19300000D02*
X67040000Y19050000D01*
X74930000Y11684000D02*
X68580000Y11684000D01*
X68580000Y11684000D02*
X68451000Y11684000D01*
X66770000Y8570000D02*
X66820000Y8570000D01*
X66820000Y8570000D02*
X68580000Y10330000D01*
X68580000Y10330000D02*
X68580000Y11684000D01*
X68451000Y11684000D02*
X67290000Y12845000D01*
X67290000Y12845000D02*
X67290000Y13970000D01*
X60960000Y17800000D02*
X56114000Y17800000D01*
X56114000Y17800000D02*
X55880000Y18034000D01*
X65040000Y18100000D02*
X61260000Y18100000D01*
X61260000Y18100000D02*
X60960000Y17800000D01*
X60960000Y7640000D02*
X57130000Y7640000D01*
X57130000Y7640000D02*
X55880000Y8890000D01*
X64770000Y7620000D02*
X60980000Y7620000D01*
X60980000Y7620000D02*
X60960000Y7640000D01*
X33000000Y27940000D02*
X35560000Y27940000D01*
X37131000Y29511000D02*
X37131000Y31750000D01*
X35560000Y27940000D02*
X37131000Y29511000D01*
X37131000Y31750000D02*
X38100000Y30781000D01*
X38100000Y30781000D02*
X38100000Y24130000D01*
X37131000Y33989000D02*
X35560000Y35560000D01*
X35560000Y35560000D02*
X33000000Y35560000D01*
X37131000Y31750000D02*
X37131000Y33989000D01*
X42369970Y47369970D02*
X47070000Y52070000D01*
X42369968Y21758634D02*
X42171331Y21957271D01*
X42369970Y38341356D02*
X42369970Y47369970D01*
X42369970Y14380030D02*
X42369968Y21758634D01*
X45320000Y11430000D02*
X42369970Y14380030D01*
X45720000Y11430000D02*
X45320000Y11430000D01*
X42171331Y21957271D02*
X42171331Y38142717D01*
X42171331Y38142717D02*
X42369970Y38341356D01*
X50820000Y48260000D02*
X50695000Y48260000D01*
X50695000Y48260000D02*
X47070000Y51885000D01*
X47070000Y51885000D02*
X47070000Y52070000D01*
X48260000Y55880000D02*
X47070000Y54690000D01*
X47070000Y54690000D02*
X47070000Y52070000D01*
X50820000Y55880000D02*
X48260000Y55880000D01*
D26*
G36*
X10521602Y57370218D02*
X10329759Y57083103D01*
X10329759Y57083102D01*
X10262391Y56744428D01*
X10262392Y56744423D01*
X10262392Y56604779D01*
X10231629Y56592068D01*
X9799449Y56160643D01*
X9795706Y56151628D01*
X9680159Y56190554D01*
X8779605Y55290000D01*
X9680159Y54389446D01*
X9795214Y54428207D01*
X9797932Y54421629D01*
X10229357Y53989449D01*
X10793330Y53755267D01*
X11403991Y53754735D01*
X11968371Y53987932D01*
X12350288Y54369182D01*
X12729357Y53989449D01*
X13293330Y53755267D01*
X13883667Y53754753D01*
X21911806Y45726615D01*
X21783559Y45644090D01*
X21638569Y45431890D01*
X21587560Y45180000D01*
X21587560Y43680000D01*
X21631838Y43444683D01*
X21770910Y43228559D01*
X21840711Y43180866D01*
X21783559Y43144090D01*
X21638569Y42931890D01*
X21587560Y42680000D01*
X21587560Y41180000D01*
X21631838Y40944683D01*
X21770910Y40728559D01*
X21975000Y40589110D01*
X21975000Y38966580D01*
X21555015Y39386565D01*
X21555214Y39614579D01*
X21367592Y40068657D01*
X21020485Y40416371D01*
X20566734Y40604785D01*
X20075421Y40605214D01*
X19621343Y40417592D01*
X19273629Y40070485D01*
X19085215Y39616734D01*
X19084786Y39125421D01*
X19272408Y38671343D01*
X19619515Y38323629D01*
X20073266Y38135215D01*
X20303406Y38135014D01*
X21743280Y36695140D01*
X21638569Y36541890D01*
X21587560Y36290000D01*
X21587560Y34790000D01*
X21631838Y34554683D01*
X21770910Y34338559D01*
X21840711Y34290866D01*
X21783559Y34254090D01*
X21762829Y34223750D01*
X18687076Y37299504D01*
X18656702Y37319799D01*
X18399961Y37491347D01*
X18297932Y37511642D01*
X18061286Y37558715D01*
X18061281Y37558714D01*
X13082865Y37558714D01*
X10931738Y39709841D01*
X12699446Y39709841D01*
X12785852Y39453357D01*
X13359336Y39243542D01*
X13969460Y39269161D01*
X14414148Y39453357D01*
X14500554Y39709841D01*
X13600000Y40610395D01*
X12699446Y39709841D01*
X10931738Y39709841D01*
X10134753Y40506826D01*
X10135209Y41030664D01*
X12053542Y41030664D01*
X12079161Y40420540D01*
X12263357Y39975852D01*
X12519841Y39889446D01*
X13420395Y40790000D01*
X13779605Y40790000D01*
X14680159Y39889446D01*
X14936643Y39975852D01*
X15146458Y40549336D01*
X15120839Y41159460D01*
X14936643Y41604148D01*
X14680159Y41690554D01*
X13779605Y40790000D01*
X13420395Y40790000D01*
X12519841Y41690554D01*
X12263357Y41604148D01*
X12053542Y41030664D01*
X10135209Y41030664D01*
X10135265Y41093991D01*
X9902068Y41658371D01*
X9690650Y41870159D01*
X12699446Y41870159D01*
X13600000Y40969605D01*
X14500554Y41870159D01*
X14414148Y42126643D01*
X13840664Y42336458D01*
X13230540Y42310839D01*
X12785852Y42126643D01*
X12699446Y41870159D01*
X9690650Y41870159D01*
X9470643Y42090551D01*
X8906670Y42324733D01*
X8296009Y42325265D01*
X7731629Y42092068D01*
X7299449Y41660643D01*
X7065267Y41096670D01*
X7064735Y40486009D01*
X7297932Y39921629D01*
X7729357Y39489449D01*
X8293330Y39255267D01*
X8883668Y39254753D01*
X12090494Y36047927D01*
X12090496Y36047924D01*
X12343798Y35878674D01*
X12377611Y35856081D01*
X12716286Y35788714D01*
X17694706Y35788714D01*
X21109208Y32374213D01*
X21109210Y32374210D01*
X21396325Y32182367D01*
X21616036Y32138663D01*
X21631838Y32054683D01*
X21770910Y31838559D01*
X21983110Y31693569D01*
X22235000Y31642560D01*
X23485000Y31642560D01*
X23720317Y31686838D01*
X23936441Y31825910D01*
X24081431Y32038110D01*
X24097002Y32115000D01*
X25333560Y32115000D01*
X25333560Y30400000D01*
X25377838Y30164683D01*
X25516910Y29948559D01*
X25729110Y29803569D01*
X25981000Y29752560D01*
X30481000Y29752560D01*
X30716317Y29796838D01*
X30932441Y29935910D01*
X31077431Y30148110D01*
X31128440Y30400000D01*
X31128440Y33100000D01*
X31084162Y33335317D01*
X30945090Y33551441D01*
X30732890Y33696431D01*
X30481000Y33747440D01*
X28016000Y33747440D01*
X28016000Y34384420D01*
X28306579Y34675000D01*
X29162721Y34675000D01*
X29285910Y34483559D01*
X29498110Y34338569D01*
X29750000Y34287560D01*
X31250000Y34287560D01*
X31485317Y34331838D01*
X31701441Y34470910D01*
X31749134Y34540711D01*
X31785910Y34483559D01*
X31998110Y34338569D01*
X32250000Y34287560D01*
X33750000Y34287560D01*
X33985317Y34331838D01*
X34201441Y34470910D01*
X34340890Y34675000D01*
X35193420Y34675000D01*
X36120981Y33747440D01*
X33781000Y33747440D01*
X33545683Y33703162D01*
X33329559Y33564090D01*
X33184569Y33351890D01*
X33133560Y33100000D01*
X33133560Y30400000D01*
X33177838Y30164683D01*
X33316910Y29948559D01*
X33529110Y29803569D01*
X33781000Y29752560D01*
X36120981Y29752560D01*
X35193420Y28825000D01*
X34337279Y28825000D01*
X34214090Y29016441D01*
X34001890Y29161431D01*
X33750000Y29212440D01*
X32250000Y29212440D01*
X32014683Y29168162D01*
X31798559Y29029090D01*
X31752031Y28960994D01*
X31609698Y29103327D01*
X31376309Y29200000D01*
X30785750Y29200000D01*
X30627000Y29041250D01*
X30627000Y28067000D01*
X30647000Y28067000D01*
X30647000Y27813000D01*
X30627000Y27813000D01*
X30627000Y26838750D01*
X30785750Y26680000D01*
X31376309Y26680000D01*
X31609698Y26776673D01*
X31750936Y26917910D01*
X31785910Y26863559D01*
X31998110Y26718569D01*
X32250000Y26667560D01*
X33750000Y26667560D01*
X33985317Y26711838D01*
X34201441Y26850910D01*
X34340890Y27055000D01*
X35559995Y27055000D01*
X35560000Y27054999D01*
X35843747Y27111441D01*
X35898675Y27122367D01*
X36185790Y27314210D01*
X36185791Y27314211D01*
X37215000Y28343421D01*
X37215000Y25577440D01*
X36900000Y25577440D01*
X36664683Y25533162D01*
X36448559Y25394090D01*
X36303569Y25181890D01*
X36252560Y24930000D01*
X36252560Y23330000D01*
X36296179Y23098183D01*
X36140495Y23254140D01*
X35686744Y23442554D01*
X35456603Y23442755D01*
X32873569Y26025790D01*
X32846000Y26044211D01*
X32586454Y26217633D01*
X32530263Y26228810D01*
X32247779Y26285001D01*
X32247774Y26285000D01*
X29117372Y26285000D01*
X29174785Y26423266D01*
X29175214Y26914579D01*
X28987592Y27368657D01*
X28702498Y27654250D01*
X29115000Y27654250D01*
X29115000Y27188690D01*
X29211673Y26955301D01*
X29390302Y26776673D01*
X29623691Y26680000D01*
X30214250Y26680000D01*
X30373000Y26838750D01*
X30373000Y27813000D01*
X29273750Y27813000D01*
X29115000Y27654250D01*
X28702498Y27654250D01*
X28640485Y27716371D01*
X28186734Y27904785D01*
X27695421Y27905214D01*
X27241343Y27717592D01*
X27078467Y27555000D01*
X25025842Y27555000D01*
X25025837Y27555001D01*
X24687163Y27487634D01*
X24687161Y27487633D01*
X24687162Y27487633D01*
X24400047Y27295790D01*
X24400045Y27295787D01*
X21985280Y24881023D01*
X11296023Y24881023D01*
X10957348Y24813656D01*
X10670233Y24621813D01*
X10670231Y24621810D01*
X10366652Y24318231D01*
X10360539Y24348960D01*
X11449022Y25437443D01*
X16786537Y25437443D01*
X16947626Y25276072D01*
X17401377Y25087658D01*
X17892690Y25087229D01*
X18346768Y25274851D01*
X18694482Y25621958D01*
X18882896Y26075709D01*
X18883325Y26567022D01*
X18855237Y26634999D01*
X19654301Y26634999D01*
X19915756Y26373087D01*
X20369507Y26184673D01*
X20860820Y26184244D01*
X21314898Y26371866D01*
X21662612Y26718973D01*
X21851026Y27172724D01*
X21851455Y27664037D01*
X21663833Y28118115D01*
X21644462Y28137520D01*
X21724779Y28217696D01*
X21913193Y28671447D01*
X21913210Y28691310D01*
X29115000Y28691310D01*
X29115000Y28225750D01*
X29273750Y28067000D01*
X30373000Y28067000D01*
X30373000Y29041250D01*
X30214250Y29200000D01*
X29623691Y29200000D01*
X29390302Y29103327D01*
X29211673Y28924699D01*
X29115000Y28691310D01*
X21913210Y28691310D01*
X21913622Y29162760D01*
X21726000Y29616838D01*
X21378893Y29964552D01*
X20925142Y30152966D01*
X20433829Y30153395D01*
X20292503Y30095000D01*
X18570054Y30095000D01*
X18736765Y30496484D01*
X18737194Y30987797D01*
X18549572Y31441875D01*
X18445920Y31545709D01*
X18755959Y31855207D01*
X18944373Y32308958D01*
X18944802Y32800271D01*
X18757180Y33254349D01*
X18410073Y33602063D01*
X17956322Y33790477D01*
X17726181Y33790678D01*
X16601070Y34915790D01*
X16572320Y34935000D01*
X16313955Y35107633D01*
X16257764Y35118810D01*
X15975280Y35175001D01*
X15975275Y35175000D01*
X10380854Y35175000D01*
X10343162Y35375317D01*
X10204090Y35591441D01*
X9991890Y35736431D01*
X9740000Y35787440D01*
X8040000Y35787440D01*
X7804683Y35743162D01*
X7588559Y35604090D01*
X7443569Y35391890D01*
X7392560Y35140000D01*
X7392560Y33440000D01*
X7436838Y33204683D01*
X7575910Y32988559D01*
X7788110Y32843569D01*
X7855541Y32829914D01*
X7810853Y32800054D01*
X7488946Y32318285D01*
X7375907Y31750000D01*
X7488946Y31181715D01*
X7810853Y30699946D01*
X8140026Y30480000D01*
X7810853Y30260054D01*
X7488946Y29778285D01*
X7375907Y29210000D01*
X7488946Y28641715D01*
X7810853Y28159946D01*
X8140026Y27940000D01*
X7810853Y27720054D01*
X7488946Y27238285D01*
X7375907Y26670000D01*
X7488946Y26101715D01*
X7810853Y25619946D01*
X8140026Y25400000D01*
X7810853Y25180054D01*
X7488946Y24698285D01*
X7375907Y24130000D01*
X7488946Y23561715D01*
X7810853Y23079946D01*
X8140026Y22860000D01*
X7810853Y22640054D01*
X7488946Y22158285D01*
X7375907Y21590000D01*
X7488946Y21021715D01*
X7810853Y20539946D01*
X8140026Y20320000D01*
X7810853Y20100054D01*
X7488946Y19618285D01*
X7375907Y19050000D01*
X7488946Y18481715D01*
X7810853Y17999946D01*
X8140026Y17780000D01*
X7810853Y17560054D01*
X7488946Y17078285D01*
X7375907Y16510000D01*
X7488946Y15941715D01*
X7810853Y15459946D01*
X8151553Y15232298D01*
X8008642Y15165183D01*
X7618355Y14736924D01*
X7448524Y14326890D01*
X7569845Y14097000D01*
X8763000Y14097000D01*
X8763000Y14117000D01*
X9017000Y14117000D01*
X9017000Y14097000D01*
X10210155Y14097000D01*
X10331476Y14326890D01*
X10161645Y14736924D01*
X9771358Y15165183D01*
X9628447Y15232298D01*
X9969147Y15459946D01*
X10291054Y15941715D01*
X10347253Y16224250D01*
X15145000Y16224250D01*
X15145000Y15758690D01*
X15241673Y15525301D01*
X15420302Y15346673D01*
X15653691Y15250000D01*
X16244250Y15250000D01*
X16403000Y15408750D01*
X16403000Y16383000D01*
X15303750Y16383000D01*
X15145000Y16224250D01*
X10347253Y16224250D01*
X10404093Y16510000D01*
X10360539Y16728959D01*
X12141829Y18510250D01*
X15145000Y18510250D01*
X15145000Y18044690D01*
X15241673Y17811301D01*
X15399975Y17653000D01*
X15241673Y17494699D01*
X15145000Y17261310D01*
X15145000Y16795750D01*
X15303750Y16637000D01*
X16403000Y16637000D01*
X16403000Y17611250D01*
X16361250Y17653000D01*
X16403000Y17694750D01*
X16403000Y18669000D01*
X15303750Y18669000D01*
X15145000Y18510250D01*
X12141829Y18510250D01*
X13178889Y19547310D01*
X15145000Y19547310D01*
X15145000Y19081750D01*
X15303750Y18923000D01*
X16403000Y18923000D01*
X16403000Y19897250D01*
X16244250Y20056000D01*
X15653691Y20056000D01*
X15420302Y19959327D01*
X15241673Y19780699D01*
X15145000Y19547310D01*
X13178889Y19547310D01*
X15142580Y21511001D01*
X21123000Y21511001D01*
X21123000Y21381750D01*
X21281750Y21223000D01*
X22631000Y21223000D01*
X22631000Y21243000D01*
X22885000Y21243000D01*
X22885000Y21223000D01*
X24234250Y21223000D01*
X24393000Y21381750D01*
X24393000Y21972310D01*
X24296327Y22205699D01*
X24186107Y22315918D01*
X25115188Y23245000D01*
X31449195Y23245000D01*
X35029983Y19664213D01*
X35029985Y19664210D01*
X35272202Y19502367D01*
X35317100Y19472367D01*
X35655775Y19404999D01*
X35655780Y19405000D01*
X36299664Y19405000D01*
X36229050Y19050000D01*
X36338283Y18500849D01*
X36649352Y18035302D01*
X37031438Y17780000D01*
X36649352Y17524698D01*
X36562690Y17395000D01*
X33881574Y17395000D01*
X33720485Y17556371D01*
X33266734Y17744785D01*
X32775421Y17745214D01*
X32321343Y17557592D01*
X31973629Y17210485D01*
X31785215Y16756734D01*
X31784786Y16265421D01*
X31972408Y15811343D01*
X32319515Y15463629D01*
X32773266Y15275215D01*
X33264579Y15274786D01*
X33718657Y15462408D01*
X33881533Y15625000D01*
X36562690Y15625000D01*
X36649352Y15495302D01*
X37031438Y15240000D01*
X36649352Y14984698D01*
X36338283Y14519151D01*
X36229050Y13970000D01*
X36338283Y13420849D01*
X36649352Y12955302D01*
X37031438Y12700000D01*
X36649352Y12444698D01*
X36562690Y12315000D01*
X35151574Y12315000D01*
X34990485Y12476371D01*
X34536734Y12664785D01*
X34045421Y12665214D01*
X33591343Y12477592D01*
X33243629Y12130485D01*
X33055215Y11676734D01*
X33054786Y11185421D01*
X33242408Y10731343D01*
X33589515Y10383629D01*
X34043266Y10195215D01*
X34534579Y10194786D01*
X34988657Y10382408D01*
X35151533Y10545000D01*
X36562690Y10545000D01*
X36649352Y10415302D01*
X37027707Y10162493D01*
X36595500Y9814896D01*
X36325633Y9321819D01*
X36308096Y9239039D01*
X36430085Y9017000D01*
X37973000Y9017000D01*
X37973000Y9037000D01*
X38227000Y9037000D01*
X38227000Y9017000D01*
X39769915Y9017000D01*
X39891904Y9239039D01*
X39874367Y9321819D01*
X39604500Y9814896D01*
X39172293Y10162493D01*
X39550648Y10415302D01*
X39861717Y10880849D01*
X39970950Y11430000D01*
X39861717Y11979151D01*
X39550648Y12444698D01*
X39168562Y12700000D01*
X39550648Y12955302D01*
X39637310Y13085000D01*
X40639995Y13085000D01*
X40640000Y13084999D01*
X40922484Y13141190D01*
X40978675Y13152367D01*
X41265790Y13344210D01*
X41716799Y13795219D01*
X41744180Y13754240D01*
X43885446Y11612975D01*
X43849050Y11430000D01*
X43958283Y10880849D01*
X44269352Y10415302D01*
X44651438Y10160000D01*
X44269352Y9904698D01*
X43958283Y9439151D01*
X43849050Y8890000D01*
X43958283Y8340849D01*
X44269352Y7875302D01*
X44734899Y7564233D01*
X44835000Y7544322D01*
X44835000Y4954504D01*
X44834999Y4954499D01*
X44891190Y4672015D01*
X44902367Y4615824D01*
X45052926Y4390495D01*
X45094210Y4328709D01*
X45749474Y3673446D01*
X45749275Y3445431D01*
X45757717Y3425000D01*
X32946498Y3425000D01*
X29783533Y6587965D01*
X29972000Y6870026D01*
X30191946Y6540853D01*
X30673715Y6218946D01*
X31242000Y6105907D01*
X31810285Y6218946D01*
X32292054Y6540853D01*
X32613961Y7022622D01*
X32727000Y7590907D01*
X32727000Y7649093D01*
X32613961Y8217378D01*
X32397751Y8540961D01*
X36308096Y8540961D01*
X36325633Y8458181D01*
X36595500Y7965104D01*
X37033517Y7612834D01*
X37573000Y7455000D01*
X37973000Y7455000D01*
X37973000Y8763000D01*
X38227000Y8763000D01*
X38227000Y7455000D01*
X38627000Y7455000D01*
X39166483Y7612834D01*
X39604500Y7965104D01*
X39874367Y8458181D01*
X39891904Y8540961D01*
X39769915Y8763000D01*
X38227000Y8763000D01*
X37973000Y8763000D01*
X36430085Y8763000D01*
X36308096Y8540961D01*
X32397751Y8540961D01*
X32292054Y8699147D01*
X32127000Y8809432D01*
X32127000Y11811995D01*
X32127001Y11812000D01*
X32059634Y12150674D01*
X31918881Y12361326D01*
X31867790Y12437790D01*
X31867787Y12437792D01*
X28056771Y16248809D01*
X28058000Y16248560D01*
X30058000Y16248560D01*
X30293317Y16292838D01*
X30509441Y16431910D01*
X30654431Y16644110D01*
X30705440Y16896000D01*
X30705440Y20696000D01*
X30661162Y20931317D01*
X30522090Y21147441D01*
X30309890Y21292431D01*
X30058000Y21343440D01*
X28058000Y21343440D01*
X27822683Y21299162D01*
X27606559Y21160090D01*
X27461569Y20947890D01*
X27410560Y20696000D01*
X27410560Y19681000D01*
X24380038Y19681000D01*
X24361162Y19781317D01*
X24255518Y19945492D01*
X24296327Y19986301D01*
X24393000Y20219690D01*
X24393000Y20810250D01*
X24234250Y20969000D01*
X22885000Y20969000D01*
X22885000Y20949000D01*
X22631000Y20949000D01*
X22631000Y20969000D01*
X21281750Y20969000D01*
X21123000Y20810250D01*
X21123000Y20219690D01*
X21219673Y19986301D01*
X21261634Y19944340D01*
X21161569Y19797890D01*
X21137898Y19681000D01*
X20367279Y19681000D01*
X20244090Y19872441D01*
X20031890Y20017431D01*
X19780000Y20068440D01*
X18280000Y20068440D01*
X18044683Y20024162D01*
X17828559Y19885090D01*
X17782031Y19816994D01*
X17639698Y19959327D01*
X17406309Y20056000D01*
X16815750Y20056000D01*
X16657000Y19897250D01*
X16657000Y18923000D01*
X16677000Y18923000D01*
X16677000Y18669000D01*
X16657000Y18669000D01*
X16657000Y17694750D01*
X16698750Y17653000D01*
X16657000Y17611250D01*
X16657000Y16637000D01*
X16677000Y16637000D01*
X16677000Y16383000D01*
X16657000Y16383000D01*
X16657000Y15408750D01*
X16815750Y15250000D01*
X17406309Y15250000D01*
X17639698Y15346673D01*
X17780936Y15487910D01*
X17815910Y15433559D01*
X18028110Y15288569D01*
X18145000Y15264898D01*
X18145000Y13786579D01*
X16708420Y12350000D01*
X10127081Y12350000D01*
X10064380Y12337528D01*
X9969147Y12480054D01*
X9628447Y12707702D01*
X9771358Y12774817D01*
X10161645Y13203076D01*
X10331476Y13613110D01*
X10210155Y13843000D01*
X9017000Y13843000D01*
X9017000Y13823000D01*
X8763000Y13823000D01*
X8763000Y13843000D01*
X7569845Y13843000D01*
X7448524Y13613110D01*
X7618355Y13203076D01*
X8008642Y12774817D01*
X8151553Y12707702D01*
X7810853Y12480054D01*
X7488946Y11998285D01*
X7375907Y11430000D01*
X7488946Y10861715D01*
X7810853Y10379946D01*
X8292622Y10058039D01*
X8860907Y9945000D01*
X8919093Y9945000D01*
X9487378Y10058039D01*
X9969147Y10379946D01*
X10079432Y10545000D01*
X10092076Y10545000D01*
X10092081Y10544999D01*
X10268039Y10580000D01*
X17074995Y10580000D01*
X17075000Y10579999D01*
X17357484Y10636190D01*
X17413675Y10647367D01*
X17700790Y10839210D01*
X19655787Y12794208D01*
X19655790Y12794210D01*
X19819135Y13038674D01*
X19847634Y13081326D01*
X19915001Y13420000D01*
X19915000Y13420005D01*
X19915000Y15262962D01*
X20015317Y15281838D01*
X20231441Y15420910D01*
X20370890Y15625000D01*
X21133328Y15625000D01*
X21154838Y15510683D01*
X21293910Y15294559D01*
X21506110Y15149569D01*
X21758000Y15098560D01*
X23153860Y15098560D01*
X25277000Y12975421D01*
X25277000Y12291574D01*
X25115629Y12130485D01*
X24927215Y11676734D01*
X24926786Y11185421D01*
X25114408Y10731343D01*
X25277000Y10568467D01*
X25277000Y9110854D01*
X25076683Y9073162D01*
X24860559Y8934090D01*
X24715569Y8721890D01*
X24664560Y8470000D01*
X24664560Y6770000D01*
X24708838Y6534683D01*
X24847910Y6318559D01*
X25060110Y6173569D01*
X25312000Y6122560D01*
X27012000Y6122560D01*
X27247317Y6166838D01*
X27463441Y6305910D01*
X27608431Y6518110D01*
X27622086Y6585541D01*
X27651946Y6540853D01*
X27817000Y6430568D01*
X27817000Y6417924D01*
X27816999Y6417919D01*
X27851881Y6242560D01*
X27884367Y6079244D01*
X27960702Y5965000D01*
X28076210Y5792129D01*
X31954127Y1914213D01*
X31954129Y1914210D01*
X32241244Y1722367D01*
X32297435Y1711190D01*
X32579919Y1654999D01*
X32579924Y1655000D01*
X48259995Y1655000D01*
X48260000Y1654999D01*
X48542484Y1711190D01*
X48598675Y1722367D01*
X48885790Y1914210D01*
X51425787Y4454208D01*
X51425790Y4454210D01*
X51617633Y4741325D01*
X51685000Y5080000D01*
X51685000Y10252628D01*
X51823266Y10195215D01*
X52314579Y10194786D01*
X52768657Y10382408D01*
X52931533Y10545000D01*
X54690568Y10545000D01*
X54800853Y10379946D01*
X54842452Y10352150D01*
X54794683Y10343162D01*
X54578559Y10204090D01*
X54433569Y9991890D01*
X54382560Y9740000D01*
X54382560Y8040000D01*
X54426838Y7804683D01*
X54565910Y7588559D01*
X54778110Y7443569D01*
X55030000Y7392560D01*
X56125861Y7392560D01*
X56504208Y7014213D01*
X56504210Y7014210D01*
X56791325Y6822367D01*
X56847516Y6811190D01*
X57130000Y6754999D01*
X57130005Y6755000D01*
X59712962Y6755000D01*
X59731838Y6654683D01*
X59870910Y6438559D01*
X60083110Y6293569D01*
X60335000Y6242560D01*
X61585000Y6242560D01*
X61820317Y6286838D01*
X62036441Y6425910D01*
X62181431Y6638110D01*
X62201052Y6735000D01*
X63905025Y6735000D01*
X64068110Y6623569D01*
X64320000Y6572560D01*
X65220000Y6572560D01*
X65455317Y6616838D01*
X65671441Y6755910D01*
X65816431Y6968110D01*
X65867440Y7220000D01*
X65867440Y7710681D01*
X66068110Y7573569D01*
X66320000Y7522560D01*
X67220000Y7522560D01*
X67455317Y7566838D01*
X67671441Y7705910D01*
X67816431Y7918110D01*
X67867440Y8170000D01*
X67867440Y8365860D01*
X69205787Y9704208D01*
X69205790Y9704210D01*
X69397633Y9991325D01*
X69420092Y10104233D01*
X69465001Y10330000D01*
X69465000Y10330005D01*
X69465000Y10799000D01*
X73740568Y10799000D01*
X73850853Y10633946D01*
X74332622Y10312039D01*
X74900907Y10199000D01*
X74959093Y10199000D01*
X75527378Y10312039D01*
X76009147Y10633946D01*
X76331054Y11115715D01*
X76444093Y11684000D01*
X76331054Y12252285D01*
X76009147Y12734054D01*
X75679974Y12954000D01*
X76009147Y13173946D01*
X76331054Y13655715D01*
X76444093Y14224000D01*
X76331054Y14792285D01*
X76009147Y15274054D01*
X75679974Y15494000D01*
X76009147Y15713946D01*
X76331054Y16195715D01*
X76444093Y16764000D01*
X76331054Y17332285D01*
X76009147Y17814054D01*
X75965223Y17843403D01*
X76139698Y17915673D01*
X76318327Y18094301D01*
X76415000Y18327690D01*
X76415000Y19018250D01*
X76256250Y19177000D01*
X75057000Y19177000D01*
X75057000Y19157000D01*
X74803000Y19157000D01*
X74803000Y19177000D01*
X73603750Y19177000D01*
X73445000Y19018250D01*
X73445000Y18327690D01*
X73465641Y18277857D01*
X73275000Y18468499D01*
X73275000Y20280310D01*
X73445000Y20280310D01*
X73445000Y19589750D01*
X73603750Y19431000D01*
X74803000Y19431000D01*
X74803000Y20630250D01*
X75057000Y20630250D01*
X75057000Y19431000D01*
X76256250Y19431000D01*
X76415000Y19589750D01*
X76415000Y20280310D01*
X76318327Y20513699D01*
X76139698Y20692327D01*
X75906309Y20789000D01*
X75215750Y20789000D01*
X75057000Y20630250D01*
X74803000Y20630250D01*
X74644250Y20789000D01*
X73953691Y20789000D01*
X73720302Y20692327D01*
X73541673Y20513699D01*
X73445000Y20280310D01*
X73275000Y20280310D01*
X73275000Y22493420D01*
X74730479Y23948900D01*
X74900907Y23915000D01*
X74959093Y23915000D01*
X75527378Y24028039D01*
X76009147Y24349946D01*
X76331054Y24831715D01*
X76444093Y25400000D01*
X76331054Y25968285D01*
X76009147Y26450054D01*
X75967548Y26477850D01*
X76015317Y26486838D01*
X76231441Y26625910D01*
X76376431Y26838110D01*
X76427440Y27090000D01*
X76427440Y28790000D01*
X76383162Y29025317D01*
X76244090Y29241441D01*
X76031890Y29386431D01*
X75780000Y29437440D01*
X74080000Y29437440D01*
X73844683Y29393162D01*
X73628559Y29254090D01*
X73483569Y29041890D01*
X73439648Y28825000D01*
X65928684Y28825000D01*
X65928679Y28825001D01*
X65590004Y28757633D01*
X65302889Y28565790D01*
X65302887Y28565787D01*
X64326867Y27589768D01*
X64200485Y27716371D01*
X63746734Y27904785D01*
X63255421Y27905214D01*
X62801343Y27717592D01*
X62453629Y27370485D01*
X62265215Y26916734D01*
X62264786Y26425421D01*
X62452408Y25971343D01*
X62799515Y25623629D01*
X63253266Y25435215D01*
X63483406Y25435014D01*
X63655959Y25262461D01*
X63588559Y25219090D01*
X63443569Y25006890D01*
X63392560Y24755000D01*
X63392560Y23505000D01*
X63436838Y23269683D01*
X63575910Y23053559D01*
X63788110Y22908569D01*
X64040000Y22857560D01*
X65540000Y22857560D01*
X65775317Y22901838D01*
X65991441Y23040910D01*
X66039134Y23110711D01*
X66075910Y23053559D01*
X66288110Y22908569D01*
X66405000Y22884898D01*
X66405000Y20062630D01*
X66354683Y20053162D01*
X66138559Y19914090D01*
X66137440Y19912452D01*
X66137440Y20400000D01*
X66093162Y20635317D01*
X65954090Y20851441D01*
X65741890Y20996431D01*
X65490000Y21047440D01*
X64590000Y21047440D01*
X64354683Y21003162D01*
X64171054Y20885000D01*
X62232440Y20885000D01*
X62232440Y21050000D01*
X62188162Y21285317D01*
X62049090Y21501441D01*
X61836890Y21646431D01*
X61585000Y21697440D01*
X60939139Y21697440D01*
X58075049Y24561531D01*
X58072633Y24573675D01*
X57880790Y24860790D01*
X57593675Y25052633D01*
X57255000Y25120000D01*
X56916325Y25052633D01*
X56860003Y25015000D01*
X55843026Y25015000D01*
X55878327Y25050301D01*
X55975000Y25283690D01*
X55975000Y25749250D01*
X55816250Y25908000D01*
X54717000Y25908000D01*
X54717000Y25888000D01*
X54463000Y25888000D01*
X54463000Y25908000D01*
X54443000Y25908000D01*
X54443000Y26162000D01*
X54463000Y26162000D01*
X54463000Y27136250D01*
X54443000Y27156250D01*
X54443000Y27813000D01*
X54697000Y27813000D01*
X54697000Y26838750D01*
X54717000Y26818750D01*
X54717000Y26162000D01*
X55816250Y26162000D01*
X55975000Y26320750D01*
X55975000Y26786310D01*
X55881664Y27011642D01*
X55955000Y27188690D01*
X55955000Y27654250D01*
X55796250Y27813000D01*
X54697000Y27813000D01*
X54443000Y27813000D01*
X54423000Y27813000D01*
X54423000Y28067000D01*
X54443000Y28067000D01*
X54443000Y29041250D01*
X54697000Y29041250D01*
X54697000Y28067000D01*
X55796250Y28067000D01*
X55955000Y28225750D01*
X55955000Y28691310D01*
X55858327Y28924699D01*
X55679698Y29103327D01*
X55446309Y29200000D01*
X54855750Y29200000D01*
X54697000Y29041250D01*
X54443000Y29041250D01*
X54284250Y29200000D01*
X53693691Y29200000D01*
X53460302Y29103327D01*
X53319064Y28962090D01*
X53284090Y29016441D01*
X53071890Y29161431D01*
X52820000Y29212440D01*
X51320000Y29212440D01*
X51084683Y29168162D01*
X50868559Y29029090D01*
X50729110Y28825000D01*
X49896579Y28825000D01*
X48969019Y29752560D01*
X50420000Y29752560D01*
X50655317Y29796838D01*
X50871441Y29935910D01*
X51016431Y30148110D01*
X51067440Y30400000D01*
X51067440Y33100000D01*
X51023162Y33335317D01*
X50884090Y33551441D01*
X50671890Y33696431D01*
X50420000Y33747440D01*
X47955000Y33747440D01*
X47955000Y34003420D01*
X48626579Y34675000D01*
X49482721Y34675000D01*
X49605910Y34483559D01*
X49818110Y34338569D01*
X50070000Y34287560D01*
X51570000Y34287560D01*
X51805317Y34331838D01*
X52021441Y34470910D01*
X52069134Y34540711D01*
X52105910Y34483559D01*
X52318110Y34338569D01*
X52570000Y34287560D01*
X54070000Y34287560D01*
X54305317Y34331838D01*
X54521441Y34470910D01*
X54660890Y34675000D01*
X55513420Y34675000D01*
X56185000Y34003421D01*
X56185000Y33747440D01*
X53720000Y33747440D01*
X53484683Y33703162D01*
X53268559Y33564090D01*
X53123569Y33351890D01*
X53072560Y33100000D01*
X53072560Y30400000D01*
X53116838Y30164683D01*
X53255910Y29948559D01*
X53468110Y29803569D01*
X53720000Y29752560D01*
X58220000Y29752560D01*
X58455317Y29796838D01*
X58671441Y29935910D01*
X58816431Y30148110D01*
X58867440Y30400000D01*
X58867440Y33100000D01*
X58823162Y33335317D01*
X58781555Y33399976D01*
X59827539Y34445960D01*
X59870910Y34378559D01*
X60083110Y34233569D01*
X60335000Y34182560D01*
X61585000Y34182560D01*
X61820317Y34226838D01*
X62036441Y34365910D01*
X62181431Y34578110D01*
X62197002Y34655000D01*
X68559995Y34655000D01*
X68560000Y34654999D01*
X68660549Y34675000D01*
X69849995Y34675000D01*
X69850000Y34674999D01*
X70132484Y34731190D01*
X70188675Y34742367D01*
X70475790Y34934210D01*
X70475791Y34934211D01*
X71725787Y36184208D01*
X71725790Y36184210D01*
X71917633Y36471325D01*
X71957891Y36673714D01*
X71985001Y36810000D01*
X71985000Y36810005D01*
X71985000Y39004532D01*
X72190668Y39209841D01*
X72699446Y39209841D01*
X72785852Y38953357D01*
X73359336Y38743542D01*
X73969460Y38769161D01*
X74414148Y38953357D01*
X74500554Y39209841D01*
X73600000Y40110395D01*
X72699446Y39209841D01*
X72190668Y39209841D01*
X72400551Y39419357D01*
X72404294Y39428372D01*
X72519841Y39389446D01*
X73420395Y40290000D01*
X73779605Y40290000D01*
X74680159Y39389446D01*
X74936643Y39475852D01*
X75146458Y40049336D01*
X75120839Y40659460D01*
X74936643Y41104148D01*
X74680159Y41190554D01*
X73779605Y40290000D01*
X73420395Y40290000D01*
X72519841Y41190554D01*
X72404786Y41151793D01*
X72402068Y41158371D01*
X72190650Y41370159D01*
X72699446Y41370159D01*
X73600000Y40469605D01*
X74500554Y41370159D01*
X74414148Y41626643D01*
X73840664Y41836458D01*
X73230540Y41810839D01*
X72785852Y41626643D01*
X72699446Y41370159D01*
X72190650Y41370159D01*
X71970643Y41590551D01*
X71406670Y41824733D01*
X70796009Y41825265D01*
X70231629Y41592068D01*
X69849712Y41210818D01*
X69470643Y41590551D01*
X68906670Y41824733D01*
X68316332Y41825247D01*
X66355790Y43785790D01*
X66328222Y43804210D01*
X66068675Y43977633D01*
X66012484Y43988810D01*
X65730000Y44045001D01*
X65729995Y44045000D01*
X62207038Y44045000D01*
X62188162Y44145317D01*
X62049090Y44361441D01*
X61836890Y44506431D01*
X61585000Y44557440D01*
X60335000Y44557440D01*
X60099683Y44513162D01*
X59883559Y44374090D01*
X59738569Y44161890D01*
X59714898Y44045000D01*
X58400005Y44045000D01*
X58400000Y44045001D01*
X58117516Y43988810D01*
X58061325Y43977633D01*
X57956273Y43907440D01*
X57955000Y43907440D01*
X57955000Y44529995D01*
X57955001Y44530000D01*
X57887633Y44868675D01*
X57762607Y45055790D01*
X57695790Y45155790D01*
X57695787Y45155792D01*
X56505790Y46345790D01*
X56471540Y46368675D01*
X56218675Y46537633D01*
X56162484Y46548810D01*
X55880000Y46605001D01*
X55879995Y46605000D01*
X54657279Y46605000D01*
X54534090Y46796441D01*
X54321890Y46941431D01*
X54070000Y46992440D01*
X52570000Y46992440D01*
X52334683Y46948162D01*
X52118559Y46809090D01*
X52070866Y46739289D01*
X52034090Y46796441D01*
X51821890Y46941431D01*
X51582491Y46989910D01*
X51805317Y47031838D01*
X52021441Y47170910D01*
X52067969Y47239006D01*
X52210302Y47096673D01*
X52443691Y47000000D01*
X53034250Y47000000D01*
X53193000Y47158750D01*
X53193000Y48133000D01*
X53447000Y48133000D01*
X53447000Y47158750D01*
X53605750Y47000000D01*
X54196309Y47000000D01*
X54429698Y47096673D01*
X54608327Y47275301D01*
X54646386Y47367185D01*
X63364630Y47367185D01*
X63688980Y46582200D01*
X64289041Y45981091D01*
X65073459Y45655372D01*
X65922815Y45654630D01*
X66707800Y45978980D01*
X67308909Y46579041D01*
X67634628Y47363459D01*
X67635370Y48212815D01*
X67311020Y48997800D01*
X66710959Y49598909D01*
X65926541Y49924628D01*
X65077185Y49925370D01*
X64292200Y49601020D01*
X63691091Y49000959D01*
X63365372Y48216541D01*
X63364630Y47367185D01*
X54646386Y47367185D01*
X54705000Y47508690D01*
X54705000Y47974250D01*
X54546250Y48133000D01*
X53447000Y48133000D01*
X53193000Y48133000D01*
X53173000Y48133000D01*
X53173000Y48387000D01*
X53193000Y48387000D01*
X53193000Y49361250D01*
X53447000Y49361250D01*
X53447000Y48387000D01*
X54546250Y48387000D01*
X54705000Y48545750D01*
X54705000Y49011310D01*
X54608327Y49244699D01*
X54429698Y49423327D01*
X54196309Y49520000D01*
X53605750Y49520000D01*
X53447000Y49361250D01*
X53193000Y49361250D01*
X53034250Y49520000D01*
X52443691Y49520000D01*
X52210302Y49423327D01*
X52069064Y49282090D01*
X52034090Y49336441D01*
X51821890Y49481431D01*
X51570000Y49532440D01*
X50674139Y49532440D01*
X50134019Y50072560D01*
X50420000Y50072560D01*
X50655317Y50116838D01*
X50871441Y50255910D01*
X51016431Y50468110D01*
X51067440Y50720000D01*
X51067440Y53420000D01*
X51023162Y53655317D01*
X50884090Y53871441D01*
X50671890Y54016431D01*
X50420000Y54067440D01*
X47955000Y54067440D01*
X47955000Y54323420D01*
X48626579Y54995000D01*
X49482721Y54995000D01*
X49605910Y54803559D01*
X49818110Y54658569D01*
X50070000Y54607560D01*
X51570000Y54607560D01*
X51805317Y54651838D01*
X52021441Y54790910D01*
X52069134Y54860711D01*
X52105910Y54803559D01*
X52318110Y54658569D01*
X52570000Y54607560D01*
X54070000Y54607560D01*
X54305317Y54651838D01*
X54476457Y54761963D01*
X55170980Y54067440D01*
X53720000Y54067440D01*
X53484683Y54023162D01*
X53268559Y53884090D01*
X53123569Y53671890D01*
X53072560Y53420000D01*
X53072560Y50720000D01*
X53116838Y50484683D01*
X53255910Y50268559D01*
X53468110Y50123569D01*
X53720000Y50072560D01*
X58220000Y50072560D01*
X58455317Y50116838D01*
X58671441Y50255910D01*
X58816431Y50468110D01*
X58867440Y50720000D01*
X58867440Y51185000D01*
X59716725Y51185000D01*
X59731838Y51104683D01*
X59870910Y50888559D01*
X60083110Y50743569D01*
X60335000Y50692560D01*
X61585000Y50692560D01*
X61820317Y50736838D01*
X62036441Y50875910D01*
X62181431Y51088110D01*
X62197002Y51165000D01*
X70859995Y51165000D01*
X70860000Y51164999D01*
X71142484Y51221190D01*
X71198675Y51232367D01*
X71485790Y51424210D01*
X71485791Y51424211D01*
X73316826Y53255247D01*
X73903991Y53254735D01*
X74468371Y53487932D01*
X74900551Y53919357D01*
X75134733Y54483330D01*
X75135265Y55093991D01*
X74902068Y55658371D01*
X74470643Y56090551D01*
X73906670Y56324733D01*
X73296009Y56325265D01*
X72731629Y56092068D01*
X72299449Y55660643D01*
X72065267Y55096670D01*
X72064753Y54506332D01*
X70493420Y52935000D01*
X62214564Y52935000D01*
X62188162Y53075317D01*
X62049090Y53291441D01*
X61979289Y53339134D01*
X62036441Y53375910D01*
X62181431Y53588110D01*
X62206082Y53709841D01*
X67699446Y53709841D01*
X67785852Y53453357D01*
X68359336Y53243542D01*
X68969460Y53269161D01*
X69414148Y53453357D01*
X69500554Y53709841D01*
X68600000Y54610395D01*
X67699446Y53709841D01*
X62206082Y53709841D01*
X62232440Y53840000D01*
X62232440Y55030664D01*
X67053542Y55030664D01*
X67079161Y54420540D01*
X67263357Y53975852D01*
X67519841Y53889446D01*
X68420395Y54790000D01*
X68779605Y54790000D01*
X69680159Y53889446D01*
X69936643Y53975852D01*
X70146458Y54549336D01*
X70120839Y55159460D01*
X69936643Y55604148D01*
X69680159Y55690554D01*
X68779605Y54790000D01*
X68420395Y54790000D01*
X67519841Y55690554D01*
X67263357Y55604148D01*
X67053542Y55030664D01*
X62232440Y55030664D01*
X62232440Y55340000D01*
X62188162Y55575317D01*
X62049090Y55791441D01*
X61933883Y55870159D01*
X67699446Y55870159D01*
X68600000Y54969605D01*
X69500554Y55870159D01*
X69414148Y56126643D01*
X68840664Y56336458D01*
X68230540Y56310839D01*
X67785852Y56126643D01*
X67699446Y55870159D01*
X61933883Y55870159D01*
X61836890Y55936431D01*
X61585000Y55987440D01*
X60335000Y55987440D01*
X60099683Y55943162D01*
X59883559Y55804090D01*
X59879066Y55797514D01*
X57900790Y57775790D01*
X57789000Y57850485D01*
X57613675Y57967633D01*
X57557484Y57978810D01*
X57275000Y58035001D01*
X57274995Y58035000D01*
X22451574Y58035000D01*
X22290485Y58196371D01*
X21932547Y58345000D01*
X78665000Y58345000D01*
X78665000Y48625141D01*
X78511020Y48997800D01*
X77910959Y49598909D01*
X77126541Y49924628D01*
X76277185Y49925370D01*
X75492200Y49601020D01*
X74891091Y49000959D01*
X74565372Y48216541D01*
X74564630Y47367185D01*
X74888980Y46582200D01*
X75489041Y45981091D01*
X76273459Y45655372D01*
X77122815Y45654630D01*
X77907800Y45978980D01*
X78508909Y46579041D01*
X78665000Y46954950D01*
X78665000Y710000D01*
X710000Y710000D01*
X710000Y47367185D01*
X3364630Y47367185D01*
X3688980Y46582200D01*
X4289041Y45981091D01*
X5073459Y45655372D01*
X5922815Y45654630D01*
X6707800Y45978980D01*
X7308909Y46579041D01*
X7634628Y47363459D01*
X7634631Y47367185D01*
X14564630Y47367185D01*
X14888980Y46582200D01*
X15489041Y45981091D01*
X16273459Y45655372D01*
X17122815Y45654630D01*
X17907800Y45978980D01*
X18508909Y46579041D01*
X18834628Y47363459D01*
X18835370Y48212815D01*
X18511020Y48997800D01*
X17910959Y49598909D01*
X17126541Y49924628D01*
X16277185Y49925370D01*
X15492200Y49601020D01*
X14891091Y49000959D01*
X14565372Y48216541D01*
X14564630Y47367185D01*
X7634631Y47367185D01*
X7635370Y48212815D01*
X7311020Y48997800D01*
X6710959Y49598909D01*
X5926541Y49924628D01*
X5077185Y49925370D01*
X4292200Y49601020D01*
X3691091Y49000959D01*
X3365372Y48216541D01*
X3364630Y47367185D01*
X710000Y47367185D01*
X710000Y54209841D01*
X7699446Y54209841D01*
X7785852Y53953357D01*
X8359336Y53743542D01*
X8969460Y53769161D01*
X9414148Y53953357D01*
X9500554Y54209841D01*
X8600000Y55110395D01*
X7699446Y54209841D01*
X710000Y54209841D01*
X710000Y55530664D01*
X7053542Y55530664D01*
X7079161Y54920540D01*
X7263357Y54475852D01*
X7519841Y54389446D01*
X8420395Y55290000D01*
X7519841Y56190554D01*
X7263357Y56104148D01*
X7053542Y55530664D01*
X710000Y55530664D01*
X710000Y56370159D01*
X7699446Y56370159D01*
X8600000Y55469605D01*
X9500554Y56370159D01*
X9414148Y56626643D01*
X8840664Y56836458D01*
X8230540Y56810839D01*
X7785852Y56626643D01*
X7699446Y56370159D01*
X710000Y56370159D01*
X710000Y58345000D01*
X11496385Y58345000D01*
X10521602Y57370218D01*
X10521602Y57370218D01*
G37*
X10521602Y57370218D02*
X10329759Y57083103D01*
X10329759Y57083102D01*
X10262391Y56744428D01*
X10262392Y56744423D01*
X10262392Y56604779D01*
X10231629Y56592068D01*
X9799449Y56160643D01*
X9795706Y56151628D01*
X9680159Y56190554D01*
X8779605Y55290000D01*
X9680159Y54389446D01*
X9795214Y54428207D01*
X9797932Y54421629D01*
X10229357Y53989449D01*
X10793330Y53755267D01*
X11403991Y53754735D01*
X11968371Y53987932D01*
X12350288Y54369182D01*
X12729357Y53989449D01*
X13293330Y53755267D01*
X13883667Y53754753D01*
X21911806Y45726615D01*
X21783559Y45644090D01*
X21638569Y45431890D01*
X21587560Y45180000D01*
X21587560Y43680000D01*
X21631838Y43444683D01*
X21770910Y43228559D01*
X21840711Y43180866D01*
X21783559Y43144090D01*
X21638569Y42931890D01*
X21587560Y42680000D01*
X21587560Y41180000D01*
X21631838Y40944683D01*
X21770910Y40728559D01*
X21975000Y40589110D01*
X21975000Y38966580D01*
X21555015Y39386565D01*
X21555214Y39614579D01*
X21367592Y40068657D01*
X21020485Y40416371D01*
X20566734Y40604785D01*
X20075421Y40605214D01*
X19621343Y40417592D01*
X19273629Y40070485D01*
X19085215Y39616734D01*
X19084786Y39125421D01*
X19272408Y38671343D01*
X19619515Y38323629D01*
X20073266Y38135215D01*
X20303406Y38135014D01*
X21743280Y36695140D01*
X21638569Y36541890D01*
X21587560Y36290000D01*
X21587560Y34790000D01*
X21631838Y34554683D01*
X21770910Y34338559D01*
X21840711Y34290866D01*
X21783559Y34254090D01*
X21762829Y34223750D01*
X18687076Y37299504D01*
X18656702Y37319799D01*
X18399961Y37491347D01*
X18297932Y37511642D01*
X18061286Y37558715D01*
X18061281Y37558714D01*
X13082865Y37558714D01*
X10931738Y39709841D01*
X12699446Y39709841D01*
X12785852Y39453357D01*
X13359336Y39243542D01*
X13969460Y39269161D01*
X14414148Y39453357D01*
X14500554Y39709841D01*
X13600000Y40610395D01*
X12699446Y39709841D01*
X10931738Y39709841D01*
X10134753Y40506826D01*
X10135209Y41030664D01*
X12053542Y41030664D01*
X12079161Y40420540D01*
X12263357Y39975852D01*
X12519841Y39889446D01*
X13420395Y40790000D01*
X13779605Y40790000D01*
X14680159Y39889446D01*
X14936643Y39975852D01*
X15146458Y40549336D01*
X15120839Y41159460D01*
X14936643Y41604148D01*
X14680159Y41690554D01*
X13779605Y40790000D01*
X13420395Y40790000D01*
X12519841Y41690554D01*
X12263357Y41604148D01*
X12053542Y41030664D01*
X10135209Y41030664D01*
X10135265Y41093991D01*
X9902068Y41658371D01*
X9690650Y41870159D01*
X12699446Y41870159D01*
X13600000Y40969605D01*
X14500554Y41870159D01*
X14414148Y42126643D01*
X13840664Y42336458D01*
X13230540Y42310839D01*
X12785852Y42126643D01*
X12699446Y41870159D01*
X9690650Y41870159D01*
X9470643Y42090551D01*
X8906670Y42324733D01*
X8296009Y42325265D01*
X7731629Y42092068D01*
X7299449Y41660643D01*
X7065267Y41096670D01*
X7064735Y40486009D01*
X7297932Y39921629D01*
X7729357Y39489449D01*
X8293330Y39255267D01*
X8883668Y39254753D01*
X12090494Y36047927D01*
X12090496Y36047924D01*
X12343798Y35878674D01*
X12377611Y35856081D01*
X12716286Y35788714D01*
X17694706Y35788714D01*
X21109208Y32374213D01*
X21109210Y32374210D01*
X21396325Y32182367D01*
X21616036Y32138663D01*
X21631838Y32054683D01*
X21770910Y31838559D01*
X21983110Y31693569D01*
X22235000Y31642560D01*
X23485000Y31642560D01*
X23720317Y31686838D01*
X23936441Y31825910D01*
X24081431Y32038110D01*
X24097002Y32115000D01*
X25333560Y32115000D01*
X25333560Y30400000D01*
X25377838Y30164683D01*
X25516910Y29948559D01*
X25729110Y29803569D01*
X25981000Y29752560D01*
X30481000Y29752560D01*
X30716317Y29796838D01*
X30932441Y29935910D01*
X31077431Y30148110D01*
X31128440Y30400000D01*
X31128440Y33100000D01*
X31084162Y33335317D01*
X30945090Y33551441D01*
X30732890Y33696431D01*
X30481000Y33747440D01*
X28016000Y33747440D01*
X28016000Y34384420D01*
X28306579Y34675000D01*
X29162721Y34675000D01*
X29285910Y34483559D01*
X29498110Y34338569D01*
X29750000Y34287560D01*
X31250000Y34287560D01*
X31485317Y34331838D01*
X31701441Y34470910D01*
X31749134Y34540711D01*
X31785910Y34483559D01*
X31998110Y34338569D01*
X32250000Y34287560D01*
X33750000Y34287560D01*
X33985317Y34331838D01*
X34201441Y34470910D01*
X34340890Y34675000D01*
X35193420Y34675000D01*
X36120981Y33747440D01*
X33781000Y33747440D01*
X33545683Y33703162D01*
X33329559Y33564090D01*
X33184569Y33351890D01*
X33133560Y33100000D01*
X33133560Y30400000D01*
X33177838Y30164683D01*
X33316910Y29948559D01*
X33529110Y29803569D01*
X33781000Y29752560D01*
X36120981Y29752560D01*
X35193420Y28825000D01*
X34337279Y28825000D01*
X34214090Y29016441D01*
X34001890Y29161431D01*
X33750000Y29212440D01*
X32250000Y29212440D01*
X32014683Y29168162D01*
X31798559Y29029090D01*
X31752031Y28960994D01*
X31609698Y29103327D01*
X31376309Y29200000D01*
X30785750Y29200000D01*
X30627000Y29041250D01*
X30627000Y28067000D01*
X30647000Y28067000D01*
X30647000Y27813000D01*
X30627000Y27813000D01*
X30627000Y26838750D01*
X30785750Y26680000D01*
X31376309Y26680000D01*
X31609698Y26776673D01*
X31750936Y26917910D01*
X31785910Y26863559D01*
X31998110Y26718569D01*
X32250000Y26667560D01*
X33750000Y26667560D01*
X33985317Y26711838D01*
X34201441Y26850910D01*
X34340890Y27055000D01*
X35559995Y27055000D01*
X35560000Y27054999D01*
X35843747Y27111441D01*
X35898675Y27122367D01*
X36185790Y27314210D01*
X36185791Y27314211D01*
X37215000Y28343421D01*
X37215000Y25577440D01*
X36900000Y25577440D01*
X36664683Y25533162D01*
X36448559Y25394090D01*
X36303569Y25181890D01*
X36252560Y24930000D01*
X36252560Y23330000D01*
X36296179Y23098183D01*
X36140495Y23254140D01*
X35686744Y23442554D01*
X35456603Y23442755D01*
X32873569Y26025790D01*
X32846000Y26044211D01*
X32586454Y26217633D01*
X32530263Y26228810D01*
X32247779Y26285001D01*
X32247774Y26285000D01*
X29117372Y26285000D01*
X29174785Y26423266D01*
X29175214Y26914579D01*
X28987592Y27368657D01*
X28702498Y27654250D01*
X29115000Y27654250D01*
X29115000Y27188690D01*
X29211673Y26955301D01*
X29390302Y26776673D01*
X29623691Y26680000D01*
X30214250Y26680000D01*
X30373000Y26838750D01*
X30373000Y27813000D01*
X29273750Y27813000D01*
X29115000Y27654250D01*
X28702498Y27654250D01*
X28640485Y27716371D01*
X28186734Y27904785D01*
X27695421Y27905214D01*
X27241343Y27717592D01*
X27078467Y27555000D01*
X25025842Y27555000D01*
X25025837Y27555001D01*
X24687163Y27487634D01*
X24687161Y27487633D01*
X24687162Y27487633D01*
X24400047Y27295790D01*
X24400045Y27295787D01*
X21985280Y24881023D01*
X11296023Y24881023D01*
X10957348Y24813656D01*
X10670233Y24621813D01*
X10670231Y24621810D01*
X10366652Y24318231D01*
X10360539Y24348960D01*
X11449022Y25437443D01*
X16786537Y25437443D01*
X16947626Y25276072D01*
X17401377Y25087658D01*
X17892690Y25087229D01*
X18346768Y25274851D01*
X18694482Y25621958D01*
X18882896Y26075709D01*
X18883325Y26567022D01*
X18855237Y26634999D01*
X19654301Y26634999D01*
X19915756Y26373087D01*
X20369507Y26184673D01*
X20860820Y26184244D01*
X21314898Y26371866D01*
X21662612Y26718973D01*
X21851026Y27172724D01*
X21851455Y27664037D01*
X21663833Y28118115D01*
X21644462Y28137520D01*
X21724779Y28217696D01*
X21913193Y28671447D01*
X21913210Y28691310D01*
X29115000Y28691310D01*
X29115000Y28225750D01*
X29273750Y28067000D01*
X30373000Y28067000D01*
X30373000Y29041250D01*
X30214250Y29200000D01*
X29623691Y29200000D01*
X29390302Y29103327D01*
X29211673Y28924699D01*
X29115000Y28691310D01*
X21913210Y28691310D01*
X21913622Y29162760D01*
X21726000Y29616838D01*
X21378893Y29964552D01*
X20925142Y30152966D01*
X20433829Y30153395D01*
X20292503Y30095000D01*
X18570054Y30095000D01*
X18736765Y30496484D01*
X18737194Y30987797D01*
X18549572Y31441875D01*
X18445920Y31545709D01*
X18755959Y31855207D01*
X18944373Y32308958D01*
X18944802Y32800271D01*
X18757180Y33254349D01*
X18410073Y33602063D01*
X17956322Y33790477D01*
X17726181Y33790678D01*
X16601070Y34915790D01*
X16572320Y34935000D01*
X16313955Y35107633D01*
X16257764Y35118810D01*
X15975280Y35175001D01*
X15975275Y35175000D01*
X10380854Y35175000D01*
X10343162Y35375317D01*
X10204090Y35591441D01*
X9991890Y35736431D01*
X9740000Y35787440D01*
X8040000Y35787440D01*
X7804683Y35743162D01*
X7588559Y35604090D01*
X7443569Y35391890D01*
X7392560Y35140000D01*
X7392560Y33440000D01*
X7436838Y33204683D01*
X7575910Y32988559D01*
X7788110Y32843569D01*
X7855541Y32829914D01*
X7810853Y32800054D01*
X7488946Y32318285D01*
X7375907Y31750000D01*
X7488946Y31181715D01*
X7810853Y30699946D01*
X8140026Y30480000D01*
X7810853Y30260054D01*
X7488946Y29778285D01*
X7375907Y29210000D01*
X7488946Y28641715D01*
X7810853Y28159946D01*
X8140026Y27940000D01*
X7810853Y27720054D01*
X7488946Y27238285D01*
X7375907Y26670000D01*
X7488946Y26101715D01*
X7810853Y25619946D01*
X8140026Y25400000D01*
X7810853Y25180054D01*
X7488946Y24698285D01*
X7375907Y24130000D01*
X7488946Y23561715D01*
X7810853Y23079946D01*
X8140026Y22860000D01*
X7810853Y22640054D01*
X7488946Y22158285D01*
X7375907Y21590000D01*
X7488946Y21021715D01*
X7810853Y20539946D01*
X8140026Y20320000D01*
X7810853Y20100054D01*
X7488946Y19618285D01*
X7375907Y19050000D01*
X7488946Y18481715D01*
X7810853Y17999946D01*
X8140026Y17780000D01*
X7810853Y17560054D01*
X7488946Y17078285D01*
X7375907Y16510000D01*
X7488946Y15941715D01*
X7810853Y15459946D01*
X8151553Y15232298D01*
X8008642Y15165183D01*
X7618355Y14736924D01*
X7448524Y14326890D01*
X7569845Y14097000D01*
X8763000Y14097000D01*
X8763000Y14117000D01*
X9017000Y14117000D01*
X9017000Y14097000D01*
X10210155Y14097000D01*
X10331476Y14326890D01*
X10161645Y14736924D01*
X9771358Y15165183D01*
X9628447Y15232298D01*
X9969147Y15459946D01*
X10291054Y15941715D01*
X10347253Y16224250D01*
X15145000Y16224250D01*
X15145000Y15758690D01*
X15241673Y15525301D01*
X15420302Y15346673D01*
X15653691Y15250000D01*
X16244250Y15250000D01*
X16403000Y15408750D01*
X16403000Y16383000D01*
X15303750Y16383000D01*
X15145000Y16224250D01*
X10347253Y16224250D01*
X10404093Y16510000D01*
X10360539Y16728959D01*
X12141829Y18510250D01*
X15145000Y18510250D01*
X15145000Y18044690D01*
X15241673Y17811301D01*
X15399975Y17653000D01*
X15241673Y17494699D01*
X15145000Y17261310D01*
X15145000Y16795750D01*
X15303750Y16637000D01*
X16403000Y16637000D01*
X16403000Y17611250D01*
X16361250Y17653000D01*
X16403000Y17694750D01*
X16403000Y18669000D01*
X15303750Y18669000D01*
X15145000Y18510250D01*
X12141829Y18510250D01*
X13178889Y19547310D01*
X15145000Y19547310D01*
X15145000Y19081750D01*
X15303750Y18923000D01*
X16403000Y18923000D01*
X16403000Y19897250D01*
X16244250Y20056000D01*
X15653691Y20056000D01*
X15420302Y19959327D01*
X15241673Y19780699D01*
X15145000Y19547310D01*
X13178889Y19547310D01*
X15142580Y21511001D01*
X21123000Y21511001D01*
X21123000Y21381750D01*
X21281750Y21223000D01*
X22631000Y21223000D01*
X22631000Y21243000D01*
X22885000Y21243000D01*
X22885000Y21223000D01*
X24234250Y21223000D01*
X24393000Y21381750D01*
X24393000Y21972310D01*
X24296327Y22205699D01*
X24186107Y22315918D01*
X25115188Y23245000D01*
X31449195Y23245000D01*
X35029983Y19664213D01*
X35029985Y19664210D01*
X35272202Y19502367D01*
X35317100Y19472367D01*
X35655775Y19404999D01*
X35655780Y19405000D01*
X36299664Y19405000D01*
X36229050Y19050000D01*
X36338283Y18500849D01*
X36649352Y18035302D01*
X37031438Y17780000D01*
X36649352Y17524698D01*
X36562690Y17395000D01*
X33881574Y17395000D01*
X33720485Y17556371D01*
X33266734Y17744785D01*
X32775421Y17745214D01*
X32321343Y17557592D01*
X31973629Y17210485D01*
X31785215Y16756734D01*
X31784786Y16265421D01*
X31972408Y15811343D01*
X32319515Y15463629D01*
X32773266Y15275215D01*
X33264579Y15274786D01*
X33718657Y15462408D01*
X33881533Y15625000D01*
X36562690Y15625000D01*
X36649352Y15495302D01*
X37031438Y15240000D01*
X36649352Y14984698D01*
X36338283Y14519151D01*
X36229050Y13970000D01*
X36338283Y13420849D01*
X36649352Y12955302D01*
X37031438Y12700000D01*
X36649352Y12444698D01*
X36562690Y12315000D01*
X35151574Y12315000D01*
X34990485Y12476371D01*
X34536734Y12664785D01*
X34045421Y12665214D01*
X33591343Y12477592D01*
X33243629Y12130485D01*
X33055215Y11676734D01*
X33054786Y11185421D01*
X33242408Y10731343D01*
X33589515Y10383629D01*
X34043266Y10195215D01*
X34534579Y10194786D01*
X34988657Y10382408D01*
X35151533Y10545000D01*
X36562690Y10545000D01*
X36649352Y10415302D01*
X37027707Y10162493D01*
X36595500Y9814896D01*
X36325633Y9321819D01*
X36308096Y9239039D01*
X36430085Y9017000D01*
X37973000Y9017000D01*
X37973000Y9037000D01*
X38227000Y9037000D01*
X38227000Y9017000D01*
X39769915Y9017000D01*
X39891904Y9239039D01*
X39874367Y9321819D01*
X39604500Y9814896D01*
X39172293Y10162493D01*
X39550648Y10415302D01*
X39861717Y10880849D01*
X39970950Y11430000D01*
X39861717Y11979151D01*
X39550648Y12444698D01*
X39168562Y12700000D01*
X39550648Y12955302D01*
X39637310Y13085000D01*
X40639995Y13085000D01*
X40640000Y13084999D01*
X40922484Y13141190D01*
X40978675Y13152367D01*
X41265790Y13344210D01*
X41716799Y13795219D01*
X41744180Y13754240D01*
X43885446Y11612975D01*
X43849050Y11430000D01*
X43958283Y10880849D01*
X44269352Y10415302D01*
X44651438Y10160000D01*
X44269352Y9904698D01*
X43958283Y9439151D01*
X43849050Y8890000D01*
X43958283Y8340849D01*
X44269352Y7875302D01*
X44734899Y7564233D01*
X44835000Y7544322D01*
X44835000Y4954504D01*
X44834999Y4954499D01*
X44891190Y4672015D01*
X44902367Y4615824D01*
X45052926Y4390495D01*
X45094210Y4328709D01*
X45749474Y3673446D01*
X45749275Y3445431D01*
X45757717Y3425000D01*
X32946498Y3425000D01*
X29783533Y6587965D01*
X29972000Y6870026D01*
X30191946Y6540853D01*
X30673715Y6218946D01*
X31242000Y6105907D01*
X31810285Y6218946D01*
X32292054Y6540853D01*
X32613961Y7022622D01*
X32727000Y7590907D01*
X32727000Y7649093D01*
X32613961Y8217378D01*
X32397751Y8540961D01*
X36308096Y8540961D01*
X36325633Y8458181D01*
X36595500Y7965104D01*
X37033517Y7612834D01*
X37573000Y7455000D01*
X37973000Y7455000D01*
X37973000Y8763000D01*
X38227000Y8763000D01*
X38227000Y7455000D01*
X38627000Y7455000D01*
X39166483Y7612834D01*
X39604500Y7965104D01*
X39874367Y8458181D01*
X39891904Y8540961D01*
X39769915Y8763000D01*
X38227000Y8763000D01*
X37973000Y8763000D01*
X36430085Y8763000D01*
X36308096Y8540961D01*
X32397751Y8540961D01*
X32292054Y8699147D01*
X32127000Y8809432D01*
X32127000Y11811995D01*
X32127001Y11812000D01*
X32059634Y12150674D01*
X31918881Y12361326D01*
X31867790Y12437790D01*
X31867787Y12437792D01*
X28056771Y16248809D01*
X28058000Y16248560D01*
X30058000Y16248560D01*
X30293317Y16292838D01*
X30509441Y16431910D01*
X30654431Y16644110D01*
X30705440Y16896000D01*
X30705440Y20696000D01*
X30661162Y20931317D01*
X30522090Y21147441D01*
X30309890Y21292431D01*
X30058000Y21343440D01*
X28058000Y21343440D01*
X27822683Y21299162D01*
X27606559Y21160090D01*
X27461569Y20947890D01*
X27410560Y20696000D01*
X27410560Y19681000D01*
X24380038Y19681000D01*
X24361162Y19781317D01*
X24255518Y19945492D01*
X24296327Y19986301D01*
X24393000Y20219690D01*
X24393000Y20810250D01*
X24234250Y20969000D01*
X22885000Y20969000D01*
X22885000Y20949000D01*
X22631000Y20949000D01*
X22631000Y20969000D01*
X21281750Y20969000D01*
X21123000Y20810250D01*
X21123000Y20219690D01*
X21219673Y19986301D01*
X21261634Y19944340D01*
X21161569Y19797890D01*
X21137898Y19681000D01*
X20367279Y19681000D01*
X20244090Y19872441D01*
X20031890Y20017431D01*
X19780000Y20068440D01*
X18280000Y20068440D01*
X18044683Y20024162D01*
X17828559Y19885090D01*
X17782031Y19816994D01*
X17639698Y19959327D01*
X17406309Y20056000D01*
X16815750Y20056000D01*
X16657000Y19897250D01*
X16657000Y18923000D01*
X16677000Y18923000D01*
X16677000Y18669000D01*
X16657000Y18669000D01*
X16657000Y17694750D01*
X16698750Y17653000D01*
X16657000Y17611250D01*
X16657000Y16637000D01*
X16677000Y16637000D01*
X16677000Y16383000D01*
X16657000Y16383000D01*
X16657000Y15408750D01*
X16815750Y15250000D01*
X17406309Y15250000D01*
X17639698Y15346673D01*
X17780936Y15487910D01*
X17815910Y15433559D01*
X18028110Y15288569D01*
X18145000Y15264898D01*
X18145000Y13786579D01*
X16708420Y12350000D01*
X10127081Y12350000D01*
X10064380Y12337528D01*
X9969147Y12480054D01*
X9628447Y12707702D01*
X9771358Y12774817D01*
X10161645Y13203076D01*
X10331476Y13613110D01*
X10210155Y13843000D01*
X9017000Y13843000D01*
X9017000Y13823000D01*
X8763000Y13823000D01*
X8763000Y13843000D01*
X7569845Y13843000D01*
X7448524Y13613110D01*
X7618355Y13203076D01*
X8008642Y12774817D01*
X8151553Y12707702D01*
X7810853Y12480054D01*
X7488946Y11998285D01*
X7375907Y11430000D01*
X7488946Y10861715D01*
X7810853Y10379946D01*
X8292622Y10058039D01*
X8860907Y9945000D01*
X8919093Y9945000D01*
X9487378Y10058039D01*
X9969147Y10379946D01*
X10079432Y10545000D01*
X10092076Y10545000D01*
X10092081Y10544999D01*
X10268039Y10580000D01*
X17074995Y10580000D01*
X17075000Y10579999D01*
X17357484Y10636190D01*
X17413675Y10647367D01*
X17700790Y10839210D01*
X19655787Y12794208D01*
X19655790Y12794210D01*
X19819135Y13038674D01*
X19847634Y13081326D01*
X19915001Y13420000D01*
X19915000Y13420005D01*
X19915000Y15262962D01*
X20015317Y15281838D01*
X20231441Y15420910D01*
X20370890Y15625000D01*
X21133328Y15625000D01*
X21154838Y15510683D01*
X21293910Y15294559D01*
X21506110Y15149569D01*
X21758000Y15098560D01*
X23153860Y15098560D01*
X25277000Y12975421D01*
X25277000Y12291574D01*
X25115629Y12130485D01*
X24927215Y11676734D01*
X24926786Y11185421D01*
X25114408Y10731343D01*
X25277000Y10568467D01*
X25277000Y9110854D01*
X25076683Y9073162D01*
X24860559Y8934090D01*
X24715569Y8721890D01*
X24664560Y8470000D01*
X24664560Y6770000D01*
X24708838Y6534683D01*
X24847910Y6318559D01*
X25060110Y6173569D01*
X25312000Y6122560D01*
X27012000Y6122560D01*
X27247317Y6166838D01*
X27463441Y6305910D01*
X27608431Y6518110D01*
X27622086Y6585541D01*
X27651946Y6540853D01*
X27817000Y6430568D01*
X27817000Y6417924D01*
X27816999Y6417919D01*
X27851881Y6242560D01*
X27884367Y6079244D01*
X27960702Y5965000D01*
X28076210Y5792129D01*
X31954127Y1914213D01*
X31954129Y1914210D01*
X32241244Y1722367D01*
X32297435Y1711190D01*
X32579919Y1654999D01*
X32579924Y1655000D01*
X48259995Y1655000D01*
X48260000Y1654999D01*
X48542484Y1711190D01*
X48598675Y1722367D01*
X48885790Y1914210D01*
X51425787Y4454208D01*
X51425790Y4454210D01*
X51617633Y4741325D01*
X51685000Y5080000D01*
X51685000Y10252628D01*
X51823266Y10195215D01*
X52314579Y10194786D01*
X52768657Y10382408D01*
X52931533Y10545000D01*
X54690568Y10545000D01*
X54800853Y10379946D01*
X54842452Y10352150D01*
X54794683Y10343162D01*
X54578559Y10204090D01*
X54433569Y9991890D01*
X54382560Y9740000D01*
X54382560Y8040000D01*
X54426838Y7804683D01*
X54565910Y7588559D01*
X54778110Y7443569D01*
X55030000Y7392560D01*
X56125861Y7392560D01*
X56504208Y7014213D01*
X56504210Y7014210D01*
X56791325Y6822367D01*
X56847516Y6811190D01*
X57130000Y6754999D01*
X57130005Y6755000D01*
X59712962Y6755000D01*
X59731838Y6654683D01*
X59870910Y6438559D01*
X60083110Y6293569D01*
X60335000Y6242560D01*
X61585000Y6242560D01*
X61820317Y6286838D01*
X62036441Y6425910D01*
X62181431Y6638110D01*
X62201052Y6735000D01*
X63905025Y6735000D01*
X64068110Y6623569D01*
X64320000Y6572560D01*
X65220000Y6572560D01*
X65455317Y6616838D01*
X65671441Y6755910D01*
X65816431Y6968110D01*
X65867440Y7220000D01*
X65867440Y7710681D01*
X66068110Y7573569D01*
X66320000Y7522560D01*
X67220000Y7522560D01*
X67455317Y7566838D01*
X67671441Y7705910D01*
X67816431Y7918110D01*
X67867440Y8170000D01*
X67867440Y8365860D01*
X69205787Y9704208D01*
X69205790Y9704210D01*
X69397633Y9991325D01*
X69420092Y10104233D01*
X69465001Y10330000D01*
X69465000Y10330005D01*
X69465000Y10799000D01*
X73740568Y10799000D01*
X73850853Y10633946D01*
X74332622Y10312039D01*
X74900907Y10199000D01*
X74959093Y10199000D01*
X75527378Y10312039D01*
X76009147Y10633946D01*
X76331054Y11115715D01*
X76444093Y11684000D01*
X76331054Y12252285D01*
X76009147Y12734054D01*
X75679974Y12954000D01*
X76009147Y13173946D01*
X76331054Y13655715D01*
X76444093Y14224000D01*
X76331054Y14792285D01*
X76009147Y15274054D01*
X75679974Y15494000D01*
X76009147Y15713946D01*
X76331054Y16195715D01*
X76444093Y16764000D01*
X76331054Y17332285D01*
X76009147Y17814054D01*
X75965223Y17843403D01*
X76139698Y17915673D01*
X76318327Y18094301D01*
X76415000Y18327690D01*
X76415000Y19018250D01*
X76256250Y19177000D01*
X75057000Y19177000D01*
X75057000Y19157000D01*
X74803000Y19157000D01*
X74803000Y19177000D01*
X73603750Y19177000D01*
X73445000Y19018250D01*
X73445000Y18327690D01*
X73465641Y18277857D01*
X73275000Y18468499D01*
X73275000Y20280310D01*
X73445000Y20280310D01*
X73445000Y19589750D01*
X73603750Y19431000D01*
X74803000Y19431000D01*
X74803000Y20630250D01*
X75057000Y20630250D01*
X75057000Y19431000D01*
X76256250Y19431000D01*
X76415000Y19589750D01*
X76415000Y20280310D01*
X76318327Y20513699D01*
X76139698Y20692327D01*
X75906309Y20789000D01*
X75215750Y20789000D01*
X75057000Y20630250D01*
X74803000Y20630250D01*
X74644250Y20789000D01*
X73953691Y20789000D01*
X73720302Y20692327D01*
X73541673Y20513699D01*
X73445000Y20280310D01*
X73275000Y20280310D01*
X73275000Y22493420D01*
X74730479Y23948900D01*
X74900907Y23915000D01*
X74959093Y23915000D01*
X75527378Y24028039D01*
X76009147Y24349946D01*
X76331054Y24831715D01*
X76444093Y25400000D01*
X76331054Y25968285D01*
X76009147Y26450054D01*
X75967548Y26477850D01*
X76015317Y26486838D01*
X76231441Y26625910D01*
X76376431Y26838110D01*
X76427440Y27090000D01*
X76427440Y28790000D01*
X76383162Y29025317D01*
X76244090Y29241441D01*
X76031890Y29386431D01*
X75780000Y29437440D01*
X74080000Y29437440D01*
X73844683Y29393162D01*
X73628559Y29254090D01*
X73483569Y29041890D01*
X73439648Y28825000D01*
X65928684Y28825000D01*
X65928679Y28825001D01*
X65590004Y28757633D01*
X65302889Y28565790D01*
X65302887Y28565787D01*
X64326867Y27589768D01*
X64200485Y27716371D01*
X63746734Y27904785D01*
X63255421Y27905214D01*
X62801343Y27717592D01*
X62453629Y27370485D01*
X62265215Y26916734D01*
X62264786Y26425421D01*
X62452408Y25971343D01*
X62799515Y25623629D01*
X63253266Y25435215D01*
X63483406Y25435014D01*
X63655959Y25262461D01*
X63588559Y25219090D01*
X63443569Y25006890D01*
X63392560Y24755000D01*
X63392560Y23505000D01*
X63436838Y23269683D01*
X63575910Y23053559D01*
X63788110Y22908569D01*
X64040000Y22857560D01*
X65540000Y22857560D01*
X65775317Y22901838D01*
X65991441Y23040910D01*
X66039134Y23110711D01*
X66075910Y23053559D01*
X66288110Y22908569D01*
X66405000Y22884898D01*
X66405000Y20062630D01*
X66354683Y20053162D01*
X66138559Y19914090D01*
X66137440Y19912452D01*
X66137440Y20400000D01*
X66093162Y20635317D01*
X65954090Y20851441D01*
X65741890Y20996431D01*
X65490000Y21047440D01*
X64590000Y21047440D01*
X64354683Y21003162D01*
X64171054Y20885000D01*
X62232440Y20885000D01*
X62232440Y21050000D01*
X62188162Y21285317D01*
X62049090Y21501441D01*
X61836890Y21646431D01*
X61585000Y21697440D01*
X60939139Y21697440D01*
X58075049Y24561531D01*
X58072633Y24573675D01*
X57880790Y24860790D01*
X57593675Y25052633D01*
X57255000Y25120000D01*
X56916325Y25052633D01*
X56860003Y25015000D01*
X55843026Y25015000D01*
X55878327Y25050301D01*
X55975000Y25283690D01*
X55975000Y25749250D01*
X55816250Y25908000D01*
X54717000Y25908000D01*
X54717000Y25888000D01*
X54463000Y25888000D01*
X54463000Y25908000D01*
X54443000Y25908000D01*
X54443000Y26162000D01*
X54463000Y26162000D01*
X54463000Y27136250D01*
X54443000Y27156250D01*
X54443000Y27813000D01*
X54697000Y27813000D01*
X54697000Y26838750D01*
X54717000Y26818750D01*
X54717000Y26162000D01*
X55816250Y26162000D01*
X55975000Y26320750D01*
X55975000Y26786310D01*
X55881664Y27011642D01*
X55955000Y27188690D01*
X55955000Y27654250D01*
X55796250Y27813000D01*
X54697000Y27813000D01*
X54443000Y27813000D01*
X54423000Y27813000D01*
X54423000Y28067000D01*
X54443000Y28067000D01*
X54443000Y29041250D01*
X54697000Y29041250D01*
X54697000Y28067000D01*
X55796250Y28067000D01*
X55955000Y28225750D01*
X55955000Y28691310D01*
X55858327Y28924699D01*
X55679698Y29103327D01*
X55446309Y29200000D01*
X54855750Y29200000D01*
X54697000Y29041250D01*
X54443000Y29041250D01*
X54284250Y29200000D01*
X53693691Y29200000D01*
X53460302Y29103327D01*
X53319064Y28962090D01*
X53284090Y29016441D01*
X53071890Y29161431D01*
X52820000Y29212440D01*
X51320000Y29212440D01*
X51084683Y29168162D01*
X50868559Y29029090D01*
X50729110Y28825000D01*
X49896579Y28825000D01*
X48969019Y29752560D01*
X50420000Y29752560D01*
X50655317Y29796838D01*
X50871441Y29935910D01*
X51016431Y30148110D01*
X51067440Y30400000D01*
X51067440Y33100000D01*
X51023162Y33335317D01*
X50884090Y33551441D01*
X50671890Y33696431D01*
X50420000Y33747440D01*
X47955000Y33747440D01*
X47955000Y34003420D01*
X48626579Y34675000D01*
X49482721Y34675000D01*
X49605910Y34483559D01*
X49818110Y34338569D01*
X50070000Y34287560D01*
X51570000Y34287560D01*
X51805317Y34331838D01*
X52021441Y34470910D01*
X52069134Y34540711D01*
X52105910Y34483559D01*
X52318110Y34338569D01*
X52570000Y34287560D01*
X54070000Y34287560D01*
X54305317Y34331838D01*
X54521441Y34470910D01*
X54660890Y34675000D01*
X55513420Y34675000D01*
X56185000Y34003421D01*
X56185000Y33747440D01*
X53720000Y33747440D01*
X53484683Y33703162D01*
X53268559Y33564090D01*
X53123569Y33351890D01*
X53072560Y33100000D01*
X53072560Y30400000D01*
X53116838Y30164683D01*
X53255910Y29948559D01*
X53468110Y29803569D01*
X53720000Y29752560D01*
X58220000Y29752560D01*
X58455317Y29796838D01*
X58671441Y29935910D01*
X58816431Y30148110D01*
X58867440Y30400000D01*
X58867440Y33100000D01*
X58823162Y33335317D01*
X58781555Y33399976D01*
X59827539Y34445960D01*
X59870910Y34378559D01*
X60083110Y34233569D01*
X60335000Y34182560D01*
X61585000Y34182560D01*
X61820317Y34226838D01*
X62036441Y34365910D01*
X62181431Y34578110D01*
X62197002Y34655000D01*
X68559995Y34655000D01*
X68560000Y34654999D01*
X68660549Y34675000D01*
X69849995Y34675000D01*
X69850000Y34674999D01*
X70132484Y34731190D01*
X70188675Y34742367D01*
X70475790Y34934210D01*
X70475791Y34934211D01*
X71725787Y36184208D01*
X71725790Y36184210D01*
X71917633Y36471325D01*
X71957891Y36673714D01*
X71985001Y36810000D01*
X71985000Y36810005D01*
X71985000Y39004532D01*
X72190668Y39209841D01*
X72699446Y39209841D01*
X72785852Y38953357D01*
X73359336Y38743542D01*
X73969460Y38769161D01*
X74414148Y38953357D01*
X74500554Y39209841D01*
X73600000Y40110395D01*
X72699446Y39209841D01*
X72190668Y39209841D01*
X72400551Y39419357D01*
X72404294Y39428372D01*
X72519841Y39389446D01*
X73420395Y40290000D01*
X73779605Y40290000D01*
X74680159Y39389446D01*
X74936643Y39475852D01*
X75146458Y40049336D01*
X75120839Y40659460D01*
X74936643Y41104148D01*
X74680159Y41190554D01*
X73779605Y40290000D01*
X73420395Y40290000D01*
X72519841Y41190554D01*
X72404786Y41151793D01*
X72402068Y41158371D01*
X72190650Y41370159D01*
X72699446Y41370159D01*
X73600000Y40469605D01*
X74500554Y41370159D01*
X74414148Y41626643D01*
X73840664Y41836458D01*
X73230540Y41810839D01*
X72785852Y41626643D01*
X72699446Y41370159D01*
X72190650Y41370159D01*
X71970643Y41590551D01*
X71406670Y41824733D01*
X70796009Y41825265D01*
X70231629Y41592068D01*
X69849712Y41210818D01*
X69470643Y41590551D01*
X68906670Y41824733D01*
X68316332Y41825247D01*
X66355790Y43785790D01*
X66328222Y43804210D01*
X66068675Y43977633D01*
X66012484Y43988810D01*
X65730000Y44045001D01*
X65729995Y44045000D01*
X62207038Y44045000D01*
X62188162Y44145317D01*
X62049090Y44361441D01*
X61836890Y44506431D01*
X61585000Y44557440D01*
X60335000Y44557440D01*
X60099683Y44513162D01*
X59883559Y44374090D01*
X59738569Y44161890D01*
X59714898Y44045000D01*
X58400005Y44045000D01*
X58400000Y44045001D01*
X58117516Y43988810D01*
X58061325Y43977633D01*
X57956273Y43907440D01*
X57955000Y43907440D01*
X57955000Y44529995D01*
X57955001Y44530000D01*
X57887633Y44868675D01*
X57762607Y45055790D01*
X57695790Y45155790D01*
X57695787Y45155792D01*
X56505790Y46345790D01*
X56471540Y46368675D01*
X56218675Y46537633D01*
X56162484Y46548810D01*
X55880000Y46605001D01*
X55879995Y46605000D01*
X54657279Y46605000D01*
X54534090Y46796441D01*
X54321890Y46941431D01*
X54070000Y46992440D01*
X52570000Y46992440D01*
X52334683Y46948162D01*
X52118559Y46809090D01*
X52070866Y46739289D01*
X52034090Y46796441D01*
X51821890Y46941431D01*
X51582491Y46989910D01*
X51805317Y47031838D01*
X52021441Y47170910D01*
X52067969Y47239006D01*
X52210302Y47096673D01*
X52443691Y47000000D01*
X53034250Y47000000D01*
X53193000Y47158750D01*
X53193000Y48133000D01*
X53447000Y48133000D01*
X53447000Y47158750D01*
X53605750Y47000000D01*
X54196309Y47000000D01*
X54429698Y47096673D01*
X54608327Y47275301D01*
X54646386Y47367185D01*
X63364630Y47367185D01*
X63688980Y46582200D01*
X64289041Y45981091D01*
X65073459Y45655372D01*
X65922815Y45654630D01*
X66707800Y45978980D01*
X67308909Y46579041D01*
X67634628Y47363459D01*
X67635370Y48212815D01*
X67311020Y48997800D01*
X66710959Y49598909D01*
X65926541Y49924628D01*
X65077185Y49925370D01*
X64292200Y49601020D01*
X63691091Y49000959D01*
X63365372Y48216541D01*
X63364630Y47367185D01*
X54646386Y47367185D01*
X54705000Y47508690D01*
X54705000Y47974250D01*
X54546250Y48133000D01*
X53447000Y48133000D01*
X53193000Y48133000D01*
X53173000Y48133000D01*
X53173000Y48387000D01*
X53193000Y48387000D01*
X53193000Y49361250D01*
X53447000Y49361250D01*
X53447000Y48387000D01*
X54546250Y48387000D01*
X54705000Y48545750D01*
X54705000Y49011310D01*
X54608327Y49244699D01*
X54429698Y49423327D01*
X54196309Y49520000D01*
X53605750Y49520000D01*
X53447000Y49361250D01*
X53193000Y49361250D01*
X53034250Y49520000D01*
X52443691Y49520000D01*
X52210302Y49423327D01*
X52069064Y49282090D01*
X52034090Y49336441D01*
X51821890Y49481431D01*
X51570000Y49532440D01*
X50674139Y49532440D01*
X50134019Y50072560D01*
X50420000Y50072560D01*
X50655317Y50116838D01*
X50871441Y50255910D01*
X51016431Y50468110D01*
X51067440Y50720000D01*
X51067440Y53420000D01*
X51023162Y53655317D01*
X50884090Y53871441D01*
X50671890Y54016431D01*
X50420000Y54067440D01*
X47955000Y54067440D01*
X47955000Y54323420D01*
X48626579Y54995000D01*
X49482721Y54995000D01*
X49605910Y54803559D01*
X49818110Y54658569D01*
X50070000Y54607560D01*
X51570000Y54607560D01*
X51805317Y54651838D01*
X52021441Y54790910D01*
X52069134Y54860711D01*
X52105910Y54803559D01*
X52318110Y54658569D01*
X52570000Y54607560D01*
X54070000Y54607560D01*
X54305317Y54651838D01*
X54476457Y54761963D01*
X55170980Y54067440D01*
X53720000Y54067440D01*
X53484683Y54023162D01*
X53268559Y53884090D01*
X53123569Y53671890D01*
X53072560Y53420000D01*
X53072560Y50720000D01*
X53116838Y50484683D01*
X53255910Y50268559D01*
X53468110Y50123569D01*
X53720000Y50072560D01*
X58220000Y50072560D01*
X58455317Y50116838D01*
X58671441Y50255910D01*
X58816431Y50468110D01*
X58867440Y50720000D01*
X58867440Y51185000D01*
X59716725Y51185000D01*
X59731838Y51104683D01*
X59870910Y50888559D01*
X60083110Y50743569D01*
X60335000Y50692560D01*
X61585000Y50692560D01*
X61820317Y50736838D01*
X62036441Y50875910D01*
X62181431Y51088110D01*
X62197002Y51165000D01*
X70859995Y51165000D01*
X70860000Y51164999D01*
X71142484Y51221190D01*
X71198675Y51232367D01*
X71485790Y51424210D01*
X71485791Y51424211D01*
X73316826Y53255247D01*
X73903991Y53254735D01*
X74468371Y53487932D01*
X74900551Y53919357D01*
X75134733Y54483330D01*
X75135265Y55093991D01*
X74902068Y55658371D01*
X74470643Y56090551D01*
X73906670Y56324733D01*
X73296009Y56325265D01*
X72731629Y56092068D01*
X72299449Y55660643D01*
X72065267Y55096670D01*
X72064753Y54506332D01*
X70493420Y52935000D01*
X62214564Y52935000D01*
X62188162Y53075317D01*
X62049090Y53291441D01*
X61979289Y53339134D01*
X62036441Y53375910D01*
X62181431Y53588110D01*
X62206082Y53709841D01*
X67699446Y53709841D01*
X67785852Y53453357D01*
X68359336Y53243542D01*
X68969460Y53269161D01*
X69414148Y53453357D01*
X69500554Y53709841D01*
X68600000Y54610395D01*
X67699446Y53709841D01*
X62206082Y53709841D01*
X62232440Y53840000D01*
X62232440Y55030664D01*
X67053542Y55030664D01*
X67079161Y54420540D01*
X67263357Y53975852D01*
X67519841Y53889446D01*
X68420395Y54790000D01*
X68779605Y54790000D01*
X69680159Y53889446D01*
X69936643Y53975852D01*
X70146458Y54549336D01*
X70120839Y55159460D01*
X69936643Y55604148D01*
X69680159Y55690554D01*
X68779605Y54790000D01*
X68420395Y54790000D01*
X67519841Y55690554D01*
X67263357Y55604148D01*
X67053542Y55030664D01*
X62232440Y55030664D01*
X62232440Y55340000D01*
X62188162Y55575317D01*
X62049090Y55791441D01*
X61933883Y55870159D01*
X67699446Y55870159D01*
X68600000Y54969605D01*
X69500554Y55870159D01*
X69414148Y56126643D01*
X68840664Y56336458D01*
X68230540Y56310839D01*
X67785852Y56126643D01*
X67699446Y55870159D01*
X61933883Y55870159D01*
X61836890Y55936431D01*
X61585000Y55987440D01*
X60335000Y55987440D01*
X60099683Y55943162D01*
X59883559Y55804090D01*
X59879066Y55797514D01*
X57900790Y57775790D01*
X57789000Y57850485D01*
X57613675Y57967633D01*
X57557484Y57978810D01*
X57275000Y58035001D01*
X57274995Y58035000D01*
X22451574Y58035000D01*
X22290485Y58196371D01*
X21932547Y58345000D01*
X78665000Y58345000D01*
X78665000Y48625141D01*
X78511020Y48997800D01*
X77910959Y49598909D01*
X77126541Y49924628D01*
X76277185Y49925370D01*
X75492200Y49601020D01*
X74891091Y49000959D01*
X74565372Y48216541D01*
X74564630Y47367185D01*
X74888980Y46582200D01*
X75489041Y45981091D01*
X76273459Y45655372D01*
X77122815Y45654630D01*
X77907800Y45978980D01*
X78508909Y46579041D01*
X78665000Y46954950D01*
X78665000Y710000D01*
X710000Y710000D01*
X710000Y47367185D01*
X3364630Y47367185D01*
X3688980Y46582200D01*
X4289041Y45981091D01*
X5073459Y45655372D01*
X5922815Y45654630D01*
X6707800Y45978980D01*
X7308909Y46579041D01*
X7634628Y47363459D01*
X7634631Y47367185D01*
X14564630Y47367185D01*
X14888980Y46582200D01*
X15489041Y45981091D01*
X16273459Y45655372D01*
X17122815Y45654630D01*
X17907800Y45978980D01*
X18508909Y46579041D01*
X18834628Y47363459D01*
X18835370Y48212815D01*
X18511020Y48997800D01*
X17910959Y49598909D01*
X17126541Y49924628D01*
X16277185Y49925370D01*
X15492200Y49601020D01*
X14891091Y49000959D01*
X14565372Y48216541D01*
X14564630Y47367185D01*
X7634631Y47367185D01*
X7635370Y48212815D01*
X7311020Y48997800D01*
X6710959Y49598909D01*
X5926541Y49924628D01*
X5077185Y49925370D01*
X4292200Y49601020D01*
X3691091Y49000959D01*
X3365372Y48216541D01*
X3364630Y47367185D01*
X710000Y47367185D01*
X710000Y54209841D01*
X7699446Y54209841D01*
X7785852Y53953357D01*
X8359336Y53743542D01*
X8969460Y53769161D01*
X9414148Y53953357D01*
X9500554Y54209841D01*
X8600000Y55110395D01*
X7699446Y54209841D01*
X710000Y54209841D01*
X710000Y55530664D01*
X7053542Y55530664D01*
X7079161Y54920540D01*
X7263357Y54475852D01*
X7519841Y54389446D01*
X8420395Y55290000D01*
X7519841Y56190554D01*
X7263357Y56104148D01*
X7053542Y55530664D01*
X710000Y55530664D01*
X710000Y56370159D01*
X7699446Y56370159D01*
X8600000Y55469605D01*
X9500554Y56370159D01*
X9414148Y56626643D01*
X8840664Y56836458D01*
X8230540Y56810839D01*
X7785852Y56626643D01*
X7699446Y56370159D01*
X710000Y56370159D01*
X710000Y58345000D01*
X11496385Y58345000D01*
X10521602Y57370218D01*
G36*
X29285910Y44643559D02*
X29498110Y44498569D01*
X29750000Y44447560D01*
X31250000Y44447560D01*
X31485317Y44491838D01*
X31701441Y44630910D01*
X31749134Y44700711D01*
X31785910Y44643559D01*
X31998110Y44498569D01*
X32250000Y44447560D01*
X33750000Y44447560D01*
X33985317Y44491838D01*
X34201441Y44630910D01*
X34340890Y44835000D01*
X35193420Y44835000D01*
X35865000Y44163421D01*
X35865000Y43907440D01*
X33400000Y43907440D01*
X33164683Y43863162D01*
X32948559Y43724090D01*
X32803569Y43511890D01*
X32752560Y43260000D01*
X32752560Y40560000D01*
X32796838Y40324683D01*
X32935910Y40108559D01*
X33148110Y39963569D01*
X33400000Y39912560D01*
X35865000Y39912560D01*
X35865000Y39656579D01*
X35193420Y38985000D01*
X34337279Y38985000D01*
X34214090Y39176441D01*
X34001890Y39321431D01*
X33750000Y39372440D01*
X32250000Y39372440D01*
X32014683Y39328162D01*
X31798559Y39189090D01*
X31752031Y39120994D01*
X31609698Y39263327D01*
X31376309Y39360000D01*
X30785750Y39360000D01*
X30627000Y39201250D01*
X30627000Y38227000D01*
X30647000Y38227000D01*
X30647000Y37973000D01*
X30627000Y37973000D01*
X30627000Y36998750D01*
X30785750Y36840000D01*
X31376309Y36840000D01*
X31609698Y36936673D01*
X31750936Y37077910D01*
X31785910Y37023559D01*
X31998110Y36878569D01*
X32237509Y36830090D01*
X32014683Y36788162D01*
X31798559Y36649090D01*
X31750866Y36579289D01*
X31714090Y36636441D01*
X31501890Y36781431D01*
X31250000Y36832440D01*
X29750000Y36832440D01*
X29514683Y36788162D01*
X29298559Y36649090D01*
X29159110Y36445000D01*
X27940005Y36445000D01*
X27940000Y36445001D01*
X27657516Y36388810D01*
X27601325Y36377633D01*
X27314210Y36185790D01*
X27314208Y36185787D01*
X26505210Y35376790D01*
X26313367Y35089675D01*
X26313367Y35089674D01*
X26245999Y34751000D01*
X26246000Y34750995D01*
X26246000Y33800043D01*
X26219675Y33817633D01*
X26163484Y33828810D01*
X25881000Y33885001D01*
X25880995Y33885000D01*
X24114564Y33885000D01*
X24088162Y34025317D01*
X23949090Y34241441D01*
X23879289Y34289134D01*
X23936441Y34325910D01*
X24081431Y34538110D01*
X24132440Y34790000D01*
X24132440Y36290000D01*
X24088162Y36525317D01*
X23949090Y36741441D01*
X23745000Y36880890D01*
X23745000Y37814250D01*
X29115000Y37814250D01*
X29115000Y37348690D01*
X29211673Y37115301D01*
X29390302Y36936673D01*
X29623691Y36840000D01*
X30214250Y36840000D01*
X30373000Y36998750D01*
X30373000Y37973000D01*
X29273750Y37973000D01*
X29115000Y37814250D01*
X23745000Y37814250D01*
X23745000Y38851310D01*
X29115000Y38851310D01*
X29115000Y38385750D01*
X29273750Y38227000D01*
X30373000Y38227000D01*
X30373000Y39201250D01*
X30214250Y39360000D01*
X29623691Y39360000D01*
X29390302Y39263327D01*
X29211673Y39084699D01*
X29115000Y38851310D01*
X23745000Y38851310D01*
X23745000Y40592721D01*
X23936441Y40715910D01*
X24081431Y40928110D01*
X24132440Y41180000D01*
X24132440Y42680000D01*
X24088162Y42915317D01*
X23949090Y43131441D01*
X23879289Y43179134D01*
X23936441Y43215910D01*
X24040384Y43368036D01*
X24952560Y42455861D01*
X24952560Y40560000D01*
X24996838Y40324683D01*
X25135910Y40108559D01*
X25348110Y39963569D01*
X25600000Y39912560D01*
X30100000Y39912560D01*
X30335317Y39956838D01*
X30551441Y40095910D01*
X30696431Y40308110D01*
X30747440Y40560000D01*
X30747440Y43260000D01*
X30703162Y43495317D01*
X30564090Y43711441D01*
X30351890Y43856431D01*
X30100000Y43907440D01*
X27635000Y43907440D01*
X27635000Y44163420D01*
X28306579Y44835000D01*
X29162721Y44835000D01*
X29285910Y44643559D01*
X29285910Y44643559D01*
G37*
X29285910Y44643559D02*
X29498110Y44498569D01*
X29750000Y44447560D01*
X31250000Y44447560D01*
X31485317Y44491838D01*
X31701441Y44630910D01*
X31749134Y44700711D01*
X31785910Y44643559D01*
X31998110Y44498569D01*
X32250000Y44447560D01*
X33750000Y44447560D01*
X33985317Y44491838D01*
X34201441Y44630910D01*
X34340890Y44835000D01*
X35193420Y44835000D01*
X35865000Y44163421D01*
X35865000Y43907440D01*
X33400000Y43907440D01*
X33164683Y43863162D01*
X32948559Y43724090D01*
X32803569Y43511890D01*
X32752560Y43260000D01*
X32752560Y40560000D01*
X32796838Y40324683D01*
X32935910Y40108559D01*
X33148110Y39963569D01*
X33400000Y39912560D01*
X35865000Y39912560D01*
X35865000Y39656579D01*
X35193420Y38985000D01*
X34337279Y38985000D01*
X34214090Y39176441D01*
X34001890Y39321431D01*
X33750000Y39372440D01*
X32250000Y39372440D01*
X32014683Y39328162D01*
X31798559Y39189090D01*
X31752031Y39120994D01*
X31609698Y39263327D01*
X31376309Y39360000D01*
X30785750Y39360000D01*
X30627000Y39201250D01*
X30627000Y38227000D01*
X30647000Y38227000D01*
X30647000Y37973000D01*
X30627000Y37973000D01*
X30627000Y36998750D01*
X30785750Y36840000D01*
X31376309Y36840000D01*
X31609698Y36936673D01*
X31750936Y37077910D01*
X31785910Y37023559D01*
X31998110Y36878569D01*
X32237509Y36830090D01*
X32014683Y36788162D01*
X31798559Y36649090D01*
X31750866Y36579289D01*
X31714090Y36636441D01*
X31501890Y36781431D01*
X31250000Y36832440D01*
X29750000Y36832440D01*
X29514683Y36788162D01*
X29298559Y36649090D01*
X29159110Y36445000D01*
X27940005Y36445000D01*
X27940000Y36445001D01*
X27657516Y36388810D01*
X27601325Y36377633D01*
X27314210Y36185790D01*
X27314208Y36185787D01*
X26505210Y35376790D01*
X26313367Y35089675D01*
X26313367Y35089674D01*
X26245999Y34751000D01*
X26246000Y34750995D01*
X26246000Y33800043D01*
X26219675Y33817633D01*
X26163484Y33828810D01*
X25881000Y33885001D01*
X25880995Y33885000D01*
X24114564Y33885000D01*
X24088162Y34025317D01*
X23949090Y34241441D01*
X23879289Y34289134D01*
X23936441Y34325910D01*
X24081431Y34538110D01*
X24132440Y34790000D01*
X24132440Y36290000D01*
X24088162Y36525317D01*
X23949090Y36741441D01*
X23745000Y36880890D01*
X23745000Y37814250D01*
X29115000Y37814250D01*
X29115000Y37348690D01*
X29211673Y37115301D01*
X29390302Y36936673D01*
X29623691Y36840000D01*
X30214250Y36840000D01*
X30373000Y36998750D01*
X30373000Y37973000D01*
X29273750Y37973000D01*
X29115000Y37814250D01*
X23745000Y37814250D01*
X23745000Y38851310D01*
X29115000Y38851310D01*
X29115000Y38385750D01*
X29273750Y38227000D01*
X30373000Y38227000D01*
X30373000Y39201250D01*
X30214250Y39360000D01*
X29623691Y39360000D01*
X29390302Y39263327D01*
X29211673Y39084699D01*
X29115000Y38851310D01*
X23745000Y38851310D01*
X23745000Y40592721D01*
X23936441Y40715910D01*
X24081431Y40928110D01*
X24132440Y41180000D01*
X24132440Y42680000D01*
X24088162Y42915317D01*
X23949090Y43131441D01*
X23879289Y43179134D01*
X23936441Y43215910D01*
X24040384Y43368036D01*
X24952560Y42455861D01*
X24952560Y40560000D01*
X24996838Y40324683D01*
X25135910Y40108559D01*
X25348110Y39963569D01*
X25600000Y39912560D01*
X30100000Y39912560D01*
X30335317Y39956838D01*
X30551441Y40095910D01*
X30696431Y40308110D01*
X30747440Y40560000D01*
X30747440Y43260000D01*
X30703162Y43495317D01*
X30564090Y43711441D01*
X30351890Y43856431D01*
X30100000Y43907440D01*
X27635000Y43907440D01*
X27635000Y44163420D01*
X28306579Y44835000D01*
X29162721Y44835000D01*
X29285910Y44643559D01*
G36*
X49605910Y44643559D02*
X49818110Y44498569D01*
X50070000Y44447560D01*
X51570000Y44447560D01*
X51805317Y44491838D01*
X52021441Y44630910D01*
X52069134Y44700711D01*
X52105910Y44643559D01*
X52318110Y44498569D01*
X52570000Y44447560D01*
X54070000Y44447560D01*
X54305317Y44491838D01*
X54521441Y44630910D01*
X54660890Y44835000D01*
X55513420Y44835000D01*
X56185000Y44163421D01*
X56185000Y43907440D01*
X53720000Y43907440D01*
X53484683Y43863162D01*
X53268559Y43724090D01*
X53123569Y43511890D01*
X53072560Y43260000D01*
X53072560Y40560000D01*
X53116838Y40324683D01*
X53255910Y40108559D01*
X53468110Y39963569D01*
X53720000Y39912560D01*
X58220000Y39912560D01*
X58455317Y39956838D01*
X58671441Y40095910D01*
X58816431Y40308110D01*
X58867440Y40560000D01*
X58867440Y42275000D01*
X59712962Y42275000D01*
X59731838Y42174683D01*
X59870910Y41958559D01*
X59940711Y41910866D01*
X59883559Y41874090D01*
X59738569Y41661890D01*
X59687560Y41410000D01*
X59687560Y39910000D01*
X59731838Y39674683D01*
X59870910Y39458559D01*
X60001008Y39369667D01*
X59883559Y39294090D01*
X59738569Y39081890D01*
X59687560Y38830000D01*
X59687560Y37330000D01*
X59731838Y37094683D01*
X59870910Y36878559D01*
X59940711Y36830866D01*
X59883559Y36794090D01*
X59738569Y36581890D01*
X59706798Y36425000D01*
X59670005Y36425000D01*
X59670000Y36425001D01*
X59331325Y36357633D01*
X59044210Y36165790D01*
X59044208Y36165787D01*
X57767255Y34888834D01*
X57695790Y34995790D01*
X57695787Y34995792D01*
X56505790Y36185790D01*
X56478221Y36204211D01*
X56218675Y36377633D01*
X56162484Y36388810D01*
X55880000Y36445001D01*
X55879995Y36445000D01*
X54657279Y36445000D01*
X54534090Y36636441D01*
X54321890Y36781431D01*
X54070000Y36832440D01*
X52570000Y36832440D01*
X52334683Y36788162D01*
X52118559Y36649090D01*
X52070866Y36579289D01*
X52034090Y36636441D01*
X51821890Y36781431D01*
X51582491Y36829910D01*
X51805317Y36871838D01*
X52021441Y37010910D01*
X52067969Y37079006D01*
X52210302Y36936673D01*
X52443691Y36840000D01*
X53034250Y36840000D01*
X53193000Y36998750D01*
X53193000Y37973000D01*
X53447000Y37973000D01*
X53447000Y36998750D01*
X53605750Y36840000D01*
X54196309Y36840000D01*
X54429698Y36936673D01*
X54608327Y37115301D01*
X54705000Y37348690D01*
X54705000Y37814250D01*
X54546250Y37973000D01*
X53447000Y37973000D01*
X53193000Y37973000D01*
X53173000Y37973000D01*
X53173000Y38227000D01*
X53193000Y38227000D01*
X53193000Y39201250D01*
X53447000Y39201250D01*
X53447000Y38227000D01*
X54546250Y38227000D01*
X54705000Y38385750D01*
X54705000Y38851310D01*
X54608327Y39084699D01*
X54429698Y39263327D01*
X54196309Y39360000D01*
X53605750Y39360000D01*
X53447000Y39201250D01*
X53193000Y39201250D01*
X53034250Y39360000D01*
X52443691Y39360000D01*
X52210302Y39263327D01*
X52069064Y39122090D01*
X52034090Y39176441D01*
X51821890Y39321431D01*
X51570000Y39372440D01*
X50070000Y39372440D01*
X49834683Y39328162D01*
X49618559Y39189090D01*
X49479110Y38985000D01*
X48626579Y38985000D01*
X47955000Y39656580D01*
X47955000Y39912560D01*
X50420000Y39912560D01*
X50655317Y39956838D01*
X50871441Y40095910D01*
X51016431Y40308110D01*
X51067440Y40560000D01*
X51067440Y43260000D01*
X51023162Y43495317D01*
X50884090Y43711441D01*
X50671890Y43856431D01*
X50420000Y43907440D01*
X47955000Y43907440D01*
X47955000Y44163420D01*
X48626579Y44835000D01*
X49482721Y44835000D01*
X49605910Y44643559D01*
X49605910Y44643559D01*
G37*
X49605910Y44643559D02*
X49818110Y44498569D01*
X50070000Y44447560D01*
X51570000Y44447560D01*
X51805317Y44491838D01*
X52021441Y44630910D01*
X52069134Y44700711D01*
X52105910Y44643559D01*
X52318110Y44498569D01*
X52570000Y44447560D01*
X54070000Y44447560D01*
X54305317Y44491838D01*
X54521441Y44630910D01*
X54660890Y44835000D01*
X55513420Y44835000D01*
X56185000Y44163421D01*
X56185000Y43907440D01*
X53720000Y43907440D01*
X53484683Y43863162D01*
X53268559Y43724090D01*
X53123569Y43511890D01*
X53072560Y43260000D01*
X53072560Y40560000D01*
X53116838Y40324683D01*
X53255910Y40108559D01*
X53468110Y39963569D01*
X53720000Y39912560D01*
X58220000Y39912560D01*
X58455317Y39956838D01*
X58671441Y40095910D01*
X58816431Y40308110D01*
X58867440Y40560000D01*
X58867440Y42275000D01*
X59712962Y42275000D01*
X59731838Y42174683D01*
X59870910Y41958559D01*
X59940711Y41910866D01*
X59883559Y41874090D01*
X59738569Y41661890D01*
X59687560Y41410000D01*
X59687560Y39910000D01*
X59731838Y39674683D01*
X59870910Y39458559D01*
X60001008Y39369667D01*
X59883559Y39294090D01*
X59738569Y39081890D01*
X59687560Y38830000D01*
X59687560Y37330000D01*
X59731838Y37094683D01*
X59870910Y36878559D01*
X59940711Y36830866D01*
X59883559Y36794090D01*
X59738569Y36581890D01*
X59706798Y36425000D01*
X59670005Y36425000D01*
X59670000Y36425001D01*
X59331325Y36357633D01*
X59044210Y36165790D01*
X59044208Y36165787D01*
X57767255Y34888834D01*
X57695790Y34995790D01*
X57695787Y34995792D01*
X56505790Y36185790D01*
X56478221Y36204211D01*
X56218675Y36377633D01*
X56162484Y36388810D01*
X55880000Y36445001D01*
X55879995Y36445000D01*
X54657279Y36445000D01*
X54534090Y36636441D01*
X54321890Y36781431D01*
X54070000Y36832440D01*
X52570000Y36832440D01*
X52334683Y36788162D01*
X52118559Y36649090D01*
X52070866Y36579289D01*
X52034090Y36636441D01*
X51821890Y36781431D01*
X51582491Y36829910D01*
X51805317Y36871838D01*
X52021441Y37010910D01*
X52067969Y37079006D01*
X52210302Y36936673D01*
X52443691Y36840000D01*
X53034250Y36840000D01*
X53193000Y36998750D01*
X53193000Y37973000D01*
X53447000Y37973000D01*
X53447000Y36998750D01*
X53605750Y36840000D01*
X54196309Y36840000D01*
X54429698Y36936673D01*
X54608327Y37115301D01*
X54705000Y37348690D01*
X54705000Y37814250D01*
X54546250Y37973000D01*
X53447000Y37973000D01*
X53193000Y37973000D01*
X53173000Y37973000D01*
X53173000Y38227000D01*
X53193000Y38227000D01*
X53193000Y39201250D01*
X53447000Y39201250D01*
X53447000Y38227000D01*
X54546250Y38227000D01*
X54705000Y38385750D01*
X54705000Y38851310D01*
X54608327Y39084699D01*
X54429698Y39263327D01*
X54196309Y39360000D01*
X53605750Y39360000D01*
X53447000Y39201250D01*
X53193000Y39201250D01*
X53034250Y39360000D01*
X52443691Y39360000D01*
X52210302Y39263327D01*
X52069064Y39122090D01*
X52034090Y39176441D01*
X51821890Y39321431D01*
X51570000Y39372440D01*
X50070000Y39372440D01*
X49834683Y39328162D01*
X49618559Y39189090D01*
X49479110Y38985000D01*
X48626579Y38985000D01*
X47955000Y39656580D01*
X47955000Y39912560D01*
X50420000Y39912560D01*
X50655317Y39956838D01*
X50871441Y40095910D01*
X51016431Y40308110D01*
X51067440Y40560000D01*
X51067440Y43260000D01*
X51023162Y43495317D01*
X50884090Y43711441D01*
X50671890Y43856431D01*
X50420000Y43907440D01*
X47955000Y43907440D01*
X47955000Y44163420D01*
X48626579Y44835000D01*
X49482721Y44835000D01*
X49605910Y44643559D01*
G36*
X21587560Y52195861D02*
X21587560Y51340000D01*
X21631838Y51104683D01*
X21770910Y50888559D01*
X21983110Y50743569D01*
X22235000Y50692560D01*
X23485000Y50692560D01*
X23720317Y50736838D01*
X23936441Y50875910D01*
X24081431Y51088110D01*
X24101052Y51185000D01*
X24952560Y51185000D01*
X24952560Y50720000D01*
X24996838Y50484683D01*
X25135910Y50268559D01*
X25348110Y50123569D01*
X25600000Y50072560D01*
X30100000Y50072560D01*
X30335317Y50116838D01*
X30551441Y50255910D01*
X30696431Y50468110D01*
X30747440Y50720000D01*
X30747440Y53420000D01*
X30703162Y53655317D01*
X30564090Y53871441D01*
X30351890Y54016431D01*
X30100000Y54067440D01*
X27635000Y54067440D01*
X27635000Y54323420D01*
X28306579Y54995000D01*
X29162721Y54995000D01*
X29285910Y54803559D01*
X29498110Y54658569D01*
X29750000Y54607560D01*
X31250000Y54607560D01*
X31485317Y54651838D01*
X31701441Y54790910D01*
X31749134Y54860711D01*
X31785910Y54803559D01*
X31998110Y54658569D01*
X32250000Y54607560D01*
X33750000Y54607560D01*
X33985317Y54651838D01*
X34201441Y54790910D01*
X34340890Y54995000D01*
X35193420Y54995000D01*
X35865000Y54323421D01*
X35865000Y54067440D01*
X33400000Y54067440D01*
X33164683Y54023162D01*
X32948559Y53884090D01*
X32803569Y53671890D01*
X32752560Y53420000D01*
X32752560Y50720000D01*
X32796838Y50484683D01*
X32935910Y50268559D01*
X33148110Y50123569D01*
X33400000Y50072560D01*
X35865000Y50072560D01*
X35865000Y49816579D01*
X35193420Y49145000D01*
X34337279Y49145000D01*
X34214090Y49336441D01*
X34001890Y49481431D01*
X33750000Y49532440D01*
X32250000Y49532440D01*
X32014683Y49488162D01*
X31798559Y49349090D01*
X31752031Y49280994D01*
X31609698Y49423327D01*
X31376309Y49520000D01*
X30785750Y49520000D01*
X30627000Y49361250D01*
X30627000Y48387000D01*
X30647000Y48387000D01*
X30647000Y48133000D01*
X30627000Y48133000D01*
X30627000Y47158750D01*
X30785750Y47000000D01*
X31376309Y47000000D01*
X31609698Y47096673D01*
X31750936Y47237910D01*
X31785910Y47183559D01*
X31998110Y47038569D01*
X32237509Y46990090D01*
X32014683Y46948162D01*
X31798559Y46809090D01*
X31750866Y46739289D01*
X31714090Y46796441D01*
X31501890Y46941431D01*
X31250000Y46992440D01*
X29750000Y46992440D01*
X29514683Y46948162D01*
X29298559Y46809090D01*
X29159110Y46605000D01*
X27940005Y46605000D01*
X27940000Y46605001D01*
X27601325Y46537633D01*
X27314210Y46345790D01*
X27314208Y46345787D01*
X26124210Y45155790D01*
X25932367Y44868675D01*
X25927282Y44843110D01*
X25864999Y44530000D01*
X25865000Y44529995D01*
X25865000Y44046580D01*
X24855790Y45055790D01*
X24797108Y45095000D01*
X24568675Y45247633D01*
X24512484Y45258810D01*
X24230000Y45315001D01*
X24229995Y45315000D01*
X24107038Y45315000D01*
X24088162Y45415317D01*
X23949090Y45631441D01*
X23745000Y45770890D01*
X23745000Y46029995D01*
X23745001Y46030000D01*
X23677634Y46368674D01*
X23599928Y46484969D01*
X23485790Y46655790D01*
X23485787Y46655792D01*
X22167329Y47974250D01*
X29115000Y47974250D01*
X29115000Y47508690D01*
X29211673Y47275301D01*
X29390302Y47096673D01*
X29623691Y47000000D01*
X30214250Y47000000D01*
X30373000Y47158750D01*
X30373000Y48133000D01*
X29273750Y48133000D01*
X29115000Y47974250D01*
X22167329Y47974250D01*
X21130269Y49011310D01*
X29115000Y49011310D01*
X29115000Y48545750D01*
X29273750Y48387000D01*
X30373000Y48387000D01*
X30373000Y49361250D01*
X30214250Y49520000D01*
X29623691Y49520000D01*
X29390302Y49423327D01*
X29211673Y49244699D01*
X29115000Y49011310D01*
X21130269Y49011310D01*
X15134753Y55006826D01*
X15135265Y55593991D01*
X14902068Y56158371D01*
X14470643Y56590551D01*
X13906670Y56824733D01*
X13296009Y56825265D01*
X12731629Y56592068D01*
X12349712Y56210818D01*
X12107749Y56453205D01*
X12521440Y56866897D01*
X16916523Y56866897D01*
X21587560Y52195861D01*
X21587560Y52195861D01*
G37*
X21587560Y52195861D02*
X21587560Y51340000D01*
X21631838Y51104683D01*
X21770910Y50888559D01*
X21983110Y50743569D01*
X22235000Y50692560D01*
X23485000Y50692560D01*
X23720317Y50736838D01*
X23936441Y50875910D01*
X24081431Y51088110D01*
X24101052Y51185000D01*
X24952560Y51185000D01*
X24952560Y50720000D01*
X24996838Y50484683D01*
X25135910Y50268559D01*
X25348110Y50123569D01*
X25600000Y50072560D01*
X30100000Y50072560D01*
X30335317Y50116838D01*
X30551441Y50255910D01*
X30696431Y50468110D01*
X30747440Y50720000D01*
X30747440Y53420000D01*
X30703162Y53655317D01*
X30564090Y53871441D01*
X30351890Y54016431D01*
X30100000Y54067440D01*
X27635000Y54067440D01*
X27635000Y54323420D01*
X28306579Y54995000D01*
X29162721Y54995000D01*
X29285910Y54803559D01*
X29498110Y54658569D01*
X29750000Y54607560D01*
X31250000Y54607560D01*
X31485317Y54651838D01*
X31701441Y54790910D01*
X31749134Y54860711D01*
X31785910Y54803559D01*
X31998110Y54658569D01*
X32250000Y54607560D01*
X33750000Y54607560D01*
X33985317Y54651838D01*
X34201441Y54790910D01*
X34340890Y54995000D01*
X35193420Y54995000D01*
X35865000Y54323421D01*
X35865000Y54067440D01*
X33400000Y54067440D01*
X33164683Y54023162D01*
X32948559Y53884090D01*
X32803569Y53671890D01*
X32752560Y53420000D01*
X32752560Y50720000D01*
X32796838Y50484683D01*
X32935910Y50268559D01*
X33148110Y50123569D01*
X33400000Y50072560D01*
X35865000Y50072560D01*
X35865000Y49816579D01*
X35193420Y49145000D01*
X34337279Y49145000D01*
X34214090Y49336441D01*
X34001890Y49481431D01*
X33750000Y49532440D01*
X32250000Y49532440D01*
X32014683Y49488162D01*
X31798559Y49349090D01*
X31752031Y49280994D01*
X31609698Y49423327D01*
X31376309Y49520000D01*
X30785750Y49520000D01*
X30627000Y49361250D01*
X30627000Y48387000D01*
X30647000Y48387000D01*
X30647000Y48133000D01*
X30627000Y48133000D01*
X30627000Y47158750D01*
X30785750Y47000000D01*
X31376309Y47000000D01*
X31609698Y47096673D01*
X31750936Y47237910D01*
X31785910Y47183559D01*
X31998110Y47038569D01*
X32237509Y46990090D01*
X32014683Y46948162D01*
X31798559Y46809090D01*
X31750866Y46739289D01*
X31714090Y46796441D01*
X31501890Y46941431D01*
X31250000Y46992440D01*
X29750000Y46992440D01*
X29514683Y46948162D01*
X29298559Y46809090D01*
X29159110Y46605000D01*
X27940005Y46605000D01*
X27940000Y46605001D01*
X27601325Y46537633D01*
X27314210Y46345790D01*
X27314208Y46345787D01*
X26124210Y45155790D01*
X25932367Y44868675D01*
X25927282Y44843110D01*
X25864999Y44530000D01*
X25865000Y44529995D01*
X25865000Y44046580D01*
X24855790Y45055790D01*
X24797108Y45095000D01*
X24568675Y45247633D01*
X24512484Y45258810D01*
X24230000Y45315001D01*
X24229995Y45315000D01*
X24107038Y45315000D01*
X24088162Y45415317D01*
X23949090Y45631441D01*
X23745000Y45770890D01*
X23745000Y46029995D01*
X23745001Y46030000D01*
X23677634Y46368674D01*
X23599928Y46484969D01*
X23485790Y46655790D01*
X23485787Y46655792D01*
X22167329Y47974250D01*
X29115000Y47974250D01*
X29115000Y47508690D01*
X29211673Y47275301D01*
X29390302Y47096673D01*
X29623691Y47000000D01*
X30214250Y47000000D01*
X30373000Y47158750D01*
X30373000Y48133000D01*
X29273750Y48133000D01*
X29115000Y47974250D01*
X22167329Y47974250D01*
X21130269Y49011310D01*
X29115000Y49011310D01*
X29115000Y48545750D01*
X29273750Y48387000D01*
X30373000Y48387000D01*
X30373000Y49361250D01*
X30214250Y49520000D01*
X29623691Y49520000D01*
X29390302Y49423327D01*
X29211673Y49244699D01*
X29115000Y49011310D01*
X21130269Y49011310D01*
X15134753Y55006826D01*
X15135265Y55593991D01*
X14902068Y56158371D01*
X14470643Y56590551D01*
X13906670Y56824733D01*
X13296009Y56825265D01*
X12731629Y56592068D01*
X12349712Y56210818D01*
X12107749Y56453205D01*
X12521440Y56866897D01*
X16916523Y56866897D01*
X21587560Y52195861D01*
M02*
