G04 #@! TF.FileFunction,Copper,L1,Top,Signal*
%FSLAX46Y46*%
G04 Gerber Fmt 4.6, Leading zero omitted, Abs format (unit mm)*
G04 Created by KiCad (PCBNEW 4.0.6) date 09/09/17 17:19:42*
%MOMM*%
%LPD*%
G01*
G04 APERTURE LIST*
%ADD10C,0.100000*%
%ADD11R,1.700000X1.700000*%
%ADD12O,1.700000X1.700000*%
%ADD13C,1.800000*%
%ADD14C,3.000000*%
%ADD15R,1.500000X1.250000*%
%ADD16R,1.250000X1.500000*%
%ADD17R,1.600000X2.400000*%
%ADD18O,1.600000X2.400000*%
%ADD19R,2.000000X3.800000*%
%ADD20R,2.000000X1.500000*%
%ADD21R,1.900000X0.800000*%
%ADD22R,3.300000X1.700000*%
%ADD23C,1.500000*%
%ADD24C,0.500000*%
%ADD25C,0.254000*%
G04 APERTURE END LIST*
D10*
D11*
X5969000Y34671000D03*
D12*
X5969000Y32131000D03*
X5969000Y29591000D03*
X5969000Y27051000D03*
X5969000Y24511000D03*
X5969000Y21971000D03*
X5969000Y19431000D03*
X5969000Y16891000D03*
X5969000Y14351000D03*
X5969000Y11811000D03*
D13*
X76830000Y50290000D03*
X62330000Y50290000D03*
X62330000Y47790000D03*
X62330000Y45290000D03*
X76830000Y45290000D03*
D14*
X69830000Y42190000D03*
X69830000Y53390000D03*
D11*
X27940000Y4445000D03*
D12*
X30480000Y4445000D03*
X33020000Y4445000D03*
D15*
X25420000Y30480000D03*
X27920000Y30480000D03*
X33000000Y53340000D03*
X30500000Y53340000D03*
X53320000Y30480000D03*
X50820000Y30480000D03*
X45740000Y43180000D03*
X48240000Y43180000D03*
X11450000Y5715000D03*
X13950000Y5715000D03*
X11450000Y8255000D03*
X13950000Y8255000D03*
D11*
X73660000Y11430000D03*
D12*
X73660000Y13970000D03*
X73660000Y16510000D03*
X73660000Y19050000D03*
D16*
X12700000Y47010000D03*
X12700000Y49510000D03*
D15*
X15260000Y41910000D03*
X17760000Y41910000D03*
X25420000Y43180000D03*
X27920000Y43180000D03*
X27920000Y33020000D03*
X25420000Y33020000D03*
X15260000Y53340000D03*
X17760000Y53340000D03*
X25420000Y53340000D03*
X27920000Y53340000D03*
D16*
X67310000Y45740000D03*
X67310000Y48240000D03*
D15*
X64750000Y53340000D03*
X62250000Y53340000D03*
X53320000Y53340000D03*
X50820000Y53340000D03*
X50820000Y33020000D03*
X53320000Y33020000D03*
X64770000Y41910000D03*
X62270000Y41910000D03*
X53320000Y43180000D03*
X50820000Y43180000D03*
D16*
X58420000Y13950000D03*
X58420000Y11450000D03*
D15*
X62250000Y8890000D03*
X64750000Y8890000D03*
D16*
X58420000Y20300000D03*
X58420000Y17800000D03*
X76835000Y14625000D03*
X76835000Y17125000D03*
D17*
X30099000Y12573000D03*
D18*
X45339000Y20193000D03*
X32639000Y12573000D03*
X42799000Y20193000D03*
X35179000Y12573000D03*
X40259000Y20193000D03*
X37719000Y12573000D03*
X37719000Y20193000D03*
X40259000Y12573000D03*
X35179000Y20193000D03*
X42799000Y12573000D03*
X32639000Y20193000D03*
X45339000Y12573000D03*
X30099000Y20193000D03*
D19*
X23470000Y8255000D03*
D20*
X17170000Y8255000D03*
X17170000Y5955000D03*
X17170000Y10555000D03*
D15*
X33020000Y43180000D03*
X30520000Y43180000D03*
X45740000Y53340000D03*
X48240000Y53340000D03*
X26630000Y20320000D03*
X24130000Y20320000D03*
D13*
X2830000Y45290000D03*
X17330000Y45290000D03*
X17330000Y47790000D03*
X17330000Y50290000D03*
X2830000Y50290000D03*
D14*
X9830000Y53390000D03*
X9830000Y42190000D03*
D21*
X62000000Y13650000D03*
X62000000Y11750000D03*
X65000000Y12700000D03*
X61730000Y19680000D03*
X61730000Y17780000D03*
X64730000Y18730000D03*
D22*
X49320000Y45720000D03*
X54820000Y45720000D03*
X49320000Y35560000D03*
X54820000Y35560000D03*
X49110000Y50800000D03*
X54610000Y50800000D03*
X29420000Y50800000D03*
X23920000Y50800000D03*
X29420000Y35560000D03*
X23920000Y35560000D03*
X29420000Y45720000D03*
X23920000Y45720000D03*
D16*
X38735000Y4465000D03*
X38735000Y6965000D03*
X41275000Y4465000D03*
X41275000Y6965000D03*
X57785000Y2560000D03*
X57785000Y5060000D03*
X60960000Y2560000D03*
X60960000Y5060000D03*
D23*
X23260989Y22280391D03*
X35538408Y49780269D03*
X47253741Y31000054D03*
X42514660Y31000052D03*
X29223499Y40896894D03*
X11430000Y34290000D03*
X51435000Y17780000D03*
X54740815Y8115858D03*
X11430000Y32385000D03*
D24*
X24010988Y23030390D02*
X23260989Y22280391D01*
X27920000Y30480000D02*
X27920000Y26939402D01*
X27920000Y26939402D02*
X24010988Y23030390D01*
X27920000Y30480000D02*
X27920000Y33020000D01*
X29210000Y33020000D02*
X29420000Y33230000D01*
X29420000Y33230000D02*
X29420000Y35560000D01*
X27920000Y33020000D02*
X29210000Y33020000D01*
X34518677Y50800000D02*
X34788409Y50530268D01*
X29420000Y50800000D02*
X34518677Y50800000D01*
X34788409Y50530268D02*
X35538408Y49780269D01*
X29420000Y50800000D02*
X29420000Y52260000D01*
X29420000Y52260000D02*
X30500000Y53340000D01*
X29420000Y50800000D02*
X31570000Y50800000D01*
X29420000Y50800000D02*
X29420000Y51840000D01*
X29420000Y51840000D02*
X27920000Y53340000D01*
X48003740Y31750053D02*
X47253741Y31000054D01*
X49320000Y33066313D02*
X48003740Y31750053D01*
X49320000Y35560000D02*
X49320000Y33066313D01*
X50820000Y30480000D02*
X50820000Y33020000D01*
X49530000Y33020000D02*
X49320000Y33230000D01*
X49320000Y33230000D02*
X49320000Y35560000D01*
X50820000Y33020000D02*
X49530000Y33020000D01*
X42514660Y32060712D02*
X42514660Y31000052D01*
X49320000Y45720000D02*
X49320000Y44370000D01*
X49320000Y44370000D02*
X42514660Y37564660D01*
X42514660Y37564660D02*
X42514660Y32060712D01*
X48240000Y43180000D02*
X49110000Y43180000D01*
X49110000Y43180000D02*
X49320000Y43390000D01*
X37719000Y20193000D02*
X37719000Y20593000D01*
X50800000Y43160000D02*
X50820000Y43180000D01*
X50820000Y43180000D02*
X49530000Y43180000D01*
X49530000Y43180000D02*
X49320000Y43390000D01*
X49320000Y43390000D02*
X49320000Y45720000D01*
X20320000Y6985000D02*
X19290000Y5955000D01*
X19290000Y5955000D02*
X17170000Y5955000D01*
X20320000Y10795000D02*
X20320000Y6985000D01*
X18415000Y12700000D02*
X20320000Y10795000D01*
X11430000Y12700000D02*
X18415000Y12700000D01*
X10541000Y11811000D02*
X11430000Y12700000D01*
X5969000Y11811000D02*
X10541000Y11811000D01*
X58101600Y8890000D02*
X60960000Y8890000D01*
X60960000Y8890000D02*
X61000000Y8890000D01*
X60960000Y5060000D02*
X60960000Y8890000D01*
X50481600Y1270000D02*
X57785000Y8573400D01*
X57785000Y8573400D02*
X58101600Y8890000D01*
X57785000Y8255000D02*
X57785000Y8573400D01*
X57785000Y5060000D02*
X57785000Y8255000D01*
X61000000Y8890000D02*
X62250000Y8890000D01*
X29765000Y1270000D02*
X50481600Y1270000D01*
X27940000Y3095000D02*
X29765000Y1270000D01*
X27940000Y4445000D02*
X27940000Y3095000D01*
X73660000Y13970000D02*
X76180000Y13970000D01*
X76180000Y13970000D02*
X76835000Y14625000D01*
X68580000Y12700000D02*
X69850000Y13970000D01*
X69850000Y13970000D02*
X73660000Y13970000D01*
X68580000Y8255000D02*
X68580000Y12700000D01*
X66675000Y6350000D02*
X68580000Y8255000D01*
X63500000Y6350000D02*
X66675000Y6350000D01*
X62250000Y7600000D02*
X63500000Y6350000D01*
X62250000Y8890000D02*
X62250000Y7600000D01*
X13950000Y5715000D02*
X16930000Y5715000D01*
X16930000Y5715000D02*
X17170000Y5955000D01*
X17170000Y5955000D02*
X17170000Y4705000D01*
X17170000Y4705000D02*
X18700000Y3175000D01*
X18700000Y3175000D02*
X27252759Y3175000D01*
X27252759Y3175000D02*
X27940000Y3862241D01*
X27940000Y3862241D02*
X27940000Y4445000D01*
X33020000Y4445000D02*
X33020000Y5647081D01*
X33020000Y5647081D02*
X30412081Y8255000D01*
X30412081Y8255000D02*
X24970000Y8255000D01*
X24970000Y8255000D02*
X23470000Y8255000D01*
X14585000Y8255000D02*
X17170000Y8255000D01*
X24130000Y43180000D02*
X23920000Y43390000D01*
X23920000Y43390000D02*
X23920000Y45720000D01*
X25420000Y43180000D02*
X24130000Y43180000D01*
X17330000Y45290000D02*
X23490000Y45290000D01*
X23490000Y45290000D02*
X23920000Y45720000D01*
X17760000Y41910000D02*
X17760000Y44860000D01*
X17760000Y44860000D02*
X17330000Y45290000D01*
X12700000Y47010000D02*
X12700000Y46885000D01*
X12700000Y46885000D02*
X11105000Y45290000D01*
X11105000Y45290000D02*
X10784666Y45290000D01*
X24130000Y33020000D02*
X23920000Y33230000D01*
X23920000Y33230000D02*
X23920000Y35560000D01*
X25420000Y33020000D02*
X24130000Y33020000D01*
X2830000Y45290000D02*
X10784666Y45290000D01*
X21770000Y35560000D02*
X23920000Y35560000D01*
X10784666Y45290000D02*
X12492332Y43582334D01*
X12492332Y43582334D02*
X12492332Y40204183D01*
X12492332Y40204183D02*
X17136515Y35560000D01*
X17136515Y35560000D02*
X21770000Y35560000D01*
X23920000Y50800000D02*
X17840000Y50800000D01*
X17840000Y50800000D02*
X17330000Y50290000D01*
X17330000Y51620000D02*
X17760000Y52050000D01*
X17760000Y52050000D02*
X17760000Y53340000D01*
X17330000Y50290000D02*
X17330000Y51620000D01*
X23920000Y50800000D02*
X23920000Y51840000D01*
X23920000Y51840000D02*
X25420000Y53340000D01*
X23900000Y50820000D02*
X23920000Y50800000D01*
X62330000Y50290000D02*
X62330000Y53260000D01*
X62330000Y53260000D02*
X62250000Y53340000D01*
X62330000Y50290000D02*
X55120000Y50290000D01*
X55120000Y50290000D02*
X54610000Y50800000D01*
X53445000Y53340000D02*
X54610000Y52175000D01*
X54610000Y52175000D02*
X54610000Y50800000D01*
X53320000Y53340000D02*
X53445000Y53340000D01*
X67779999Y42554997D02*
X67310000Y42084998D01*
X67310000Y42084998D02*
X60785002Y35560000D01*
X67310000Y45740000D02*
X67310000Y42084998D01*
X76830000Y50290000D02*
X74895998Y50290000D01*
X74895998Y50290000D02*
X67779999Y43174001D01*
X67779999Y43174001D02*
X67779999Y42554997D01*
X60785002Y35560000D02*
X56970000Y35560000D01*
X56970000Y35560000D02*
X54820000Y35560000D01*
X54610000Y33020000D02*
X54820000Y33230000D01*
X54820000Y33230000D02*
X54820000Y35560000D01*
X53320000Y33020000D02*
X54610000Y33020000D01*
X62270000Y41910000D02*
X62270000Y45230000D01*
X62270000Y45230000D02*
X62330000Y45290000D01*
X54610000Y43180000D02*
X54820000Y43390000D01*
X54820000Y43390000D02*
X54820000Y45720000D01*
X53320000Y43180000D02*
X54610000Y43180000D01*
X53320000Y43180000D02*
X53445000Y43180000D01*
X62330000Y45290000D02*
X55250000Y45290000D01*
X55250000Y45290000D02*
X54820000Y45720000D01*
X38735000Y2540000D02*
X41275000Y2540000D01*
X41275000Y4465000D02*
X41275000Y3215000D01*
X41275000Y2540000D02*
X45720000Y2540000D01*
X41275000Y3215000D02*
X41275000Y2540000D01*
X31182919Y2540000D02*
X38735000Y2540000D01*
X38735000Y4465000D02*
X38735000Y2540000D01*
X33020000Y26670000D02*
X30099000Y23749000D01*
X30099000Y21893000D02*
X30099000Y20193000D01*
X19195000Y38100000D02*
X30307567Y38100000D01*
X30099000Y23749000D02*
X30099000Y21893000D01*
X15260000Y41910000D02*
X15385000Y41910000D01*
X33020000Y35387567D02*
X33020000Y26670000D01*
X15385000Y41910000D02*
X19195000Y38100000D01*
X30307567Y38100000D02*
X33020000Y35387567D01*
X50134998Y18384998D02*
X52070000Y20320000D01*
X50134998Y17155998D02*
X50134998Y18384998D01*
X58420000Y13950000D02*
X53340996Y13950000D01*
X53340996Y13950000D02*
X50134998Y17155998D01*
X44450000Y27940000D02*
X52070000Y20320000D01*
X52070000Y20320000D02*
X52090000Y20300000D01*
X57150000Y13970000D02*
X57170000Y13950000D01*
X57170000Y13950000D02*
X58420000Y13950000D01*
X45720000Y2540000D02*
X57150000Y13970000D01*
X30480000Y4445000D02*
X30480000Y3242919D01*
X30480000Y3242919D02*
X31182919Y2540000D01*
X26630000Y20320000D02*
X29972000Y20320000D01*
X29972000Y20320000D02*
X30099000Y20193000D01*
X15260000Y53340000D02*
X15385000Y53340000D01*
X15385000Y53340000D02*
X17850248Y55805248D01*
X17850248Y55805248D02*
X64750000Y55805248D01*
X64750000Y55805248D02*
X64750000Y53340000D01*
X52090000Y20300000D02*
X58420000Y20300000D01*
X44450000Y35560000D02*
X44450000Y27940000D01*
X46990000Y38100000D02*
X44450000Y35560000D01*
X60835000Y38100000D02*
X46990000Y38100000D01*
X64770000Y41910000D02*
X64645000Y41910000D01*
X64645000Y41910000D02*
X60835000Y38100000D01*
X12700000Y49510000D02*
X12700000Y50780000D01*
X12700000Y50780000D02*
X15260000Y53340000D01*
X64750000Y53340000D02*
X64875000Y53340000D01*
X64875000Y53340000D02*
X67310000Y50905000D01*
X67310000Y49490000D02*
X67310000Y48240000D01*
X67310000Y50905000D02*
X67310000Y49490000D01*
X64770000Y41910000D02*
X64770000Y53320000D01*
X64770000Y53320000D02*
X64750000Y53340000D01*
X58420000Y13950000D02*
X61700000Y13950000D01*
X61700000Y13950000D02*
X62000000Y13650000D01*
X58420000Y20300000D02*
X61110000Y20300000D01*
X61110000Y20300000D02*
X61730000Y19680000D01*
X15260000Y41910000D02*
X15260000Y53340000D01*
X5969000Y29591000D02*
X8644514Y29591000D01*
X8644514Y29591000D02*
X19912458Y18323056D01*
X19912458Y18323056D02*
X34503942Y18323056D01*
X34503942Y18323056D02*
X35204943Y19024057D01*
X35179000Y19050000D02*
X35179000Y20193000D01*
X35204943Y19024057D02*
X35179000Y19050000D01*
X5969000Y27051000D02*
X8194739Y27051000D01*
X8194739Y27051000D02*
X17722693Y17523046D01*
X17722693Y17523046D02*
X37989046Y17523046D01*
X37989046Y17523046D02*
X40259000Y19793000D01*
X40259000Y19793000D02*
X40259000Y20193000D01*
X5969000Y24511000D02*
X8210926Y24511000D01*
X8210926Y24511000D02*
X15998890Y16723036D01*
X15998890Y16723036D02*
X42269036Y16723036D01*
X42269036Y16723036D02*
X45339000Y19793000D01*
X45339000Y19793000D02*
X45339000Y20193000D01*
X42799000Y12573000D02*
X42799000Y12973000D01*
X5999531Y21940469D02*
X5969000Y21971000D01*
X42799000Y12973000D02*
X39848978Y15923022D01*
X39848978Y15923022D02*
X14609646Y15923022D01*
X8592199Y21940469D02*
X5999531Y21940469D01*
X14609646Y15923022D02*
X8592199Y21940469D01*
X5969000Y19431000D02*
X8986623Y19431000D01*
X8986623Y19431000D02*
X13294612Y15123011D01*
X13294612Y15123011D02*
X35568989Y15123011D01*
X35568989Y15123011D02*
X37719000Y12973000D01*
X37719000Y12973000D02*
X37719000Y12573000D01*
X32639000Y12573000D02*
X32639000Y12973000D01*
X11497198Y14323001D02*
X8926154Y16894045D01*
X32639000Y12973000D02*
X31288999Y14323001D01*
X31288999Y14323001D02*
X11497198Y14323001D01*
X8926154Y16894045D02*
X5972045Y16894045D01*
X5972045Y16894045D02*
X5969000Y16891000D01*
X29223499Y40896894D02*
X29223499Y43166501D01*
X29223499Y43166501D02*
X29210000Y43180000D01*
X29210000Y43180000D02*
X29400081Y43180000D01*
X30520000Y43180000D02*
X29210000Y43180000D01*
X27920000Y43180000D02*
X29210000Y43180000D01*
X29210000Y43180000D02*
X29420000Y43390000D01*
X29420000Y43390000D02*
X29420000Y45720000D01*
X49110000Y50800000D02*
X49110000Y52470000D01*
X49110000Y52470000D02*
X48240000Y53340000D01*
X45720000Y50800000D02*
X46960000Y50800000D01*
X39370000Y31134004D02*
X39370000Y44450000D01*
X39339998Y31104002D02*
X39370000Y31134004D01*
X46960000Y50800000D02*
X49110000Y50800000D01*
X39339998Y28585998D02*
X39339998Y31104002D01*
X42799000Y25126996D02*
X39339998Y28585998D01*
X42799000Y20193000D02*
X42799000Y25126996D01*
X39370000Y44450000D02*
X45720000Y50800000D01*
X50820000Y53340000D02*
X50300000Y53340000D01*
X50300000Y53340000D02*
X49110000Y52150000D01*
X49110000Y52150000D02*
X49110000Y50800000D01*
X11430000Y34290000D02*
X6350000Y34290000D01*
X6350000Y34290000D02*
X5969000Y34671000D01*
X58420000Y17800000D02*
X51455000Y17800000D01*
X51455000Y17800000D02*
X51435000Y17780000D01*
X61730000Y17780000D02*
X58440000Y17780000D01*
X58440000Y17780000D02*
X58420000Y17800000D01*
X55210858Y8115858D02*
X54740815Y8115858D01*
X58420000Y11450000D02*
X58420000Y11325000D01*
X58420000Y11325000D02*
X55210858Y8115858D01*
X5969000Y32131000D02*
X11176000Y32131000D01*
X11176000Y32131000D02*
X11430000Y32385000D01*
X58420000Y11575000D02*
X58420000Y11450000D01*
X58420000Y11450000D02*
X61700000Y11450000D01*
X61700000Y11450000D02*
X62000000Y11750000D01*
X67910000Y16510000D02*
X73660000Y16510000D01*
X65000000Y12700000D02*
X65000000Y13600000D01*
X65000000Y13600000D02*
X67910000Y16510000D01*
X64750000Y8890000D02*
X64750000Y12450000D01*
X64750000Y12450000D02*
X65000000Y12700000D01*
X65000000Y12700000D02*
X65550000Y12700000D01*
X73660000Y19050000D02*
X74910000Y19050000D01*
X74910000Y19050000D02*
X76835000Y17125000D01*
X64730000Y18730000D02*
X73340000Y18730000D01*
X73340000Y18730000D02*
X73660000Y19050000D01*
D25*
G36*
X78030000Y51260618D02*
X77700643Y51590551D01*
X77136670Y51824733D01*
X76526009Y51825265D01*
X75961629Y51592068D01*
X75543831Y51175000D01*
X74895998Y51175000D01*
X74557323Y51107633D01*
X74270208Y50915790D01*
X74270206Y50915787D01*
X68582440Y45228022D01*
X68582440Y46490000D01*
X68538162Y46725317D01*
X68399090Y46941441D01*
X68329289Y46989134D01*
X68386441Y47025910D01*
X68531431Y47238110D01*
X68582440Y47490000D01*
X68582440Y48990000D01*
X68538162Y49225317D01*
X68399090Y49441441D01*
X68195000Y49580890D01*
X68195000Y50904995D01*
X68195001Y50905000D01*
X68127633Y51243674D01*
X68127633Y51243675D01*
X67935790Y51530790D01*
X67935787Y51530792D01*
X66499395Y52967185D01*
X67694630Y52967185D01*
X68018980Y52182200D01*
X68619041Y51581091D01*
X69403459Y51255372D01*
X70252815Y51254630D01*
X71037800Y51578980D01*
X71638909Y52179041D01*
X71964628Y52963459D01*
X71965370Y53812815D01*
X71641020Y54597800D01*
X71040959Y55198909D01*
X70256541Y55524628D01*
X69407185Y55525370D01*
X68622200Y55201020D01*
X68021091Y54600959D01*
X67695372Y53816541D01*
X67694630Y52967185D01*
X66499395Y52967185D01*
X66147440Y53319140D01*
X66147440Y53965000D01*
X66103162Y54200317D01*
X65964090Y54416441D01*
X65751890Y54561431D01*
X65635000Y54585102D01*
X65635000Y55805248D01*
X65567633Y56143923D01*
X65375790Y56431038D01*
X65088675Y56622881D01*
X64750000Y56690248D01*
X17850253Y56690248D01*
X17850248Y56690249D01*
X17511573Y56622881D01*
X17224458Y56431038D01*
X17224456Y56431035D01*
X15405860Y54612440D01*
X14510000Y54612440D01*
X14274683Y54568162D01*
X14058559Y54429090D01*
X13913569Y54216890D01*
X13862560Y53965000D01*
X13862560Y53194139D01*
X12074210Y51405790D01*
X11882367Y51118675D01*
X11871190Y51062484D01*
X11830346Y50857154D01*
X11623559Y50724090D01*
X11478569Y50511890D01*
X11427560Y50260000D01*
X11427560Y48760000D01*
X11471838Y48524683D01*
X11610910Y48308559D01*
X11680711Y48260866D01*
X11623559Y48224090D01*
X11478569Y48011890D01*
X11427560Y47760000D01*
X11427560Y46864139D01*
X10738420Y46175000D01*
X4115468Y46175000D01*
X3700643Y46590551D01*
X3136670Y46824733D01*
X2526009Y46825265D01*
X1961629Y46592068D01*
X1529449Y46160643D01*
X1295267Y45596670D01*
X1294735Y44986009D01*
X1527932Y44421629D01*
X1959357Y43989449D01*
X2523330Y43755267D01*
X3133991Y43754735D01*
X3698371Y43987932D01*
X4116169Y44405000D01*
X10418086Y44405000D01*
X10670242Y44152844D01*
X10256541Y44324628D01*
X9407185Y44325370D01*
X8622200Y44001020D01*
X8021091Y43400959D01*
X7695372Y42616541D01*
X7694630Y41767185D01*
X8018980Y40982200D01*
X8619041Y40381091D01*
X9403459Y40055372D01*
X10252815Y40054630D01*
X11037800Y40378980D01*
X11607332Y40947519D01*
X11607332Y40204188D01*
X11607331Y40204183D01*
X11637080Y40054630D01*
X11674699Y39865508D01*
X11866542Y39578393D01*
X16510723Y34934213D01*
X16510725Y34934210D01*
X16538293Y34915790D01*
X16797841Y34742366D01*
X17136515Y34674999D01*
X17136520Y34675000D01*
X21629146Y34675000D01*
X21666838Y34474683D01*
X21805910Y34258559D01*
X22018110Y34113569D01*
X22270000Y34062560D01*
X23035000Y34062560D01*
X23035000Y33230005D01*
X23034999Y33230000D01*
X23076772Y33020000D01*
X23102367Y32891325D01*
X23239225Y32686502D01*
X23294210Y32604210D01*
X23504208Y32394213D01*
X23504210Y32394210D01*
X23791325Y32202367D01*
X23847516Y32191190D01*
X24075782Y32145784D01*
X24205910Y31943559D01*
X24418110Y31798569D01*
X24670000Y31747560D01*
X26170000Y31747560D01*
X26405317Y31791838D01*
X26621441Y31930910D01*
X26669134Y32000711D01*
X26705910Y31943559D01*
X26918110Y31798569D01*
X27035000Y31774898D01*
X27035000Y31727038D01*
X26934683Y31708162D01*
X26718559Y31569090D01*
X26672031Y31500994D01*
X26529698Y31643327D01*
X26296309Y31740000D01*
X25705750Y31740000D01*
X25547000Y31581250D01*
X25547000Y30607000D01*
X25567000Y30607000D01*
X25567000Y30353000D01*
X25547000Y30353000D01*
X25547000Y29378750D01*
X25705750Y29220000D01*
X26296309Y29220000D01*
X26529698Y29316673D01*
X26670936Y29457910D01*
X26705910Y29403559D01*
X26918110Y29258569D01*
X27035000Y29234898D01*
X27035000Y27305981D01*
X23394293Y23665275D01*
X22986704Y23665631D01*
X22477474Y23455222D01*
X22087528Y23065955D01*
X21876230Y22557093D01*
X21875749Y22006106D01*
X22086158Y21496876D01*
X22475425Y21106930D01*
X22745000Y20994993D01*
X22745000Y20605750D01*
X22903750Y20447000D01*
X24003000Y20447000D01*
X24003000Y20467000D01*
X24257000Y20467000D01*
X24257000Y20447000D01*
X24277000Y20447000D01*
X24277000Y20193000D01*
X24257000Y20193000D01*
X24257000Y20173000D01*
X24003000Y20173000D01*
X24003000Y20193000D01*
X22903750Y20193000D01*
X22745000Y20034250D01*
X22745000Y19568690D01*
X22841673Y19335301D01*
X22968919Y19208056D01*
X20279037Y19208056D01*
X9292844Y30194250D01*
X24035000Y30194250D01*
X24035000Y29728690D01*
X24131673Y29495301D01*
X24310302Y29316673D01*
X24543691Y29220000D01*
X25134250Y29220000D01*
X25293000Y29378750D01*
X25293000Y30353000D01*
X24193750Y30353000D01*
X24035000Y30194250D01*
X9292844Y30194250D01*
X9270304Y30216790D01*
X9166171Y30286369D01*
X8983189Y30408633D01*
X8926998Y30419810D01*
X8644514Y30476001D01*
X8644509Y30476000D01*
X7158432Y30476000D01*
X7048147Y30641054D01*
X6718974Y30861000D01*
X7048147Y31080946D01*
X7158432Y31246000D01*
X10610035Y31246000D01*
X10644436Y31211539D01*
X11153298Y31000241D01*
X11704285Y30999760D01*
X12213515Y31210169D01*
X12234692Y31231310D01*
X24035000Y31231310D01*
X24035000Y30765750D01*
X24193750Y30607000D01*
X25293000Y30607000D01*
X25293000Y31581250D01*
X25134250Y31740000D01*
X24543691Y31740000D01*
X24310302Y31643327D01*
X24131673Y31464699D01*
X24035000Y31231310D01*
X12234692Y31231310D01*
X12603461Y31599436D01*
X12814759Y32108298D01*
X12815240Y32659285D01*
X12604831Y33168515D01*
X12436187Y33337453D01*
X12603461Y33504436D01*
X12814759Y34013298D01*
X12815240Y34564285D01*
X12604831Y35073515D01*
X12215564Y35463461D01*
X11706702Y35674759D01*
X11155715Y35675240D01*
X10646485Y35464831D01*
X10356148Y35175000D01*
X7466440Y35175000D01*
X7466440Y35521000D01*
X7422162Y35756317D01*
X7283090Y35972441D01*
X7070890Y36117431D01*
X6819000Y36168440D01*
X5119000Y36168440D01*
X4883683Y36124162D01*
X4667559Y35985090D01*
X4522569Y35772890D01*
X4471560Y35521000D01*
X4471560Y33821000D01*
X4515838Y33585683D01*
X4654910Y33369559D01*
X4867110Y33224569D01*
X4934541Y33210914D01*
X4889853Y33181054D01*
X4567946Y32699285D01*
X4454907Y32131000D01*
X4567946Y31562715D01*
X4889853Y31080946D01*
X5219026Y30861000D01*
X4889853Y30641054D01*
X4567946Y30159285D01*
X4454907Y29591000D01*
X4567946Y29022715D01*
X4889853Y28540946D01*
X5219026Y28321000D01*
X4889853Y28101054D01*
X4567946Y27619285D01*
X4454907Y27051000D01*
X4567946Y26482715D01*
X4889853Y26000946D01*
X5219026Y25781000D01*
X4889853Y25561054D01*
X4567946Y25079285D01*
X4454907Y24511000D01*
X4567946Y23942715D01*
X4889853Y23460946D01*
X5219026Y23241000D01*
X4889853Y23021054D01*
X4567946Y22539285D01*
X4454907Y21971000D01*
X4567946Y21402715D01*
X4889853Y20920946D01*
X5219026Y20701000D01*
X4889853Y20481054D01*
X4567946Y19999285D01*
X4454907Y19431000D01*
X4567946Y18862715D01*
X4889853Y18380946D01*
X5219026Y18161000D01*
X4889853Y17941054D01*
X4567946Y17459285D01*
X4454907Y16891000D01*
X4567946Y16322715D01*
X4889853Y15840946D01*
X5230553Y15613298D01*
X5087642Y15546183D01*
X4697355Y15117924D01*
X4527524Y14707890D01*
X4648845Y14478000D01*
X5842000Y14478000D01*
X5842000Y14498000D01*
X6096000Y14498000D01*
X6096000Y14478000D01*
X7289155Y14478000D01*
X7410476Y14707890D01*
X7240645Y15117924D01*
X6850358Y15546183D01*
X6707447Y15613298D01*
X7048147Y15840946D01*
X7160467Y16009045D01*
X8559574Y16009045D01*
X10871406Y13697214D01*
X10871408Y13697211D01*
X11128962Y13525120D01*
X11091325Y13517633D01*
X10804210Y13325790D01*
X10804208Y13325787D01*
X10174420Y12696000D01*
X7158432Y12696000D01*
X7048147Y12861054D01*
X6707447Y13088702D01*
X6850358Y13155817D01*
X7240645Y13584076D01*
X7410476Y13994110D01*
X7289155Y14224000D01*
X6096000Y14224000D01*
X6096000Y14204000D01*
X5842000Y14204000D01*
X5842000Y14224000D01*
X4648845Y14224000D01*
X4527524Y13994110D01*
X4697355Y13584076D01*
X5087642Y13155817D01*
X5230553Y13088702D01*
X4889853Y12861054D01*
X4567946Y12379285D01*
X4454907Y11811000D01*
X4567946Y11242715D01*
X4889853Y10760946D01*
X5371622Y10439039D01*
X5939907Y10326000D01*
X5998093Y10326000D01*
X6566378Y10439039D01*
X7048147Y10760946D01*
X7158432Y10926000D01*
X10540995Y10926000D01*
X10541000Y10925999D01*
X10823484Y10982190D01*
X10879675Y10993367D01*
X11166790Y11185210D01*
X11796579Y11815000D01*
X15781975Y11815000D01*
X15631673Y11664699D01*
X15535000Y11431310D01*
X15535000Y10840750D01*
X15693750Y10682000D01*
X17043000Y10682000D01*
X17043000Y10702000D01*
X17297000Y10702000D01*
X17297000Y10682000D01*
X18646250Y10682000D01*
X18805000Y10840750D01*
X18805000Y11058421D01*
X19435000Y10428421D01*
X19435000Y7351579D01*
X18923420Y6840000D01*
X18792038Y6840000D01*
X18773162Y6940317D01*
X18666241Y7106477D01*
X18766431Y7253110D01*
X18817440Y7505000D01*
X18817440Y9005000D01*
X18773162Y9240317D01*
X18667518Y9404492D01*
X18708327Y9445301D01*
X18805000Y9678690D01*
X18805000Y10269250D01*
X18646250Y10428000D01*
X17297000Y10428000D01*
X17297000Y10408000D01*
X17043000Y10408000D01*
X17043000Y10428000D01*
X15693750Y10428000D01*
X15535000Y10269250D01*
X15535000Y9678690D01*
X15631673Y9445301D01*
X15673634Y9403340D01*
X15573569Y9256890D01*
X15549898Y9140000D01*
X15287279Y9140000D01*
X15164090Y9331441D01*
X14951890Y9476431D01*
X14700000Y9527440D01*
X13200000Y9527440D01*
X12964683Y9483162D01*
X12748559Y9344090D01*
X12702031Y9275994D01*
X12559698Y9418327D01*
X12326309Y9515000D01*
X11735750Y9515000D01*
X11577000Y9356250D01*
X11577000Y8382000D01*
X11597000Y8382000D01*
X11597000Y8128000D01*
X11577000Y8128000D01*
X11577000Y7153750D01*
X11735750Y6995000D01*
X12326309Y6995000D01*
X12559698Y7091673D01*
X12700936Y7232910D01*
X12735910Y7178559D01*
X12948110Y7033569D01*
X13187509Y6985090D01*
X12964683Y6943162D01*
X12748559Y6804090D01*
X12702031Y6735994D01*
X12559698Y6878327D01*
X12326309Y6975000D01*
X11735750Y6975000D01*
X11577000Y6816250D01*
X11577000Y5842000D01*
X11597000Y5842000D01*
X11597000Y5588000D01*
X11577000Y5588000D01*
X11577000Y4613750D01*
X11735750Y4455000D01*
X12326309Y4455000D01*
X12559698Y4551673D01*
X12700936Y4692910D01*
X12735910Y4638559D01*
X12948110Y4493569D01*
X13200000Y4442560D01*
X14700000Y4442560D01*
X14935317Y4486838D01*
X15151441Y4625910D01*
X15290890Y4830000D01*
X15656722Y4830000D01*
X15705910Y4753559D01*
X15918110Y4608569D01*
X16170000Y4557560D01*
X16314327Y4557560D01*
X16327056Y4493569D01*
X16352367Y4366325D01*
X16530319Y4100000D01*
X16544210Y4079210D01*
X18074208Y2549213D01*
X18074210Y2549210D01*
X18361325Y2357367D01*
X18417516Y2346190D01*
X18700000Y2289999D01*
X18700005Y2290000D01*
X27252754Y2290000D01*
X27252759Y2289999D01*
X27453492Y2329928D01*
X29073421Y710000D01*
X710000Y710000D01*
X710000Y5429250D01*
X10065000Y5429250D01*
X10065000Y4963690D01*
X10161673Y4730301D01*
X10340302Y4551673D01*
X10573691Y4455000D01*
X11164250Y4455000D01*
X11323000Y4613750D01*
X11323000Y5588000D01*
X10223750Y5588000D01*
X10065000Y5429250D01*
X710000Y5429250D01*
X710000Y6466310D01*
X10065000Y6466310D01*
X10065000Y6000750D01*
X10223750Y5842000D01*
X11323000Y5842000D01*
X11323000Y6816250D01*
X11164250Y6975000D01*
X10573691Y6975000D01*
X10340302Y6878327D01*
X10161673Y6699699D01*
X10065000Y6466310D01*
X710000Y6466310D01*
X710000Y7969250D01*
X10065000Y7969250D01*
X10065000Y7503690D01*
X10161673Y7270301D01*
X10340302Y7091673D01*
X10573691Y6995000D01*
X11164250Y6995000D01*
X11323000Y7153750D01*
X11323000Y8128000D01*
X10223750Y8128000D01*
X10065000Y7969250D01*
X710000Y7969250D01*
X710000Y9006310D01*
X10065000Y9006310D01*
X10065000Y8540750D01*
X10223750Y8382000D01*
X11323000Y8382000D01*
X11323000Y9356250D01*
X11164250Y9515000D01*
X10573691Y9515000D01*
X10340302Y9418327D01*
X10161673Y9239699D01*
X10065000Y9006310D01*
X710000Y9006310D01*
X710000Y49209841D01*
X1929446Y49209841D01*
X2015852Y48953357D01*
X2589336Y48743542D01*
X3199460Y48769161D01*
X3644148Y48953357D01*
X3730554Y49209841D01*
X2830000Y50110395D01*
X1929446Y49209841D01*
X710000Y49209841D01*
X710000Y50530664D01*
X1283542Y50530664D01*
X1309161Y49920540D01*
X1493357Y49475852D01*
X1749841Y49389446D01*
X2650395Y50290000D01*
X3009605Y50290000D01*
X3910159Y49389446D01*
X4166643Y49475852D01*
X4376458Y50049336D01*
X4350839Y50659460D01*
X4166643Y51104148D01*
X3910159Y51190554D01*
X3009605Y50290000D01*
X2650395Y50290000D01*
X1749841Y51190554D01*
X1493357Y51104148D01*
X1283542Y50530664D01*
X710000Y50530664D01*
X710000Y51370159D01*
X1929446Y51370159D01*
X2830000Y50469605D01*
X3730554Y51370159D01*
X3644148Y51626643D01*
X3070664Y51836458D01*
X2460540Y51810839D01*
X2015852Y51626643D01*
X1929446Y51370159D01*
X710000Y51370159D01*
X710000Y52967185D01*
X7694630Y52967185D01*
X8018980Y52182200D01*
X8619041Y51581091D01*
X9403459Y51255372D01*
X10252815Y51254630D01*
X11037800Y51578980D01*
X11638909Y52179041D01*
X11964628Y52963459D01*
X11965370Y53812815D01*
X11641020Y54597800D01*
X11040959Y55198909D01*
X10256541Y55524628D01*
X9407185Y55525370D01*
X8622200Y55201020D01*
X8021091Y54600959D01*
X7695372Y53816541D01*
X7694630Y52967185D01*
X710000Y52967185D01*
X710000Y58345000D01*
X78030000Y58345000D01*
X78030000Y51260618D01*
X78030000Y51260618D01*
G37*
X78030000Y51260618D02*
X77700643Y51590551D01*
X77136670Y51824733D01*
X76526009Y51825265D01*
X75961629Y51592068D01*
X75543831Y51175000D01*
X74895998Y51175000D01*
X74557323Y51107633D01*
X74270208Y50915790D01*
X74270206Y50915787D01*
X68582440Y45228022D01*
X68582440Y46490000D01*
X68538162Y46725317D01*
X68399090Y46941441D01*
X68329289Y46989134D01*
X68386441Y47025910D01*
X68531431Y47238110D01*
X68582440Y47490000D01*
X68582440Y48990000D01*
X68538162Y49225317D01*
X68399090Y49441441D01*
X68195000Y49580890D01*
X68195000Y50904995D01*
X68195001Y50905000D01*
X68127633Y51243674D01*
X68127633Y51243675D01*
X67935790Y51530790D01*
X67935787Y51530792D01*
X66499395Y52967185D01*
X67694630Y52967185D01*
X68018980Y52182200D01*
X68619041Y51581091D01*
X69403459Y51255372D01*
X70252815Y51254630D01*
X71037800Y51578980D01*
X71638909Y52179041D01*
X71964628Y52963459D01*
X71965370Y53812815D01*
X71641020Y54597800D01*
X71040959Y55198909D01*
X70256541Y55524628D01*
X69407185Y55525370D01*
X68622200Y55201020D01*
X68021091Y54600959D01*
X67695372Y53816541D01*
X67694630Y52967185D01*
X66499395Y52967185D01*
X66147440Y53319140D01*
X66147440Y53965000D01*
X66103162Y54200317D01*
X65964090Y54416441D01*
X65751890Y54561431D01*
X65635000Y54585102D01*
X65635000Y55805248D01*
X65567633Y56143923D01*
X65375790Y56431038D01*
X65088675Y56622881D01*
X64750000Y56690248D01*
X17850253Y56690248D01*
X17850248Y56690249D01*
X17511573Y56622881D01*
X17224458Y56431038D01*
X17224456Y56431035D01*
X15405860Y54612440D01*
X14510000Y54612440D01*
X14274683Y54568162D01*
X14058559Y54429090D01*
X13913569Y54216890D01*
X13862560Y53965000D01*
X13862560Y53194139D01*
X12074210Y51405790D01*
X11882367Y51118675D01*
X11871190Y51062484D01*
X11830346Y50857154D01*
X11623559Y50724090D01*
X11478569Y50511890D01*
X11427560Y50260000D01*
X11427560Y48760000D01*
X11471838Y48524683D01*
X11610910Y48308559D01*
X11680711Y48260866D01*
X11623559Y48224090D01*
X11478569Y48011890D01*
X11427560Y47760000D01*
X11427560Y46864139D01*
X10738420Y46175000D01*
X4115468Y46175000D01*
X3700643Y46590551D01*
X3136670Y46824733D01*
X2526009Y46825265D01*
X1961629Y46592068D01*
X1529449Y46160643D01*
X1295267Y45596670D01*
X1294735Y44986009D01*
X1527932Y44421629D01*
X1959357Y43989449D01*
X2523330Y43755267D01*
X3133991Y43754735D01*
X3698371Y43987932D01*
X4116169Y44405000D01*
X10418086Y44405000D01*
X10670242Y44152844D01*
X10256541Y44324628D01*
X9407185Y44325370D01*
X8622200Y44001020D01*
X8021091Y43400959D01*
X7695372Y42616541D01*
X7694630Y41767185D01*
X8018980Y40982200D01*
X8619041Y40381091D01*
X9403459Y40055372D01*
X10252815Y40054630D01*
X11037800Y40378980D01*
X11607332Y40947519D01*
X11607332Y40204188D01*
X11607331Y40204183D01*
X11637080Y40054630D01*
X11674699Y39865508D01*
X11866542Y39578393D01*
X16510723Y34934213D01*
X16510725Y34934210D01*
X16538293Y34915790D01*
X16797841Y34742366D01*
X17136515Y34674999D01*
X17136520Y34675000D01*
X21629146Y34675000D01*
X21666838Y34474683D01*
X21805910Y34258559D01*
X22018110Y34113569D01*
X22270000Y34062560D01*
X23035000Y34062560D01*
X23035000Y33230005D01*
X23034999Y33230000D01*
X23076772Y33020000D01*
X23102367Y32891325D01*
X23239225Y32686502D01*
X23294210Y32604210D01*
X23504208Y32394213D01*
X23504210Y32394210D01*
X23791325Y32202367D01*
X23847516Y32191190D01*
X24075782Y32145784D01*
X24205910Y31943559D01*
X24418110Y31798569D01*
X24670000Y31747560D01*
X26170000Y31747560D01*
X26405317Y31791838D01*
X26621441Y31930910D01*
X26669134Y32000711D01*
X26705910Y31943559D01*
X26918110Y31798569D01*
X27035000Y31774898D01*
X27035000Y31727038D01*
X26934683Y31708162D01*
X26718559Y31569090D01*
X26672031Y31500994D01*
X26529698Y31643327D01*
X26296309Y31740000D01*
X25705750Y31740000D01*
X25547000Y31581250D01*
X25547000Y30607000D01*
X25567000Y30607000D01*
X25567000Y30353000D01*
X25547000Y30353000D01*
X25547000Y29378750D01*
X25705750Y29220000D01*
X26296309Y29220000D01*
X26529698Y29316673D01*
X26670936Y29457910D01*
X26705910Y29403559D01*
X26918110Y29258569D01*
X27035000Y29234898D01*
X27035000Y27305981D01*
X23394293Y23665275D01*
X22986704Y23665631D01*
X22477474Y23455222D01*
X22087528Y23065955D01*
X21876230Y22557093D01*
X21875749Y22006106D01*
X22086158Y21496876D01*
X22475425Y21106930D01*
X22745000Y20994993D01*
X22745000Y20605750D01*
X22903750Y20447000D01*
X24003000Y20447000D01*
X24003000Y20467000D01*
X24257000Y20467000D01*
X24257000Y20447000D01*
X24277000Y20447000D01*
X24277000Y20193000D01*
X24257000Y20193000D01*
X24257000Y20173000D01*
X24003000Y20173000D01*
X24003000Y20193000D01*
X22903750Y20193000D01*
X22745000Y20034250D01*
X22745000Y19568690D01*
X22841673Y19335301D01*
X22968919Y19208056D01*
X20279037Y19208056D01*
X9292844Y30194250D01*
X24035000Y30194250D01*
X24035000Y29728690D01*
X24131673Y29495301D01*
X24310302Y29316673D01*
X24543691Y29220000D01*
X25134250Y29220000D01*
X25293000Y29378750D01*
X25293000Y30353000D01*
X24193750Y30353000D01*
X24035000Y30194250D01*
X9292844Y30194250D01*
X9270304Y30216790D01*
X9166171Y30286369D01*
X8983189Y30408633D01*
X8926998Y30419810D01*
X8644514Y30476001D01*
X8644509Y30476000D01*
X7158432Y30476000D01*
X7048147Y30641054D01*
X6718974Y30861000D01*
X7048147Y31080946D01*
X7158432Y31246000D01*
X10610035Y31246000D01*
X10644436Y31211539D01*
X11153298Y31000241D01*
X11704285Y30999760D01*
X12213515Y31210169D01*
X12234692Y31231310D01*
X24035000Y31231310D01*
X24035000Y30765750D01*
X24193750Y30607000D01*
X25293000Y30607000D01*
X25293000Y31581250D01*
X25134250Y31740000D01*
X24543691Y31740000D01*
X24310302Y31643327D01*
X24131673Y31464699D01*
X24035000Y31231310D01*
X12234692Y31231310D01*
X12603461Y31599436D01*
X12814759Y32108298D01*
X12815240Y32659285D01*
X12604831Y33168515D01*
X12436187Y33337453D01*
X12603461Y33504436D01*
X12814759Y34013298D01*
X12815240Y34564285D01*
X12604831Y35073515D01*
X12215564Y35463461D01*
X11706702Y35674759D01*
X11155715Y35675240D01*
X10646485Y35464831D01*
X10356148Y35175000D01*
X7466440Y35175000D01*
X7466440Y35521000D01*
X7422162Y35756317D01*
X7283090Y35972441D01*
X7070890Y36117431D01*
X6819000Y36168440D01*
X5119000Y36168440D01*
X4883683Y36124162D01*
X4667559Y35985090D01*
X4522569Y35772890D01*
X4471560Y35521000D01*
X4471560Y33821000D01*
X4515838Y33585683D01*
X4654910Y33369559D01*
X4867110Y33224569D01*
X4934541Y33210914D01*
X4889853Y33181054D01*
X4567946Y32699285D01*
X4454907Y32131000D01*
X4567946Y31562715D01*
X4889853Y31080946D01*
X5219026Y30861000D01*
X4889853Y30641054D01*
X4567946Y30159285D01*
X4454907Y29591000D01*
X4567946Y29022715D01*
X4889853Y28540946D01*
X5219026Y28321000D01*
X4889853Y28101054D01*
X4567946Y27619285D01*
X4454907Y27051000D01*
X4567946Y26482715D01*
X4889853Y26000946D01*
X5219026Y25781000D01*
X4889853Y25561054D01*
X4567946Y25079285D01*
X4454907Y24511000D01*
X4567946Y23942715D01*
X4889853Y23460946D01*
X5219026Y23241000D01*
X4889853Y23021054D01*
X4567946Y22539285D01*
X4454907Y21971000D01*
X4567946Y21402715D01*
X4889853Y20920946D01*
X5219026Y20701000D01*
X4889853Y20481054D01*
X4567946Y19999285D01*
X4454907Y19431000D01*
X4567946Y18862715D01*
X4889853Y18380946D01*
X5219026Y18161000D01*
X4889853Y17941054D01*
X4567946Y17459285D01*
X4454907Y16891000D01*
X4567946Y16322715D01*
X4889853Y15840946D01*
X5230553Y15613298D01*
X5087642Y15546183D01*
X4697355Y15117924D01*
X4527524Y14707890D01*
X4648845Y14478000D01*
X5842000Y14478000D01*
X5842000Y14498000D01*
X6096000Y14498000D01*
X6096000Y14478000D01*
X7289155Y14478000D01*
X7410476Y14707890D01*
X7240645Y15117924D01*
X6850358Y15546183D01*
X6707447Y15613298D01*
X7048147Y15840946D01*
X7160467Y16009045D01*
X8559574Y16009045D01*
X10871406Y13697214D01*
X10871408Y13697211D01*
X11128962Y13525120D01*
X11091325Y13517633D01*
X10804210Y13325790D01*
X10804208Y13325787D01*
X10174420Y12696000D01*
X7158432Y12696000D01*
X7048147Y12861054D01*
X6707447Y13088702D01*
X6850358Y13155817D01*
X7240645Y13584076D01*
X7410476Y13994110D01*
X7289155Y14224000D01*
X6096000Y14224000D01*
X6096000Y14204000D01*
X5842000Y14204000D01*
X5842000Y14224000D01*
X4648845Y14224000D01*
X4527524Y13994110D01*
X4697355Y13584076D01*
X5087642Y13155817D01*
X5230553Y13088702D01*
X4889853Y12861054D01*
X4567946Y12379285D01*
X4454907Y11811000D01*
X4567946Y11242715D01*
X4889853Y10760946D01*
X5371622Y10439039D01*
X5939907Y10326000D01*
X5998093Y10326000D01*
X6566378Y10439039D01*
X7048147Y10760946D01*
X7158432Y10926000D01*
X10540995Y10926000D01*
X10541000Y10925999D01*
X10823484Y10982190D01*
X10879675Y10993367D01*
X11166790Y11185210D01*
X11796579Y11815000D01*
X15781975Y11815000D01*
X15631673Y11664699D01*
X15535000Y11431310D01*
X15535000Y10840750D01*
X15693750Y10682000D01*
X17043000Y10682000D01*
X17043000Y10702000D01*
X17297000Y10702000D01*
X17297000Y10682000D01*
X18646250Y10682000D01*
X18805000Y10840750D01*
X18805000Y11058421D01*
X19435000Y10428421D01*
X19435000Y7351579D01*
X18923420Y6840000D01*
X18792038Y6840000D01*
X18773162Y6940317D01*
X18666241Y7106477D01*
X18766431Y7253110D01*
X18817440Y7505000D01*
X18817440Y9005000D01*
X18773162Y9240317D01*
X18667518Y9404492D01*
X18708327Y9445301D01*
X18805000Y9678690D01*
X18805000Y10269250D01*
X18646250Y10428000D01*
X17297000Y10428000D01*
X17297000Y10408000D01*
X17043000Y10408000D01*
X17043000Y10428000D01*
X15693750Y10428000D01*
X15535000Y10269250D01*
X15535000Y9678690D01*
X15631673Y9445301D01*
X15673634Y9403340D01*
X15573569Y9256890D01*
X15549898Y9140000D01*
X15287279Y9140000D01*
X15164090Y9331441D01*
X14951890Y9476431D01*
X14700000Y9527440D01*
X13200000Y9527440D01*
X12964683Y9483162D01*
X12748559Y9344090D01*
X12702031Y9275994D01*
X12559698Y9418327D01*
X12326309Y9515000D01*
X11735750Y9515000D01*
X11577000Y9356250D01*
X11577000Y8382000D01*
X11597000Y8382000D01*
X11597000Y8128000D01*
X11577000Y8128000D01*
X11577000Y7153750D01*
X11735750Y6995000D01*
X12326309Y6995000D01*
X12559698Y7091673D01*
X12700936Y7232910D01*
X12735910Y7178559D01*
X12948110Y7033569D01*
X13187509Y6985090D01*
X12964683Y6943162D01*
X12748559Y6804090D01*
X12702031Y6735994D01*
X12559698Y6878327D01*
X12326309Y6975000D01*
X11735750Y6975000D01*
X11577000Y6816250D01*
X11577000Y5842000D01*
X11597000Y5842000D01*
X11597000Y5588000D01*
X11577000Y5588000D01*
X11577000Y4613750D01*
X11735750Y4455000D01*
X12326309Y4455000D01*
X12559698Y4551673D01*
X12700936Y4692910D01*
X12735910Y4638559D01*
X12948110Y4493569D01*
X13200000Y4442560D01*
X14700000Y4442560D01*
X14935317Y4486838D01*
X15151441Y4625910D01*
X15290890Y4830000D01*
X15656722Y4830000D01*
X15705910Y4753559D01*
X15918110Y4608569D01*
X16170000Y4557560D01*
X16314327Y4557560D01*
X16327056Y4493569D01*
X16352367Y4366325D01*
X16530319Y4100000D01*
X16544210Y4079210D01*
X18074208Y2549213D01*
X18074210Y2549210D01*
X18361325Y2357367D01*
X18417516Y2346190D01*
X18700000Y2289999D01*
X18700005Y2290000D01*
X27252754Y2290000D01*
X27252759Y2289999D01*
X27453492Y2329928D01*
X29073421Y710000D01*
X710000Y710000D01*
X710000Y5429250D01*
X10065000Y5429250D01*
X10065000Y4963690D01*
X10161673Y4730301D01*
X10340302Y4551673D01*
X10573691Y4455000D01*
X11164250Y4455000D01*
X11323000Y4613750D01*
X11323000Y5588000D01*
X10223750Y5588000D01*
X10065000Y5429250D01*
X710000Y5429250D01*
X710000Y6466310D01*
X10065000Y6466310D01*
X10065000Y6000750D01*
X10223750Y5842000D01*
X11323000Y5842000D01*
X11323000Y6816250D01*
X11164250Y6975000D01*
X10573691Y6975000D01*
X10340302Y6878327D01*
X10161673Y6699699D01*
X10065000Y6466310D01*
X710000Y6466310D01*
X710000Y7969250D01*
X10065000Y7969250D01*
X10065000Y7503690D01*
X10161673Y7270301D01*
X10340302Y7091673D01*
X10573691Y6995000D01*
X11164250Y6995000D01*
X11323000Y7153750D01*
X11323000Y8128000D01*
X10223750Y8128000D01*
X10065000Y7969250D01*
X710000Y7969250D01*
X710000Y9006310D01*
X10065000Y9006310D01*
X10065000Y8540750D01*
X10223750Y8382000D01*
X11323000Y8382000D01*
X11323000Y9356250D01*
X11164250Y9515000D01*
X10573691Y9515000D01*
X10340302Y9418327D01*
X10161673Y9239699D01*
X10065000Y9006310D01*
X710000Y9006310D01*
X710000Y49209841D01*
X1929446Y49209841D01*
X2015852Y48953357D01*
X2589336Y48743542D01*
X3199460Y48769161D01*
X3644148Y48953357D01*
X3730554Y49209841D01*
X2830000Y50110395D01*
X1929446Y49209841D01*
X710000Y49209841D01*
X710000Y50530664D01*
X1283542Y50530664D01*
X1309161Y49920540D01*
X1493357Y49475852D01*
X1749841Y49389446D01*
X2650395Y50290000D01*
X3009605Y50290000D01*
X3910159Y49389446D01*
X4166643Y49475852D01*
X4376458Y50049336D01*
X4350839Y50659460D01*
X4166643Y51104148D01*
X3910159Y51190554D01*
X3009605Y50290000D01*
X2650395Y50290000D01*
X1749841Y51190554D01*
X1493357Y51104148D01*
X1283542Y50530664D01*
X710000Y50530664D01*
X710000Y51370159D01*
X1929446Y51370159D01*
X2830000Y50469605D01*
X3730554Y51370159D01*
X3644148Y51626643D01*
X3070664Y51836458D01*
X2460540Y51810839D01*
X2015852Y51626643D01*
X1929446Y51370159D01*
X710000Y51370159D01*
X710000Y52967185D01*
X7694630Y52967185D01*
X8018980Y52182200D01*
X8619041Y51581091D01*
X9403459Y51255372D01*
X10252815Y51254630D01*
X11037800Y51578980D01*
X11638909Y52179041D01*
X11964628Y52963459D01*
X11965370Y53812815D01*
X11641020Y54597800D01*
X11040959Y55198909D01*
X10256541Y55524628D01*
X9407185Y55525370D01*
X8622200Y55201020D01*
X8021091Y54600959D01*
X7695372Y53816541D01*
X7694630Y52967185D01*
X710000Y52967185D01*
X710000Y58345000D01*
X78030000Y58345000D01*
X78030000Y51260618D01*
G36*
X78030000Y710000D02*
X51173180Y710000D01*
X52737429Y2274250D01*
X56525000Y2274250D01*
X56525000Y1683691D01*
X56621673Y1450302D01*
X56800301Y1271673D01*
X57033690Y1175000D01*
X57499250Y1175000D01*
X57658000Y1333750D01*
X57658000Y2433000D01*
X57912000Y2433000D01*
X57912000Y1333750D01*
X58070750Y1175000D01*
X58536310Y1175000D01*
X58769699Y1271673D01*
X58948327Y1450302D01*
X59045000Y1683691D01*
X59045000Y2274250D01*
X59700000Y2274250D01*
X59700000Y1683691D01*
X59796673Y1450302D01*
X59975301Y1271673D01*
X60208690Y1175000D01*
X60674250Y1175000D01*
X60833000Y1333750D01*
X60833000Y2433000D01*
X61087000Y2433000D01*
X61087000Y1333750D01*
X61245750Y1175000D01*
X61711310Y1175000D01*
X61944699Y1271673D01*
X62123327Y1450302D01*
X62220000Y1683691D01*
X62220000Y2274250D01*
X62061250Y2433000D01*
X61087000Y2433000D01*
X60833000Y2433000D01*
X59858750Y2433000D01*
X59700000Y2274250D01*
X59045000Y2274250D01*
X58886250Y2433000D01*
X57912000Y2433000D01*
X57658000Y2433000D01*
X56683750Y2433000D01*
X56525000Y2274250D01*
X52737429Y2274250D01*
X56646623Y6183444D01*
X56563569Y6061890D01*
X56512560Y5810000D01*
X56512560Y4310000D01*
X56556838Y4074683D01*
X56695910Y3858559D01*
X56764006Y3812031D01*
X56621673Y3669698D01*
X56525000Y3436309D01*
X56525000Y2845750D01*
X56683750Y2687000D01*
X57658000Y2687000D01*
X57658000Y2707000D01*
X57912000Y2707000D01*
X57912000Y2687000D01*
X58886250Y2687000D01*
X59045000Y2845750D01*
X59045000Y3436309D01*
X58948327Y3669698D01*
X58807090Y3810936D01*
X58861441Y3845910D01*
X59006431Y4058110D01*
X59057440Y4310000D01*
X59057440Y5810000D01*
X59013162Y6045317D01*
X58874090Y6261441D01*
X58670000Y6400890D01*
X58670000Y8005000D01*
X60075000Y8005000D01*
X60075000Y6397279D01*
X59883559Y6274090D01*
X59738569Y6061890D01*
X59687560Y5810000D01*
X59687560Y4310000D01*
X59731838Y4074683D01*
X59870910Y3858559D01*
X59939006Y3812031D01*
X59796673Y3669698D01*
X59700000Y3436309D01*
X59700000Y2845750D01*
X59858750Y2687000D01*
X60833000Y2687000D01*
X60833000Y2707000D01*
X61087000Y2707000D01*
X61087000Y2687000D01*
X62061250Y2687000D01*
X62220000Y2845750D01*
X62220000Y3436309D01*
X62123327Y3669698D01*
X61982090Y3810936D01*
X62036441Y3845910D01*
X62181431Y4058110D01*
X62232440Y4310000D01*
X62232440Y5810000D01*
X62188162Y6045317D01*
X62049090Y6261441D01*
X61845000Y6400890D01*
X61845000Y6753420D01*
X62874208Y5724213D01*
X62874210Y5724210D01*
X63161325Y5532367D01*
X63202650Y5524147D01*
X63500000Y5464999D01*
X63500005Y5465000D01*
X66674995Y5465000D01*
X66675000Y5464999D01*
X66972350Y5524147D01*
X67013675Y5532367D01*
X67300790Y5724210D01*
X69205787Y7629208D01*
X69205790Y7629210D01*
X69397633Y7916325D01*
X69416885Y8013110D01*
X69465001Y8255000D01*
X69465000Y8255005D01*
X69465000Y11144250D01*
X72175000Y11144250D01*
X72175000Y10453690D01*
X72271673Y10220301D01*
X72450302Y10041673D01*
X72683691Y9945000D01*
X73374250Y9945000D01*
X73533000Y10103750D01*
X73533000Y11303000D01*
X73787000Y11303000D01*
X73787000Y10103750D01*
X73945750Y9945000D01*
X74636309Y9945000D01*
X74869698Y10041673D01*
X75048327Y10220301D01*
X75145000Y10453690D01*
X75145000Y11144250D01*
X74986250Y11303000D01*
X73787000Y11303000D01*
X73533000Y11303000D01*
X72333750Y11303000D01*
X72175000Y11144250D01*
X69465000Y11144250D01*
X69465000Y12333420D01*
X70216579Y13085000D01*
X72470568Y13085000D01*
X72580853Y12919946D01*
X72624777Y12890597D01*
X72450302Y12818327D01*
X72271673Y12639699D01*
X72175000Y12406310D01*
X72175000Y11715750D01*
X72333750Y11557000D01*
X73533000Y11557000D01*
X73533000Y11577000D01*
X73787000Y11577000D01*
X73787000Y11557000D01*
X74986250Y11557000D01*
X75145000Y11715750D01*
X75145000Y12406310D01*
X75048327Y12639699D01*
X74869698Y12818327D01*
X74695223Y12890597D01*
X74739147Y12919946D01*
X74849432Y13085000D01*
X76179995Y13085000D01*
X76180000Y13084999D01*
X76462484Y13141190D01*
X76518675Y13152367D01*
X76631210Y13227560D01*
X77460000Y13227560D01*
X77695317Y13271838D01*
X77911441Y13410910D01*
X78030000Y13584427D01*
X78030000Y710000D01*
X78030000Y710000D01*
G37*
X78030000Y710000D02*
X51173180Y710000D01*
X52737429Y2274250D01*
X56525000Y2274250D01*
X56525000Y1683691D01*
X56621673Y1450302D01*
X56800301Y1271673D01*
X57033690Y1175000D01*
X57499250Y1175000D01*
X57658000Y1333750D01*
X57658000Y2433000D01*
X57912000Y2433000D01*
X57912000Y1333750D01*
X58070750Y1175000D01*
X58536310Y1175000D01*
X58769699Y1271673D01*
X58948327Y1450302D01*
X59045000Y1683691D01*
X59045000Y2274250D01*
X59700000Y2274250D01*
X59700000Y1683691D01*
X59796673Y1450302D01*
X59975301Y1271673D01*
X60208690Y1175000D01*
X60674250Y1175000D01*
X60833000Y1333750D01*
X60833000Y2433000D01*
X61087000Y2433000D01*
X61087000Y1333750D01*
X61245750Y1175000D01*
X61711310Y1175000D01*
X61944699Y1271673D01*
X62123327Y1450302D01*
X62220000Y1683691D01*
X62220000Y2274250D01*
X62061250Y2433000D01*
X61087000Y2433000D01*
X60833000Y2433000D01*
X59858750Y2433000D01*
X59700000Y2274250D01*
X59045000Y2274250D01*
X58886250Y2433000D01*
X57912000Y2433000D01*
X57658000Y2433000D01*
X56683750Y2433000D01*
X56525000Y2274250D01*
X52737429Y2274250D01*
X56646623Y6183444D01*
X56563569Y6061890D01*
X56512560Y5810000D01*
X56512560Y4310000D01*
X56556838Y4074683D01*
X56695910Y3858559D01*
X56764006Y3812031D01*
X56621673Y3669698D01*
X56525000Y3436309D01*
X56525000Y2845750D01*
X56683750Y2687000D01*
X57658000Y2687000D01*
X57658000Y2707000D01*
X57912000Y2707000D01*
X57912000Y2687000D01*
X58886250Y2687000D01*
X59045000Y2845750D01*
X59045000Y3436309D01*
X58948327Y3669698D01*
X58807090Y3810936D01*
X58861441Y3845910D01*
X59006431Y4058110D01*
X59057440Y4310000D01*
X59057440Y5810000D01*
X59013162Y6045317D01*
X58874090Y6261441D01*
X58670000Y6400890D01*
X58670000Y8005000D01*
X60075000Y8005000D01*
X60075000Y6397279D01*
X59883559Y6274090D01*
X59738569Y6061890D01*
X59687560Y5810000D01*
X59687560Y4310000D01*
X59731838Y4074683D01*
X59870910Y3858559D01*
X59939006Y3812031D01*
X59796673Y3669698D01*
X59700000Y3436309D01*
X59700000Y2845750D01*
X59858750Y2687000D01*
X60833000Y2687000D01*
X60833000Y2707000D01*
X61087000Y2707000D01*
X61087000Y2687000D01*
X62061250Y2687000D01*
X62220000Y2845750D01*
X62220000Y3436309D01*
X62123327Y3669698D01*
X61982090Y3810936D01*
X62036441Y3845910D01*
X62181431Y4058110D01*
X62232440Y4310000D01*
X62232440Y5810000D01*
X62188162Y6045317D01*
X62049090Y6261441D01*
X61845000Y6400890D01*
X61845000Y6753420D01*
X62874208Y5724213D01*
X62874210Y5724210D01*
X63161325Y5532367D01*
X63202650Y5524147D01*
X63500000Y5464999D01*
X63500005Y5465000D01*
X66674995Y5465000D01*
X66675000Y5464999D01*
X66972350Y5524147D01*
X67013675Y5532367D01*
X67300790Y5724210D01*
X69205787Y7629208D01*
X69205790Y7629210D01*
X69397633Y7916325D01*
X69416885Y8013110D01*
X69465001Y8255000D01*
X69465000Y8255005D01*
X69465000Y11144250D01*
X72175000Y11144250D01*
X72175000Y10453690D01*
X72271673Y10220301D01*
X72450302Y10041673D01*
X72683691Y9945000D01*
X73374250Y9945000D01*
X73533000Y10103750D01*
X73533000Y11303000D01*
X73787000Y11303000D01*
X73787000Y10103750D01*
X73945750Y9945000D01*
X74636309Y9945000D01*
X74869698Y10041673D01*
X75048327Y10220301D01*
X75145000Y10453690D01*
X75145000Y11144250D01*
X74986250Y11303000D01*
X73787000Y11303000D01*
X73533000Y11303000D01*
X72333750Y11303000D01*
X72175000Y11144250D01*
X69465000Y11144250D01*
X69465000Y12333420D01*
X70216579Y13085000D01*
X72470568Y13085000D01*
X72580853Y12919946D01*
X72624777Y12890597D01*
X72450302Y12818327D01*
X72271673Y12639699D01*
X72175000Y12406310D01*
X72175000Y11715750D01*
X72333750Y11557000D01*
X73533000Y11557000D01*
X73533000Y11577000D01*
X73787000Y11577000D01*
X73787000Y11557000D01*
X74986250Y11557000D01*
X75145000Y11715750D01*
X75145000Y12406310D01*
X75048327Y12639699D01*
X74869698Y12818327D01*
X74695223Y12890597D01*
X74739147Y12919946D01*
X74849432Y13085000D01*
X76179995Y13085000D01*
X76180000Y13084999D01*
X76462484Y13141190D01*
X76518675Y13152367D01*
X76631210Y13227560D01*
X77460000Y13227560D01*
X77695317Y13271838D01*
X77911441Y13410910D01*
X78030000Y13584427D01*
X78030000Y710000D01*
G36*
X63535910Y52263559D02*
X63748110Y52118569D01*
X63885000Y52090848D01*
X63885000Y43157038D01*
X63784683Y43138162D01*
X63568559Y42999090D01*
X63520866Y42929289D01*
X63484090Y42986441D01*
X63271890Y43131431D01*
X63155000Y43155102D01*
X63155000Y43970011D01*
X63198371Y43987932D01*
X63630551Y44419357D01*
X63864733Y44983330D01*
X63865265Y45593991D01*
X63632068Y46158371D01*
X63200643Y46590551D01*
X63191628Y46594294D01*
X63230554Y46709841D01*
X62330000Y47610395D01*
X61429446Y46709841D01*
X61468207Y46594786D01*
X61461629Y46592068D01*
X61043831Y46175000D01*
X57117440Y46175000D01*
X57117440Y46570000D01*
X57073162Y46805317D01*
X56934090Y47021441D01*
X56721890Y47166431D01*
X56470000Y47217440D01*
X53170000Y47217440D01*
X52934683Y47173162D01*
X52718559Y47034090D01*
X52573569Y46821890D01*
X52522560Y46570000D01*
X52522560Y44870000D01*
X52566838Y44634683D01*
X52684108Y44452440D01*
X52570000Y44452440D01*
X52334683Y44408162D01*
X52118559Y44269090D01*
X52070866Y44199289D01*
X52034090Y44256441D01*
X51821890Y44401431D01*
X51570000Y44452440D01*
X51453234Y44452440D01*
X51566431Y44618110D01*
X51617440Y44870000D01*
X51617440Y46570000D01*
X51573162Y46805317D01*
X51434090Y47021441D01*
X51221890Y47166431D01*
X50970000Y47217440D01*
X47670000Y47217440D01*
X47434683Y47173162D01*
X47218559Y47034090D01*
X47073569Y46821890D01*
X47022560Y46570000D01*
X47022560Y44870000D01*
X47066838Y44634683D01*
X47205910Y44418559D01*
X47237402Y44397042D01*
X47038559Y44269090D01*
X46992031Y44200994D01*
X46849698Y44343327D01*
X46616309Y44440000D01*
X46025750Y44440000D01*
X45867000Y44281250D01*
X45867000Y43307000D01*
X45887000Y43307000D01*
X45887000Y43053000D01*
X45867000Y43053000D01*
X45867000Y43033000D01*
X45613000Y43033000D01*
X45613000Y43053000D01*
X44513750Y43053000D01*
X44355000Y42894250D01*
X44355000Y42428690D01*
X44451673Y42195301D01*
X44630302Y42016673D01*
X44863691Y41920000D01*
X45454250Y41920000D01*
X45612998Y42078748D01*
X45612998Y41920000D01*
X45618421Y41920000D01*
X41888870Y38190450D01*
X41697027Y37903335D01*
X41697027Y37903334D01*
X41629659Y37564660D01*
X41629660Y37564655D01*
X41629660Y32073575D01*
X41341199Y31785616D01*
X41129901Y31276754D01*
X41129420Y30725767D01*
X41339829Y30216537D01*
X41729096Y29826591D01*
X42237958Y29615293D01*
X42788945Y29614812D01*
X43298175Y29825221D01*
X43565000Y30091581D01*
X43565000Y27940005D01*
X43564999Y27940000D01*
X43601394Y27757035D01*
X43632367Y27601325D01*
X43773786Y27389675D01*
X43824210Y27314210D01*
X50818421Y20320000D01*
X49509208Y19010788D01*
X49317365Y18723673D01*
X49317365Y18723672D01*
X49249997Y18384998D01*
X49249998Y18384993D01*
X49249998Y17156003D01*
X49249997Y17155998D01*
X49297755Y16915910D01*
X49317365Y16817323D01*
X49437154Y16638045D01*
X49509208Y16530208D01*
X52715204Y13324213D01*
X52715206Y13324210D01*
X53002321Y13132367D01*
X53058512Y13121190D01*
X53340996Y13064999D01*
X53341001Y13065000D01*
X54993421Y13065000D01*
X45353420Y3425000D01*
X42470392Y3425000D01*
X42496431Y3463110D01*
X42547440Y3715000D01*
X42547440Y5215000D01*
X42503162Y5450317D01*
X42364090Y5666441D01*
X42295994Y5712969D01*
X42438327Y5855302D01*
X42535000Y6088691D01*
X42535000Y6679250D01*
X42376250Y6838000D01*
X41402000Y6838000D01*
X41402000Y6818000D01*
X41148000Y6818000D01*
X41148000Y6838000D01*
X40173750Y6838000D01*
X40015000Y6679250D01*
X40015000Y6088691D01*
X40111673Y5855302D01*
X40252910Y5714064D01*
X40198559Y5679090D01*
X40053569Y5466890D01*
X40005090Y5227491D01*
X39963162Y5450317D01*
X39824090Y5666441D01*
X39755994Y5712969D01*
X39898327Y5855302D01*
X39995000Y6088691D01*
X39995000Y6679250D01*
X39836250Y6838000D01*
X38862000Y6838000D01*
X38862000Y6818000D01*
X38608000Y6818000D01*
X38608000Y6838000D01*
X37633750Y6838000D01*
X37475000Y6679250D01*
X37475000Y6088691D01*
X37571673Y5855302D01*
X37712910Y5714064D01*
X37658559Y5679090D01*
X37513569Y5466890D01*
X37462560Y5215000D01*
X37462560Y3715000D01*
X37506838Y3479683D01*
X37542026Y3425000D01*
X34109575Y3425000D01*
X34391961Y3847622D01*
X34505000Y4415907D01*
X34505000Y4474093D01*
X34391961Y5042378D01*
X34070054Y5524147D01*
X33905000Y5634432D01*
X33905000Y5647081D01*
X33837633Y5985756D01*
X33645790Y6272871D01*
X33645787Y6272873D01*
X32077352Y7841309D01*
X37475000Y7841309D01*
X37475000Y7250750D01*
X37633750Y7092000D01*
X38608000Y7092000D01*
X38608000Y8191250D01*
X38862000Y8191250D01*
X38862000Y7092000D01*
X39836250Y7092000D01*
X39995000Y7250750D01*
X39995000Y7841309D01*
X40015000Y7841309D01*
X40015000Y7250750D01*
X40173750Y7092000D01*
X41148000Y7092000D01*
X41148000Y8191250D01*
X41402000Y8191250D01*
X41402000Y7092000D01*
X42376250Y7092000D01*
X42535000Y7250750D01*
X42535000Y7841309D01*
X42438327Y8074698D01*
X42259699Y8253327D01*
X42026310Y8350000D01*
X41560750Y8350000D01*
X41402000Y8191250D01*
X41148000Y8191250D01*
X40989250Y8350000D01*
X40523690Y8350000D01*
X40290301Y8253327D01*
X40111673Y8074698D01*
X40015000Y7841309D01*
X39995000Y7841309D01*
X39898327Y8074698D01*
X39719699Y8253327D01*
X39486310Y8350000D01*
X39020750Y8350000D01*
X38862000Y8191250D01*
X38608000Y8191250D01*
X38449250Y8350000D01*
X37983690Y8350000D01*
X37750301Y8253327D01*
X37571673Y8074698D01*
X37475000Y7841309D01*
X32077352Y7841309D01*
X31037871Y8880790D01*
X30858175Y9000858D01*
X30750756Y9072633D01*
X30694565Y9083810D01*
X30412081Y9140001D01*
X30412076Y9140000D01*
X25117440Y9140000D01*
X25117440Y10155000D01*
X25073162Y10390317D01*
X24934090Y10606441D01*
X24721890Y10751431D01*
X24470000Y10802440D01*
X22470000Y10802440D01*
X22234683Y10758162D01*
X22018559Y10619090D01*
X21873569Y10406890D01*
X21822560Y10155000D01*
X21822560Y6355000D01*
X21866838Y6119683D01*
X22005910Y5903559D01*
X22218110Y5758569D01*
X22470000Y5707560D01*
X24470000Y5707560D01*
X24705317Y5751838D01*
X24921441Y5890910D01*
X25066431Y6103110D01*
X25117440Y6355000D01*
X25117440Y7370000D01*
X30045501Y7370000D01*
X31938467Y5477035D01*
X31750000Y5194974D01*
X31530054Y5524147D01*
X31048285Y5846054D01*
X30480000Y5959093D01*
X29911715Y5846054D01*
X29429946Y5524147D01*
X29402150Y5482548D01*
X29393162Y5530317D01*
X29254090Y5746441D01*
X29041890Y5891431D01*
X28790000Y5942440D01*
X27090000Y5942440D01*
X26854683Y5898162D01*
X26638559Y5759090D01*
X26493569Y5546890D01*
X26442560Y5295000D01*
X26442560Y4060000D01*
X19066579Y4060000D01*
X18477983Y4648597D01*
X18621441Y4740910D01*
X18766431Y4953110D01*
X18790102Y5070000D01*
X19289995Y5070000D01*
X19290000Y5069999D01*
X19572484Y5126190D01*
X19628675Y5137367D01*
X19915790Y5329210D01*
X20945787Y6359208D01*
X20945790Y6359210D01*
X21137633Y6646325D01*
X21154496Y6731099D01*
X21205001Y6985000D01*
X21205000Y6985005D01*
X21205000Y10794995D01*
X21205001Y10795000D01*
X21142079Y11111325D01*
X21137633Y11133675D01*
X20945790Y11420790D01*
X20945787Y11420792D01*
X19040790Y13325790D01*
X19001728Y13351890D01*
X18872853Y13438001D01*
X28651560Y13438001D01*
X28651560Y11373000D01*
X28695838Y11137683D01*
X28834910Y10921559D01*
X29047110Y10776569D01*
X29299000Y10725560D01*
X30899000Y10725560D01*
X31134317Y10769838D01*
X31350441Y10908910D01*
X31495431Y11121110D01*
X31525597Y11270074D01*
X31624302Y11122352D01*
X32089849Y10811283D01*
X32639000Y10702050D01*
X33188151Y10811283D01*
X33653698Y11122352D01*
X33909000Y11504438D01*
X34164302Y11122352D01*
X34629849Y10811283D01*
X35179000Y10702050D01*
X35728151Y10811283D01*
X36193698Y11122352D01*
X36449000Y11504438D01*
X36704302Y11122352D01*
X37169849Y10811283D01*
X37719000Y10702050D01*
X38268151Y10811283D01*
X38733698Y11122352D01*
X38989000Y11504438D01*
X39244302Y11122352D01*
X39709849Y10811283D01*
X40259000Y10702050D01*
X40808151Y10811283D01*
X41273698Y11122352D01*
X41529000Y11504438D01*
X41784302Y11122352D01*
X42249849Y10811283D01*
X42799000Y10702050D01*
X43348151Y10811283D01*
X43813698Y11122352D01*
X44066507Y11500707D01*
X44414104Y11068500D01*
X44907181Y10798633D01*
X44989961Y10781096D01*
X45212000Y10903085D01*
X45212000Y12446000D01*
X45466000Y12446000D01*
X45466000Y10903085D01*
X45688039Y10781096D01*
X45770819Y10798633D01*
X46263896Y11068500D01*
X46616166Y11506517D01*
X46774000Y12046000D01*
X46774000Y12446000D01*
X45466000Y12446000D01*
X45212000Y12446000D01*
X45192000Y12446000D01*
X45192000Y12700000D01*
X45212000Y12700000D01*
X45212000Y14242915D01*
X45466000Y14242915D01*
X45466000Y12700000D01*
X46774000Y12700000D01*
X46774000Y13100000D01*
X46616166Y13639483D01*
X46263896Y14077500D01*
X45770819Y14347367D01*
X45688039Y14364904D01*
X45466000Y14242915D01*
X45212000Y14242915D01*
X44989961Y14364904D01*
X44907181Y14347367D01*
X44414104Y14077500D01*
X44066507Y13645293D01*
X43813698Y14023648D01*
X43348151Y14334717D01*
X42799000Y14443950D01*
X42616025Y14407554D01*
X41185544Y15838036D01*
X42269031Y15838036D01*
X42269036Y15838035D01*
X42551520Y15894226D01*
X42607711Y15905403D01*
X42894826Y16097246D01*
X42894827Y16097247D01*
X45156025Y18358446D01*
X45339000Y18322050D01*
X45888151Y18431283D01*
X46353698Y18742352D01*
X46664767Y19207899D01*
X46774000Y19757050D01*
X46774000Y20628950D01*
X46664767Y21178101D01*
X46353698Y21643648D01*
X45888151Y21954717D01*
X45339000Y22063950D01*
X44789849Y21954717D01*
X44324302Y21643648D01*
X44069000Y21261562D01*
X43813698Y21643648D01*
X43684000Y21730310D01*
X43684000Y25126991D01*
X43684001Y25126996D01*
X43616634Y25465670D01*
X43549596Y25566000D01*
X43424790Y25752786D01*
X43424787Y25752788D01*
X40224998Y28952578D01*
X40224998Y30983172D01*
X40255001Y31134004D01*
X40255000Y31134009D01*
X40255000Y43931310D01*
X44355000Y43931310D01*
X44355000Y43465750D01*
X44513750Y43307000D01*
X45613000Y43307000D01*
X45613000Y44281250D01*
X45454250Y44440000D01*
X44863691Y44440000D01*
X44630302Y44343327D01*
X44451673Y44164699D01*
X44355000Y43931310D01*
X40255000Y43931310D01*
X40255000Y44083420D01*
X44202243Y48030664D01*
X60783542Y48030664D01*
X60809161Y47420540D01*
X60993357Y46975852D01*
X61249841Y46889446D01*
X62150395Y47790000D01*
X62509605Y47790000D01*
X63410159Y46889446D01*
X63666643Y46975852D01*
X63876458Y47549336D01*
X63850839Y48159460D01*
X63666643Y48604148D01*
X63410159Y48690554D01*
X62509605Y47790000D01*
X62150395Y47790000D01*
X61249841Y48690554D01*
X60993357Y48604148D01*
X60783542Y48030664D01*
X44202243Y48030664D01*
X46086579Y49915000D01*
X46819146Y49915000D01*
X46856838Y49714683D01*
X46995910Y49498559D01*
X47208110Y49353569D01*
X47460000Y49302560D01*
X50760000Y49302560D01*
X50995317Y49346838D01*
X51211441Y49485910D01*
X51356431Y49698110D01*
X51407440Y49950000D01*
X51407440Y51650000D01*
X51363162Y51885317D01*
X51245892Y52067560D01*
X51570000Y52067560D01*
X51805317Y52111838D01*
X52021441Y52250910D01*
X52069134Y52320711D01*
X52105910Y52263559D01*
X52318110Y52118569D01*
X52488099Y52084145D01*
X52363569Y51901890D01*
X52312560Y51650000D01*
X52312560Y49950000D01*
X52356838Y49714683D01*
X52495910Y49498559D01*
X52708110Y49353569D01*
X52960000Y49302560D01*
X56260000Y49302560D01*
X56495317Y49346838D01*
X56585703Y49405000D01*
X61044532Y49405000D01*
X61459357Y48989449D01*
X61468372Y48985706D01*
X61429446Y48870159D01*
X62330000Y47969605D01*
X63230554Y48870159D01*
X63191793Y48985214D01*
X63198371Y48987932D01*
X63630551Y49419357D01*
X63864733Y49983330D01*
X63865265Y50593991D01*
X63632068Y51158371D01*
X63215000Y51576169D01*
X63215000Y52108015D01*
X63235317Y52111838D01*
X63451441Y52250910D01*
X63499134Y52320711D01*
X63535910Y52263559D01*
X63535910Y52263559D01*
G37*
X63535910Y52263559D02*
X63748110Y52118569D01*
X63885000Y52090848D01*
X63885000Y43157038D01*
X63784683Y43138162D01*
X63568559Y42999090D01*
X63520866Y42929289D01*
X63484090Y42986441D01*
X63271890Y43131431D01*
X63155000Y43155102D01*
X63155000Y43970011D01*
X63198371Y43987932D01*
X63630551Y44419357D01*
X63864733Y44983330D01*
X63865265Y45593991D01*
X63632068Y46158371D01*
X63200643Y46590551D01*
X63191628Y46594294D01*
X63230554Y46709841D01*
X62330000Y47610395D01*
X61429446Y46709841D01*
X61468207Y46594786D01*
X61461629Y46592068D01*
X61043831Y46175000D01*
X57117440Y46175000D01*
X57117440Y46570000D01*
X57073162Y46805317D01*
X56934090Y47021441D01*
X56721890Y47166431D01*
X56470000Y47217440D01*
X53170000Y47217440D01*
X52934683Y47173162D01*
X52718559Y47034090D01*
X52573569Y46821890D01*
X52522560Y46570000D01*
X52522560Y44870000D01*
X52566838Y44634683D01*
X52684108Y44452440D01*
X52570000Y44452440D01*
X52334683Y44408162D01*
X52118559Y44269090D01*
X52070866Y44199289D01*
X52034090Y44256441D01*
X51821890Y44401431D01*
X51570000Y44452440D01*
X51453234Y44452440D01*
X51566431Y44618110D01*
X51617440Y44870000D01*
X51617440Y46570000D01*
X51573162Y46805317D01*
X51434090Y47021441D01*
X51221890Y47166431D01*
X50970000Y47217440D01*
X47670000Y47217440D01*
X47434683Y47173162D01*
X47218559Y47034090D01*
X47073569Y46821890D01*
X47022560Y46570000D01*
X47022560Y44870000D01*
X47066838Y44634683D01*
X47205910Y44418559D01*
X47237402Y44397042D01*
X47038559Y44269090D01*
X46992031Y44200994D01*
X46849698Y44343327D01*
X46616309Y44440000D01*
X46025750Y44440000D01*
X45867000Y44281250D01*
X45867000Y43307000D01*
X45887000Y43307000D01*
X45887000Y43053000D01*
X45867000Y43053000D01*
X45867000Y43033000D01*
X45613000Y43033000D01*
X45613000Y43053000D01*
X44513750Y43053000D01*
X44355000Y42894250D01*
X44355000Y42428690D01*
X44451673Y42195301D01*
X44630302Y42016673D01*
X44863691Y41920000D01*
X45454250Y41920000D01*
X45612998Y42078748D01*
X45612998Y41920000D01*
X45618421Y41920000D01*
X41888870Y38190450D01*
X41697027Y37903335D01*
X41697027Y37903334D01*
X41629659Y37564660D01*
X41629660Y37564655D01*
X41629660Y32073575D01*
X41341199Y31785616D01*
X41129901Y31276754D01*
X41129420Y30725767D01*
X41339829Y30216537D01*
X41729096Y29826591D01*
X42237958Y29615293D01*
X42788945Y29614812D01*
X43298175Y29825221D01*
X43565000Y30091581D01*
X43565000Y27940005D01*
X43564999Y27940000D01*
X43601394Y27757035D01*
X43632367Y27601325D01*
X43773786Y27389675D01*
X43824210Y27314210D01*
X50818421Y20320000D01*
X49509208Y19010788D01*
X49317365Y18723673D01*
X49317365Y18723672D01*
X49249997Y18384998D01*
X49249998Y18384993D01*
X49249998Y17156003D01*
X49249997Y17155998D01*
X49297755Y16915910D01*
X49317365Y16817323D01*
X49437154Y16638045D01*
X49509208Y16530208D01*
X52715204Y13324213D01*
X52715206Y13324210D01*
X53002321Y13132367D01*
X53058512Y13121190D01*
X53340996Y13064999D01*
X53341001Y13065000D01*
X54993421Y13065000D01*
X45353420Y3425000D01*
X42470392Y3425000D01*
X42496431Y3463110D01*
X42547440Y3715000D01*
X42547440Y5215000D01*
X42503162Y5450317D01*
X42364090Y5666441D01*
X42295994Y5712969D01*
X42438327Y5855302D01*
X42535000Y6088691D01*
X42535000Y6679250D01*
X42376250Y6838000D01*
X41402000Y6838000D01*
X41402000Y6818000D01*
X41148000Y6818000D01*
X41148000Y6838000D01*
X40173750Y6838000D01*
X40015000Y6679250D01*
X40015000Y6088691D01*
X40111673Y5855302D01*
X40252910Y5714064D01*
X40198559Y5679090D01*
X40053569Y5466890D01*
X40005090Y5227491D01*
X39963162Y5450317D01*
X39824090Y5666441D01*
X39755994Y5712969D01*
X39898327Y5855302D01*
X39995000Y6088691D01*
X39995000Y6679250D01*
X39836250Y6838000D01*
X38862000Y6838000D01*
X38862000Y6818000D01*
X38608000Y6818000D01*
X38608000Y6838000D01*
X37633750Y6838000D01*
X37475000Y6679250D01*
X37475000Y6088691D01*
X37571673Y5855302D01*
X37712910Y5714064D01*
X37658559Y5679090D01*
X37513569Y5466890D01*
X37462560Y5215000D01*
X37462560Y3715000D01*
X37506838Y3479683D01*
X37542026Y3425000D01*
X34109575Y3425000D01*
X34391961Y3847622D01*
X34505000Y4415907D01*
X34505000Y4474093D01*
X34391961Y5042378D01*
X34070054Y5524147D01*
X33905000Y5634432D01*
X33905000Y5647081D01*
X33837633Y5985756D01*
X33645790Y6272871D01*
X33645787Y6272873D01*
X32077352Y7841309D01*
X37475000Y7841309D01*
X37475000Y7250750D01*
X37633750Y7092000D01*
X38608000Y7092000D01*
X38608000Y8191250D01*
X38862000Y8191250D01*
X38862000Y7092000D01*
X39836250Y7092000D01*
X39995000Y7250750D01*
X39995000Y7841309D01*
X40015000Y7841309D01*
X40015000Y7250750D01*
X40173750Y7092000D01*
X41148000Y7092000D01*
X41148000Y8191250D01*
X41402000Y8191250D01*
X41402000Y7092000D01*
X42376250Y7092000D01*
X42535000Y7250750D01*
X42535000Y7841309D01*
X42438327Y8074698D01*
X42259699Y8253327D01*
X42026310Y8350000D01*
X41560750Y8350000D01*
X41402000Y8191250D01*
X41148000Y8191250D01*
X40989250Y8350000D01*
X40523690Y8350000D01*
X40290301Y8253327D01*
X40111673Y8074698D01*
X40015000Y7841309D01*
X39995000Y7841309D01*
X39898327Y8074698D01*
X39719699Y8253327D01*
X39486310Y8350000D01*
X39020750Y8350000D01*
X38862000Y8191250D01*
X38608000Y8191250D01*
X38449250Y8350000D01*
X37983690Y8350000D01*
X37750301Y8253327D01*
X37571673Y8074698D01*
X37475000Y7841309D01*
X32077352Y7841309D01*
X31037871Y8880790D01*
X30858175Y9000858D01*
X30750756Y9072633D01*
X30694565Y9083810D01*
X30412081Y9140001D01*
X30412076Y9140000D01*
X25117440Y9140000D01*
X25117440Y10155000D01*
X25073162Y10390317D01*
X24934090Y10606441D01*
X24721890Y10751431D01*
X24470000Y10802440D01*
X22470000Y10802440D01*
X22234683Y10758162D01*
X22018559Y10619090D01*
X21873569Y10406890D01*
X21822560Y10155000D01*
X21822560Y6355000D01*
X21866838Y6119683D01*
X22005910Y5903559D01*
X22218110Y5758569D01*
X22470000Y5707560D01*
X24470000Y5707560D01*
X24705317Y5751838D01*
X24921441Y5890910D01*
X25066431Y6103110D01*
X25117440Y6355000D01*
X25117440Y7370000D01*
X30045501Y7370000D01*
X31938467Y5477035D01*
X31750000Y5194974D01*
X31530054Y5524147D01*
X31048285Y5846054D01*
X30480000Y5959093D01*
X29911715Y5846054D01*
X29429946Y5524147D01*
X29402150Y5482548D01*
X29393162Y5530317D01*
X29254090Y5746441D01*
X29041890Y5891431D01*
X28790000Y5942440D01*
X27090000Y5942440D01*
X26854683Y5898162D01*
X26638559Y5759090D01*
X26493569Y5546890D01*
X26442560Y5295000D01*
X26442560Y4060000D01*
X19066579Y4060000D01*
X18477983Y4648597D01*
X18621441Y4740910D01*
X18766431Y4953110D01*
X18790102Y5070000D01*
X19289995Y5070000D01*
X19290000Y5069999D01*
X19572484Y5126190D01*
X19628675Y5137367D01*
X19915790Y5329210D01*
X20945787Y6359208D01*
X20945790Y6359210D01*
X21137633Y6646325D01*
X21154496Y6731099D01*
X21205001Y6985000D01*
X21205000Y6985005D01*
X21205000Y10794995D01*
X21205001Y10795000D01*
X21142079Y11111325D01*
X21137633Y11133675D01*
X20945790Y11420790D01*
X20945787Y11420792D01*
X19040790Y13325790D01*
X19001728Y13351890D01*
X18872853Y13438001D01*
X28651560Y13438001D01*
X28651560Y11373000D01*
X28695838Y11137683D01*
X28834910Y10921559D01*
X29047110Y10776569D01*
X29299000Y10725560D01*
X30899000Y10725560D01*
X31134317Y10769838D01*
X31350441Y10908910D01*
X31495431Y11121110D01*
X31525597Y11270074D01*
X31624302Y11122352D01*
X32089849Y10811283D01*
X32639000Y10702050D01*
X33188151Y10811283D01*
X33653698Y11122352D01*
X33909000Y11504438D01*
X34164302Y11122352D01*
X34629849Y10811283D01*
X35179000Y10702050D01*
X35728151Y10811283D01*
X36193698Y11122352D01*
X36449000Y11504438D01*
X36704302Y11122352D01*
X37169849Y10811283D01*
X37719000Y10702050D01*
X38268151Y10811283D01*
X38733698Y11122352D01*
X38989000Y11504438D01*
X39244302Y11122352D01*
X39709849Y10811283D01*
X40259000Y10702050D01*
X40808151Y10811283D01*
X41273698Y11122352D01*
X41529000Y11504438D01*
X41784302Y11122352D01*
X42249849Y10811283D01*
X42799000Y10702050D01*
X43348151Y10811283D01*
X43813698Y11122352D01*
X44066507Y11500707D01*
X44414104Y11068500D01*
X44907181Y10798633D01*
X44989961Y10781096D01*
X45212000Y10903085D01*
X45212000Y12446000D01*
X45466000Y12446000D01*
X45466000Y10903085D01*
X45688039Y10781096D01*
X45770819Y10798633D01*
X46263896Y11068500D01*
X46616166Y11506517D01*
X46774000Y12046000D01*
X46774000Y12446000D01*
X45466000Y12446000D01*
X45212000Y12446000D01*
X45192000Y12446000D01*
X45192000Y12700000D01*
X45212000Y12700000D01*
X45212000Y14242915D01*
X45466000Y14242915D01*
X45466000Y12700000D01*
X46774000Y12700000D01*
X46774000Y13100000D01*
X46616166Y13639483D01*
X46263896Y14077500D01*
X45770819Y14347367D01*
X45688039Y14364904D01*
X45466000Y14242915D01*
X45212000Y14242915D01*
X44989961Y14364904D01*
X44907181Y14347367D01*
X44414104Y14077500D01*
X44066507Y13645293D01*
X43813698Y14023648D01*
X43348151Y14334717D01*
X42799000Y14443950D01*
X42616025Y14407554D01*
X41185544Y15838036D01*
X42269031Y15838036D01*
X42269036Y15838035D01*
X42551520Y15894226D01*
X42607711Y15905403D01*
X42894826Y16097246D01*
X42894827Y16097247D01*
X45156025Y18358446D01*
X45339000Y18322050D01*
X45888151Y18431283D01*
X46353698Y18742352D01*
X46664767Y19207899D01*
X46774000Y19757050D01*
X46774000Y20628950D01*
X46664767Y21178101D01*
X46353698Y21643648D01*
X45888151Y21954717D01*
X45339000Y22063950D01*
X44789849Y21954717D01*
X44324302Y21643648D01*
X44069000Y21261562D01*
X43813698Y21643648D01*
X43684000Y21730310D01*
X43684000Y25126991D01*
X43684001Y25126996D01*
X43616634Y25465670D01*
X43549596Y25566000D01*
X43424790Y25752786D01*
X43424787Y25752788D01*
X40224998Y28952578D01*
X40224998Y30983172D01*
X40255001Y31134004D01*
X40255000Y31134009D01*
X40255000Y43931310D01*
X44355000Y43931310D01*
X44355000Y43465750D01*
X44513750Y43307000D01*
X45613000Y43307000D01*
X45613000Y44281250D01*
X45454250Y44440000D01*
X44863691Y44440000D01*
X44630302Y44343327D01*
X44451673Y44164699D01*
X44355000Y43931310D01*
X40255000Y43931310D01*
X40255000Y44083420D01*
X44202243Y48030664D01*
X60783542Y48030664D01*
X60809161Y47420540D01*
X60993357Y46975852D01*
X61249841Y46889446D01*
X62150395Y47790000D01*
X62509605Y47790000D01*
X63410159Y46889446D01*
X63666643Y46975852D01*
X63876458Y47549336D01*
X63850839Y48159460D01*
X63666643Y48604148D01*
X63410159Y48690554D01*
X62509605Y47790000D01*
X62150395Y47790000D01*
X61249841Y48690554D01*
X60993357Y48604148D01*
X60783542Y48030664D01*
X44202243Y48030664D01*
X46086579Y49915000D01*
X46819146Y49915000D01*
X46856838Y49714683D01*
X46995910Y49498559D01*
X47208110Y49353569D01*
X47460000Y49302560D01*
X50760000Y49302560D01*
X50995317Y49346838D01*
X51211441Y49485910D01*
X51356431Y49698110D01*
X51407440Y49950000D01*
X51407440Y51650000D01*
X51363162Y51885317D01*
X51245892Y52067560D01*
X51570000Y52067560D01*
X51805317Y52111838D01*
X52021441Y52250910D01*
X52069134Y52320711D01*
X52105910Y52263559D01*
X52318110Y52118569D01*
X52488099Y52084145D01*
X52363569Y51901890D01*
X52312560Y51650000D01*
X52312560Y49950000D01*
X52356838Y49714683D01*
X52495910Y49498559D01*
X52708110Y49353569D01*
X52960000Y49302560D01*
X56260000Y49302560D01*
X56495317Y49346838D01*
X56585703Y49405000D01*
X61044532Y49405000D01*
X61459357Y48989449D01*
X61468372Y48985706D01*
X61429446Y48870159D01*
X62330000Y47969605D01*
X63230554Y48870159D01*
X63191793Y48985214D01*
X63198371Y48987932D01*
X63630551Y49419357D01*
X63864733Y49983330D01*
X63865265Y50593991D01*
X63632068Y51158371D01*
X63215000Y51576169D01*
X63215000Y52108015D01*
X63235317Y52111838D01*
X63451441Y52250910D01*
X63499134Y52320711D01*
X63535910Y52263559D01*
G36*
X75959357Y48989449D02*
X76523330Y48755267D01*
X77133991Y48754735D01*
X77698371Y48987932D01*
X78030000Y49318982D01*
X78030000Y46150181D01*
X77910159Y46190554D01*
X77009605Y45290000D01*
X77910159Y44389446D01*
X78030000Y44429819D01*
X78030000Y18161852D01*
X77924090Y18326441D01*
X77711890Y18471431D01*
X77460000Y18522440D01*
X76689139Y18522440D01*
X75535790Y19675790D01*
X75414175Y19757050D01*
X75248675Y19867633D01*
X75192484Y19878810D01*
X74910000Y19935001D01*
X74909995Y19935000D01*
X74849432Y19935000D01*
X74739147Y20100054D01*
X74257378Y20421961D01*
X73689093Y20535000D01*
X73630907Y20535000D01*
X73062622Y20421961D01*
X72580853Y20100054D01*
X72258946Y19618285D01*
X72258293Y19615000D01*
X66094975Y19615000D01*
X65931890Y19726431D01*
X65680000Y19777440D01*
X63780000Y19777440D01*
X63544683Y19733162D01*
X63328559Y19594090D01*
X63327440Y19592452D01*
X63327440Y20080000D01*
X63283162Y20315317D01*
X63144090Y20531441D01*
X62931890Y20676431D01*
X62680000Y20727440D01*
X61934140Y20727440D01*
X61735790Y20925790D01*
X61612753Y21008000D01*
X61448675Y21117633D01*
X61392484Y21128810D01*
X61110000Y21185001D01*
X61109995Y21185000D01*
X59667038Y21185000D01*
X59648162Y21285317D01*
X59509090Y21501441D01*
X59296890Y21646431D01*
X59045000Y21697440D01*
X57795000Y21697440D01*
X57559683Y21653162D01*
X57343559Y21514090D01*
X57198569Y21301890D01*
X57174898Y21185000D01*
X52456579Y21185000D01*
X45335000Y28306580D01*
X45335000Y35193420D01*
X47356579Y37215000D01*
X60834995Y37215000D01*
X60835000Y37214999D01*
X61117484Y37271190D01*
X61173675Y37282367D01*
X61421137Y37447715D01*
X60418422Y36445000D01*
X57110854Y36445000D01*
X57073162Y36645317D01*
X56934090Y36861441D01*
X56721890Y37006431D01*
X56470000Y37057440D01*
X53170000Y37057440D01*
X52934683Y37013162D01*
X52718559Y36874090D01*
X52573569Y36661890D01*
X52522560Y36410000D01*
X52522560Y34710000D01*
X52566838Y34474683D01*
X52684108Y34292440D01*
X52570000Y34292440D01*
X52334683Y34248162D01*
X52118559Y34109090D01*
X52070866Y34039289D01*
X52034090Y34096441D01*
X51821890Y34241431D01*
X51570000Y34292440D01*
X51453234Y34292440D01*
X51566431Y34458110D01*
X51617440Y34710000D01*
X51617440Y36410000D01*
X51573162Y36645317D01*
X51434090Y36861441D01*
X51221890Y37006431D01*
X50970000Y37057440D01*
X47670000Y37057440D01*
X47434683Y37013162D01*
X47218559Y36874090D01*
X47073569Y36661890D01*
X47022560Y36410000D01*
X47022560Y34710000D01*
X47066838Y34474683D01*
X47205910Y34258559D01*
X47418110Y34113569D01*
X47670000Y34062560D01*
X48435000Y34062560D01*
X48435000Y33432892D01*
X47387045Y32384938D01*
X46979456Y32385294D01*
X46470226Y32174885D01*
X46080280Y31785618D01*
X45868982Y31276756D01*
X45868501Y30725769D01*
X46078910Y30216539D01*
X46468177Y29826593D01*
X46977039Y29615295D01*
X47528026Y29614814D01*
X48037256Y29825223D01*
X48427202Y30214490D01*
X48638500Y30723352D01*
X48638858Y31133591D01*
X49544406Y32039139D01*
X49605910Y31943559D01*
X49818110Y31798569D01*
X49935000Y31774898D01*
X49935000Y31727038D01*
X49834683Y31708162D01*
X49618559Y31569090D01*
X49473569Y31356890D01*
X49422560Y31105000D01*
X49422560Y29855000D01*
X49466838Y29619683D01*
X49605910Y29403559D01*
X49818110Y29258569D01*
X50070000Y29207560D01*
X51570000Y29207560D01*
X51805317Y29251838D01*
X52021441Y29390910D01*
X52067969Y29459006D01*
X52210302Y29316673D01*
X52443691Y29220000D01*
X53034250Y29220000D01*
X53193000Y29378750D01*
X53193000Y30353000D01*
X53447000Y30353000D01*
X53447000Y29378750D01*
X53605750Y29220000D01*
X54196309Y29220000D01*
X54429698Y29316673D01*
X54608327Y29495301D01*
X54705000Y29728690D01*
X54705000Y30194250D01*
X54546250Y30353000D01*
X53447000Y30353000D01*
X53193000Y30353000D01*
X53173000Y30353000D01*
X53173000Y30607000D01*
X53193000Y30607000D01*
X53193000Y31581250D01*
X53447000Y31581250D01*
X53447000Y30607000D01*
X54546250Y30607000D01*
X54705000Y30765750D01*
X54705000Y31231310D01*
X54608327Y31464699D01*
X54429698Y31643327D01*
X54196309Y31740000D01*
X53605750Y31740000D01*
X53447000Y31581250D01*
X53193000Y31581250D01*
X53034250Y31740000D01*
X52443691Y31740000D01*
X52210302Y31643327D01*
X52069064Y31502090D01*
X52034090Y31556441D01*
X51821890Y31701431D01*
X51705000Y31725102D01*
X51705000Y31772962D01*
X51805317Y31791838D01*
X52021441Y31930910D01*
X52069134Y32000711D01*
X52105910Y31943559D01*
X52318110Y31798569D01*
X52570000Y31747560D01*
X54070000Y31747560D01*
X54305317Y31791838D01*
X54521441Y31930910D01*
X54666431Y32143110D01*
X54667088Y32146355D01*
X54892484Y32191190D01*
X54948675Y32202367D01*
X55235790Y32394210D01*
X55445787Y32604208D01*
X55445790Y32604210D01*
X55637633Y32891325D01*
X55663228Y33020000D01*
X55705001Y33230000D01*
X55705000Y33230005D01*
X55705000Y34062560D01*
X56470000Y34062560D01*
X56705317Y34106838D01*
X56921441Y34245910D01*
X57066431Y34458110D01*
X57110352Y34675000D01*
X60784997Y34675000D01*
X60785002Y34674999D01*
X61067486Y34731190D01*
X61123677Y34742367D01*
X61410792Y34934210D01*
X67855188Y41378607D01*
X68018980Y40982200D01*
X68619041Y40381091D01*
X69403459Y40055372D01*
X70252815Y40054630D01*
X71037800Y40378980D01*
X71638909Y40979041D01*
X71964628Y41763459D01*
X71965370Y42612815D01*
X71641020Y43397800D01*
X71040959Y43998909D01*
X70532979Y44209841D01*
X75929446Y44209841D01*
X76015852Y43953357D01*
X76589336Y43743542D01*
X77199460Y43769161D01*
X77644148Y43953357D01*
X77730554Y44209841D01*
X76830000Y45110395D01*
X75929446Y44209841D01*
X70532979Y44209841D01*
X70256541Y44324628D01*
X70182271Y44324693D01*
X71388241Y45530664D01*
X75283542Y45530664D01*
X75309161Y44920540D01*
X75493357Y44475852D01*
X75749841Y44389446D01*
X76650395Y45290000D01*
X75749841Y46190554D01*
X75493357Y46104148D01*
X75283542Y45530664D01*
X71388241Y45530664D01*
X72227736Y46370159D01*
X75929446Y46370159D01*
X76830000Y45469605D01*
X77730554Y46370159D01*
X77644148Y46626643D01*
X77070664Y46836458D01*
X76460540Y46810839D01*
X76015852Y46626643D01*
X75929446Y46370159D01*
X72227736Y46370159D01*
X75262577Y49405000D01*
X75544532Y49405000D01*
X75959357Y48989449D01*
X75959357Y48989449D01*
G37*
X75959357Y48989449D02*
X76523330Y48755267D01*
X77133991Y48754735D01*
X77698371Y48987932D01*
X78030000Y49318982D01*
X78030000Y46150181D01*
X77910159Y46190554D01*
X77009605Y45290000D01*
X77910159Y44389446D01*
X78030000Y44429819D01*
X78030000Y18161852D01*
X77924090Y18326441D01*
X77711890Y18471431D01*
X77460000Y18522440D01*
X76689139Y18522440D01*
X75535790Y19675790D01*
X75414175Y19757050D01*
X75248675Y19867633D01*
X75192484Y19878810D01*
X74910000Y19935001D01*
X74909995Y19935000D01*
X74849432Y19935000D01*
X74739147Y20100054D01*
X74257378Y20421961D01*
X73689093Y20535000D01*
X73630907Y20535000D01*
X73062622Y20421961D01*
X72580853Y20100054D01*
X72258946Y19618285D01*
X72258293Y19615000D01*
X66094975Y19615000D01*
X65931890Y19726431D01*
X65680000Y19777440D01*
X63780000Y19777440D01*
X63544683Y19733162D01*
X63328559Y19594090D01*
X63327440Y19592452D01*
X63327440Y20080000D01*
X63283162Y20315317D01*
X63144090Y20531441D01*
X62931890Y20676431D01*
X62680000Y20727440D01*
X61934140Y20727440D01*
X61735790Y20925790D01*
X61612753Y21008000D01*
X61448675Y21117633D01*
X61392484Y21128810D01*
X61110000Y21185001D01*
X61109995Y21185000D01*
X59667038Y21185000D01*
X59648162Y21285317D01*
X59509090Y21501441D01*
X59296890Y21646431D01*
X59045000Y21697440D01*
X57795000Y21697440D01*
X57559683Y21653162D01*
X57343559Y21514090D01*
X57198569Y21301890D01*
X57174898Y21185000D01*
X52456579Y21185000D01*
X45335000Y28306580D01*
X45335000Y35193420D01*
X47356579Y37215000D01*
X60834995Y37215000D01*
X60835000Y37214999D01*
X61117484Y37271190D01*
X61173675Y37282367D01*
X61421137Y37447715D01*
X60418422Y36445000D01*
X57110854Y36445000D01*
X57073162Y36645317D01*
X56934090Y36861441D01*
X56721890Y37006431D01*
X56470000Y37057440D01*
X53170000Y37057440D01*
X52934683Y37013162D01*
X52718559Y36874090D01*
X52573569Y36661890D01*
X52522560Y36410000D01*
X52522560Y34710000D01*
X52566838Y34474683D01*
X52684108Y34292440D01*
X52570000Y34292440D01*
X52334683Y34248162D01*
X52118559Y34109090D01*
X52070866Y34039289D01*
X52034090Y34096441D01*
X51821890Y34241431D01*
X51570000Y34292440D01*
X51453234Y34292440D01*
X51566431Y34458110D01*
X51617440Y34710000D01*
X51617440Y36410000D01*
X51573162Y36645317D01*
X51434090Y36861441D01*
X51221890Y37006431D01*
X50970000Y37057440D01*
X47670000Y37057440D01*
X47434683Y37013162D01*
X47218559Y36874090D01*
X47073569Y36661890D01*
X47022560Y36410000D01*
X47022560Y34710000D01*
X47066838Y34474683D01*
X47205910Y34258559D01*
X47418110Y34113569D01*
X47670000Y34062560D01*
X48435000Y34062560D01*
X48435000Y33432892D01*
X47387045Y32384938D01*
X46979456Y32385294D01*
X46470226Y32174885D01*
X46080280Y31785618D01*
X45868982Y31276756D01*
X45868501Y30725769D01*
X46078910Y30216539D01*
X46468177Y29826593D01*
X46977039Y29615295D01*
X47528026Y29614814D01*
X48037256Y29825223D01*
X48427202Y30214490D01*
X48638500Y30723352D01*
X48638858Y31133591D01*
X49544406Y32039139D01*
X49605910Y31943559D01*
X49818110Y31798569D01*
X49935000Y31774898D01*
X49935000Y31727038D01*
X49834683Y31708162D01*
X49618559Y31569090D01*
X49473569Y31356890D01*
X49422560Y31105000D01*
X49422560Y29855000D01*
X49466838Y29619683D01*
X49605910Y29403559D01*
X49818110Y29258569D01*
X50070000Y29207560D01*
X51570000Y29207560D01*
X51805317Y29251838D01*
X52021441Y29390910D01*
X52067969Y29459006D01*
X52210302Y29316673D01*
X52443691Y29220000D01*
X53034250Y29220000D01*
X53193000Y29378750D01*
X53193000Y30353000D01*
X53447000Y30353000D01*
X53447000Y29378750D01*
X53605750Y29220000D01*
X54196309Y29220000D01*
X54429698Y29316673D01*
X54608327Y29495301D01*
X54705000Y29728690D01*
X54705000Y30194250D01*
X54546250Y30353000D01*
X53447000Y30353000D01*
X53193000Y30353000D01*
X53173000Y30353000D01*
X53173000Y30607000D01*
X53193000Y30607000D01*
X53193000Y31581250D01*
X53447000Y31581250D01*
X53447000Y30607000D01*
X54546250Y30607000D01*
X54705000Y30765750D01*
X54705000Y31231310D01*
X54608327Y31464699D01*
X54429698Y31643327D01*
X54196309Y31740000D01*
X53605750Y31740000D01*
X53447000Y31581250D01*
X53193000Y31581250D01*
X53034250Y31740000D01*
X52443691Y31740000D01*
X52210302Y31643327D01*
X52069064Y31502090D01*
X52034090Y31556441D01*
X51821890Y31701431D01*
X51705000Y31725102D01*
X51705000Y31772962D01*
X51805317Y31791838D01*
X52021441Y31930910D01*
X52069134Y32000711D01*
X52105910Y31943559D01*
X52318110Y31798569D01*
X52570000Y31747560D01*
X54070000Y31747560D01*
X54305317Y31791838D01*
X54521441Y31930910D01*
X54666431Y32143110D01*
X54667088Y32146355D01*
X54892484Y32191190D01*
X54948675Y32202367D01*
X55235790Y32394210D01*
X55445787Y32604208D01*
X55445790Y32604210D01*
X55637633Y32891325D01*
X55663228Y33020000D01*
X55705001Y33230000D01*
X55705000Y33230005D01*
X55705000Y34062560D01*
X56470000Y34062560D01*
X56705317Y34106838D01*
X56921441Y34245910D01*
X57066431Y34458110D01*
X57110352Y34675000D01*
X60784997Y34675000D01*
X60785002Y34674999D01*
X61067486Y34731190D01*
X61123677Y34742367D01*
X61410792Y34934210D01*
X67855188Y41378607D01*
X68018980Y40982200D01*
X68619041Y40381091D01*
X69403459Y40055372D01*
X70252815Y40054630D01*
X71037800Y40378980D01*
X71638909Y40979041D01*
X71964628Y41763459D01*
X71965370Y42612815D01*
X71641020Y43397800D01*
X71040959Y43998909D01*
X70532979Y44209841D01*
X75929446Y44209841D01*
X76015852Y43953357D01*
X76589336Y43743542D01*
X77199460Y43769161D01*
X77644148Y43953357D01*
X77730554Y44209841D01*
X76830000Y45110395D01*
X75929446Y44209841D01*
X70532979Y44209841D01*
X70256541Y44324628D01*
X70182271Y44324693D01*
X71388241Y45530664D01*
X75283542Y45530664D01*
X75309161Y44920540D01*
X75493357Y44475852D01*
X75749841Y44389446D01*
X76650395Y45290000D01*
X75749841Y46190554D01*
X75493357Y46104148D01*
X75283542Y45530664D01*
X71388241Y45530664D01*
X72227736Y46370159D01*
X75929446Y46370159D01*
X76830000Y45469605D01*
X77730554Y46370159D01*
X77644148Y46626643D01*
X77070664Y46836458D01*
X76460540Y46810839D01*
X76015852Y46626643D01*
X75929446Y46370159D01*
X72227736Y46370159D01*
X75262577Y49405000D01*
X75544532Y49405000D01*
X75959357Y48989449D01*
G36*
X63865000Y54587038D02*
X63764683Y54568162D01*
X63548559Y54429090D01*
X63500866Y54359289D01*
X63464090Y54416441D01*
X63251890Y54561431D01*
X63000000Y54612440D01*
X61500000Y54612440D01*
X61264683Y54568162D01*
X61048559Y54429090D01*
X60903569Y54216890D01*
X60852560Y53965000D01*
X60852560Y52715000D01*
X60896838Y52479683D01*
X61035910Y52263559D01*
X61248110Y52118569D01*
X61445000Y52078698D01*
X61445000Y51575468D01*
X61043831Y51175000D01*
X56907440Y51175000D01*
X56907440Y51650000D01*
X56863162Y51885317D01*
X56724090Y52101441D01*
X56511890Y52246431D01*
X56260000Y52297440D01*
X55470646Y52297440D01*
X55437158Y52465790D01*
X55427633Y52513675D01*
X55235790Y52800790D01*
X55235787Y52800792D01*
X54717440Y53319139D01*
X54717440Y53965000D01*
X54673162Y54200317D01*
X54534090Y54416441D01*
X54321890Y54561431D01*
X54070000Y54612440D01*
X52570000Y54612440D01*
X52334683Y54568162D01*
X52118559Y54429090D01*
X52070866Y54359289D01*
X52034090Y54416441D01*
X51821890Y54561431D01*
X51570000Y54612440D01*
X50070000Y54612440D01*
X49834683Y54568162D01*
X49618559Y54429090D01*
X49529667Y54298992D01*
X49454090Y54416441D01*
X49241890Y54561431D01*
X48990000Y54612440D01*
X47490000Y54612440D01*
X47254683Y54568162D01*
X47038559Y54429090D01*
X46992031Y54360994D01*
X46849698Y54503327D01*
X46616309Y54600000D01*
X46025750Y54600000D01*
X45867000Y54441250D01*
X45867000Y53467000D01*
X45887000Y53467000D01*
X45887000Y53213000D01*
X45867000Y53213000D01*
X45867000Y52238750D01*
X46025750Y52080000D01*
X46616309Y52080000D01*
X46849698Y52176673D01*
X46990936Y52317910D01*
X47025910Y52263559D01*
X47130152Y52192333D01*
X47008559Y52114090D01*
X46863569Y51901890D01*
X46819648Y51685000D01*
X45720005Y51685000D01*
X45720000Y51685001D01*
X45381325Y51617633D01*
X45094210Y51425790D01*
X45094208Y51425787D01*
X38744210Y45075790D01*
X38552367Y44788675D01*
X38552367Y44788674D01*
X38484999Y44450000D01*
X38485000Y44449995D01*
X38485000Y31254834D01*
X38454997Y31104002D01*
X38454998Y31103997D01*
X38454998Y28586003D01*
X38454997Y28585998D01*
X38487428Y28422961D01*
X38522365Y28247323D01*
X38714208Y27960208D01*
X41914000Y24760417D01*
X41914000Y21730310D01*
X41784302Y21643648D01*
X41529000Y21261562D01*
X41273698Y21643648D01*
X40808151Y21954717D01*
X40259000Y22063950D01*
X39709849Y21954717D01*
X39244302Y21643648D01*
X38989000Y21261562D01*
X38733698Y21643648D01*
X38268151Y21954717D01*
X37719000Y22063950D01*
X37169849Y21954717D01*
X36704302Y21643648D01*
X36449000Y21261562D01*
X36193698Y21643648D01*
X35728151Y21954717D01*
X35179000Y22063950D01*
X34629849Y21954717D01*
X34164302Y21643648D01*
X33909000Y21261562D01*
X33653698Y21643648D01*
X33188151Y21954717D01*
X32639000Y22063950D01*
X32089849Y21954717D01*
X31624302Y21643648D01*
X31369000Y21261562D01*
X31113698Y21643648D01*
X30984000Y21730310D01*
X30984000Y23382420D01*
X33645787Y26044208D01*
X33645790Y26044210D01*
X33837633Y26331325D01*
X33891221Y26600727D01*
X33905001Y26670000D01*
X33905000Y26670005D01*
X33905000Y35387562D01*
X33905001Y35387567D01*
X33837634Y35726241D01*
X33722418Y35898674D01*
X33645790Y36013357D01*
X33645787Y36013359D01*
X30933357Y38725790D01*
X30646242Y38917633D01*
X30590051Y38928810D01*
X30307567Y38985001D01*
X30307562Y38985000D01*
X19561579Y38985000D01*
X17909020Y40637560D01*
X18510000Y40637560D01*
X18745317Y40681838D01*
X18961441Y40820910D01*
X19106431Y41033110D01*
X19157440Y41285000D01*
X19157440Y42535000D01*
X19113162Y42770317D01*
X18974090Y42986441D01*
X18761890Y43131431D01*
X18645000Y43155102D01*
X18645000Y44405000D01*
X21825754Y44405000D01*
X22018110Y44273569D01*
X22270000Y44222560D01*
X23035000Y44222560D01*
X23035000Y43390005D01*
X23034999Y43390000D01*
X23064109Y43243660D01*
X23102367Y43051325D01*
X23251703Y42827827D01*
X23294210Y42764210D01*
X23504208Y42554213D01*
X23504210Y42554210D01*
X23791325Y42362367D01*
X23821484Y42356368D01*
X24075782Y42305784D01*
X24205910Y42103559D01*
X24418110Y41958569D01*
X24670000Y41907560D01*
X26170000Y41907560D01*
X26405317Y41951838D01*
X26621441Y42090910D01*
X26669134Y42160711D01*
X26705910Y42103559D01*
X26918110Y41958569D01*
X27170000Y41907560D01*
X28275533Y41907560D01*
X28050038Y41682458D01*
X27838740Y41173596D01*
X27838259Y40622609D01*
X28048668Y40113379D01*
X28437935Y39723433D01*
X28946797Y39512135D01*
X29497784Y39511654D01*
X30007014Y39722063D01*
X30396960Y40111330D01*
X30608258Y40620192D01*
X30608739Y41171179D01*
X30398330Y41680409D01*
X30171575Y41907560D01*
X31270000Y41907560D01*
X31505317Y41951838D01*
X31721441Y42090910D01*
X31767969Y42159006D01*
X31910302Y42016673D01*
X32143691Y41920000D01*
X32734250Y41920000D01*
X32893000Y42078750D01*
X32893000Y43053000D01*
X33147000Y43053000D01*
X33147000Y42078750D01*
X33305750Y41920000D01*
X33896309Y41920000D01*
X34129698Y42016673D01*
X34308327Y42195301D01*
X34405000Y42428690D01*
X34405000Y42894250D01*
X34246250Y43053000D01*
X33147000Y43053000D01*
X32893000Y43053000D01*
X32873000Y43053000D01*
X32873000Y43307000D01*
X32893000Y43307000D01*
X32893000Y44281250D01*
X33147000Y44281250D01*
X33147000Y43307000D01*
X34246250Y43307000D01*
X34405000Y43465750D01*
X34405000Y43931310D01*
X34308327Y44164699D01*
X34129698Y44343327D01*
X33896309Y44440000D01*
X33305750Y44440000D01*
X33147000Y44281250D01*
X32893000Y44281250D01*
X32734250Y44440000D01*
X32143691Y44440000D01*
X31910302Y44343327D01*
X31769064Y44202090D01*
X31734090Y44256441D01*
X31521890Y44401431D01*
X31516254Y44402572D01*
X31521441Y44405910D01*
X31666431Y44618110D01*
X31717440Y44870000D01*
X31717440Y46570000D01*
X31673162Y46805317D01*
X31534090Y47021441D01*
X31321890Y47166431D01*
X31070000Y47217440D01*
X27770000Y47217440D01*
X27534683Y47173162D01*
X27318559Y47034090D01*
X27173569Y46821890D01*
X27122560Y46570000D01*
X27122560Y44870000D01*
X27166838Y44634683D01*
X27284108Y44452440D01*
X27170000Y44452440D01*
X26934683Y44408162D01*
X26718559Y44269090D01*
X26670866Y44199289D01*
X26634090Y44256441D01*
X26421890Y44401431D01*
X26170000Y44452440D01*
X26053234Y44452440D01*
X26166431Y44618110D01*
X26217440Y44870000D01*
X26217440Y46570000D01*
X26173162Y46805317D01*
X26034090Y47021441D01*
X25821890Y47166431D01*
X25570000Y47217440D01*
X22270000Y47217440D01*
X22034683Y47173162D01*
X21818559Y47034090D01*
X21673569Y46821890D01*
X21622560Y46570000D01*
X21622560Y46175000D01*
X18615468Y46175000D01*
X18200643Y46590551D01*
X18191628Y46594294D01*
X18230554Y46709841D01*
X17330000Y47610395D01*
X16429446Y46709841D01*
X16468207Y46594786D01*
X16461629Y46592068D01*
X16145000Y46275992D01*
X16145000Y46924766D01*
X16249841Y46889446D01*
X17150395Y47790000D01*
X17509605Y47790000D01*
X18410159Y46889446D01*
X18666643Y46975852D01*
X18876458Y47549336D01*
X18850839Y48159460D01*
X18666643Y48604148D01*
X18410159Y48690554D01*
X17509605Y47790000D01*
X17150395Y47790000D01*
X16249841Y48690554D01*
X16145000Y48655234D01*
X16145000Y49304356D01*
X16459357Y48989449D01*
X16468372Y48985706D01*
X16429446Y48870159D01*
X17330000Y47969605D01*
X18230554Y48870159D01*
X18191793Y48985214D01*
X18198371Y48987932D01*
X18630551Y49419357D01*
X18836360Y49915000D01*
X21629146Y49915000D01*
X21666838Y49714683D01*
X21805910Y49498559D01*
X22018110Y49353569D01*
X22270000Y49302560D01*
X25570000Y49302560D01*
X25805317Y49346838D01*
X26021441Y49485910D01*
X26166431Y49698110D01*
X26217440Y49950000D01*
X26217440Y51650000D01*
X26173162Y51885317D01*
X26055892Y52067560D01*
X26170000Y52067560D01*
X26405317Y52111838D01*
X26621441Y52250910D01*
X26669134Y52320711D01*
X26705910Y52263559D01*
X26918110Y52118569D01*
X27170000Y52067560D01*
X27286766Y52067560D01*
X27173569Y51901890D01*
X27122560Y51650000D01*
X27122560Y49950000D01*
X27166838Y49714683D01*
X27305910Y49498559D01*
X27518110Y49353569D01*
X27770000Y49302560D01*
X31070000Y49302560D01*
X31305317Y49346838D01*
X31521441Y49485910D01*
X31666431Y49698110D01*
X31710352Y49915000D01*
X34152098Y49915000D01*
X34153524Y49913574D01*
X34153168Y49505984D01*
X34363577Y48996754D01*
X34752844Y48606808D01*
X35261706Y48395510D01*
X35812693Y48395029D01*
X36321923Y48605438D01*
X36711869Y48994705D01*
X36923167Y49503567D01*
X36923648Y50054554D01*
X36713239Y50563784D01*
X36323972Y50953730D01*
X35815110Y51165028D01*
X35404870Y51165386D01*
X35144467Y51425790D01*
X35114535Y51445790D01*
X34857352Y51617633D01*
X34801161Y51628810D01*
X34518677Y51685001D01*
X34518672Y51685000D01*
X31710854Y51685000D01*
X31673162Y51885317D01*
X31534090Y52101441D01*
X31502598Y52122958D01*
X31701441Y52250910D01*
X31747969Y52319006D01*
X31890302Y52176673D01*
X32123691Y52080000D01*
X32714250Y52080000D01*
X32873000Y52238750D01*
X32873000Y53213000D01*
X33127000Y53213000D01*
X33127000Y52238750D01*
X33285750Y52080000D01*
X33876309Y52080000D01*
X34109698Y52176673D01*
X34288327Y52355301D01*
X34385000Y52588690D01*
X34385000Y53054250D01*
X44355000Y53054250D01*
X44355000Y52588690D01*
X44451673Y52355301D01*
X44630302Y52176673D01*
X44863691Y52080000D01*
X45454250Y52080000D01*
X45613000Y52238750D01*
X45613000Y53213000D01*
X44513750Y53213000D01*
X44355000Y53054250D01*
X34385000Y53054250D01*
X34226250Y53213000D01*
X33127000Y53213000D01*
X32873000Y53213000D01*
X32853000Y53213000D01*
X32853000Y53467000D01*
X32873000Y53467000D01*
X32873000Y54441250D01*
X33127000Y54441250D01*
X33127000Y53467000D01*
X34226250Y53467000D01*
X34385000Y53625750D01*
X34385000Y54091310D01*
X44355000Y54091310D01*
X44355000Y53625750D01*
X44513750Y53467000D01*
X45613000Y53467000D01*
X45613000Y54441250D01*
X45454250Y54600000D01*
X44863691Y54600000D01*
X44630302Y54503327D01*
X44451673Y54324699D01*
X44355000Y54091310D01*
X34385000Y54091310D01*
X34288327Y54324699D01*
X34109698Y54503327D01*
X33876309Y54600000D01*
X33285750Y54600000D01*
X33127000Y54441250D01*
X32873000Y54441250D01*
X32714250Y54600000D01*
X32123691Y54600000D01*
X31890302Y54503327D01*
X31749064Y54362090D01*
X31714090Y54416441D01*
X31501890Y54561431D01*
X31250000Y54612440D01*
X29750000Y54612440D01*
X29514683Y54568162D01*
X29298559Y54429090D01*
X29209667Y54298992D01*
X29134090Y54416441D01*
X28921890Y54561431D01*
X28670000Y54612440D01*
X27170000Y54612440D01*
X26934683Y54568162D01*
X26718559Y54429090D01*
X26670866Y54359289D01*
X26634090Y54416441D01*
X26421890Y54561431D01*
X26170000Y54612440D01*
X24670000Y54612440D01*
X24434683Y54568162D01*
X24218559Y54429090D01*
X24073569Y54216890D01*
X24022560Y53965000D01*
X24022560Y53194140D01*
X23294210Y52465790D01*
X23181723Y52297440D01*
X22270000Y52297440D01*
X22034683Y52253162D01*
X21818559Y52114090D01*
X21673569Y51901890D01*
X21629648Y51685000D01*
X18560043Y51685000D01*
X18577633Y51711325D01*
X18597525Y51811326D01*
X18645001Y52050000D01*
X18645000Y52050005D01*
X18645000Y52092962D01*
X18745317Y52111838D01*
X18961441Y52250910D01*
X19106431Y52463110D01*
X19157440Y52715000D01*
X19157440Y53965000D01*
X19113162Y54200317D01*
X18974090Y54416441D01*
X18761890Y54561431D01*
X18510000Y54612440D01*
X17909019Y54612440D01*
X18216827Y54920248D01*
X63865000Y54920248D01*
X63865000Y54587038D01*
X63865000Y54587038D01*
G37*
X63865000Y54587038D02*
X63764683Y54568162D01*
X63548559Y54429090D01*
X63500866Y54359289D01*
X63464090Y54416441D01*
X63251890Y54561431D01*
X63000000Y54612440D01*
X61500000Y54612440D01*
X61264683Y54568162D01*
X61048559Y54429090D01*
X60903569Y54216890D01*
X60852560Y53965000D01*
X60852560Y52715000D01*
X60896838Y52479683D01*
X61035910Y52263559D01*
X61248110Y52118569D01*
X61445000Y52078698D01*
X61445000Y51575468D01*
X61043831Y51175000D01*
X56907440Y51175000D01*
X56907440Y51650000D01*
X56863162Y51885317D01*
X56724090Y52101441D01*
X56511890Y52246431D01*
X56260000Y52297440D01*
X55470646Y52297440D01*
X55437158Y52465790D01*
X55427633Y52513675D01*
X55235790Y52800790D01*
X55235787Y52800792D01*
X54717440Y53319139D01*
X54717440Y53965000D01*
X54673162Y54200317D01*
X54534090Y54416441D01*
X54321890Y54561431D01*
X54070000Y54612440D01*
X52570000Y54612440D01*
X52334683Y54568162D01*
X52118559Y54429090D01*
X52070866Y54359289D01*
X52034090Y54416441D01*
X51821890Y54561431D01*
X51570000Y54612440D01*
X50070000Y54612440D01*
X49834683Y54568162D01*
X49618559Y54429090D01*
X49529667Y54298992D01*
X49454090Y54416441D01*
X49241890Y54561431D01*
X48990000Y54612440D01*
X47490000Y54612440D01*
X47254683Y54568162D01*
X47038559Y54429090D01*
X46992031Y54360994D01*
X46849698Y54503327D01*
X46616309Y54600000D01*
X46025750Y54600000D01*
X45867000Y54441250D01*
X45867000Y53467000D01*
X45887000Y53467000D01*
X45887000Y53213000D01*
X45867000Y53213000D01*
X45867000Y52238750D01*
X46025750Y52080000D01*
X46616309Y52080000D01*
X46849698Y52176673D01*
X46990936Y52317910D01*
X47025910Y52263559D01*
X47130152Y52192333D01*
X47008559Y52114090D01*
X46863569Y51901890D01*
X46819648Y51685000D01*
X45720005Y51685000D01*
X45720000Y51685001D01*
X45381325Y51617633D01*
X45094210Y51425790D01*
X45094208Y51425787D01*
X38744210Y45075790D01*
X38552367Y44788675D01*
X38552367Y44788674D01*
X38484999Y44450000D01*
X38485000Y44449995D01*
X38485000Y31254834D01*
X38454997Y31104002D01*
X38454998Y31103997D01*
X38454998Y28586003D01*
X38454997Y28585998D01*
X38487428Y28422961D01*
X38522365Y28247323D01*
X38714208Y27960208D01*
X41914000Y24760417D01*
X41914000Y21730310D01*
X41784302Y21643648D01*
X41529000Y21261562D01*
X41273698Y21643648D01*
X40808151Y21954717D01*
X40259000Y22063950D01*
X39709849Y21954717D01*
X39244302Y21643648D01*
X38989000Y21261562D01*
X38733698Y21643648D01*
X38268151Y21954717D01*
X37719000Y22063950D01*
X37169849Y21954717D01*
X36704302Y21643648D01*
X36449000Y21261562D01*
X36193698Y21643648D01*
X35728151Y21954717D01*
X35179000Y22063950D01*
X34629849Y21954717D01*
X34164302Y21643648D01*
X33909000Y21261562D01*
X33653698Y21643648D01*
X33188151Y21954717D01*
X32639000Y22063950D01*
X32089849Y21954717D01*
X31624302Y21643648D01*
X31369000Y21261562D01*
X31113698Y21643648D01*
X30984000Y21730310D01*
X30984000Y23382420D01*
X33645787Y26044208D01*
X33645790Y26044210D01*
X33837633Y26331325D01*
X33891221Y26600727D01*
X33905001Y26670000D01*
X33905000Y26670005D01*
X33905000Y35387562D01*
X33905001Y35387567D01*
X33837634Y35726241D01*
X33722418Y35898674D01*
X33645790Y36013357D01*
X33645787Y36013359D01*
X30933357Y38725790D01*
X30646242Y38917633D01*
X30590051Y38928810D01*
X30307567Y38985001D01*
X30307562Y38985000D01*
X19561579Y38985000D01*
X17909020Y40637560D01*
X18510000Y40637560D01*
X18745317Y40681838D01*
X18961441Y40820910D01*
X19106431Y41033110D01*
X19157440Y41285000D01*
X19157440Y42535000D01*
X19113162Y42770317D01*
X18974090Y42986441D01*
X18761890Y43131431D01*
X18645000Y43155102D01*
X18645000Y44405000D01*
X21825754Y44405000D01*
X22018110Y44273569D01*
X22270000Y44222560D01*
X23035000Y44222560D01*
X23035000Y43390005D01*
X23034999Y43390000D01*
X23064109Y43243660D01*
X23102367Y43051325D01*
X23251703Y42827827D01*
X23294210Y42764210D01*
X23504208Y42554213D01*
X23504210Y42554210D01*
X23791325Y42362367D01*
X23821484Y42356368D01*
X24075782Y42305784D01*
X24205910Y42103559D01*
X24418110Y41958569D01*
X24670000Y41907560D01*
X26170000Y41907560D01*
X26405317Y41951838D01*
X26621441Y42090910D01*
X26669134Y42160711D01*
X26705910Y42103559D01*
X26918110Y41958569D01*
X27170000Y41907560D01*
X28275533Y41907560D01*
X28050038Y41682458D01*
X27838740Y41173596D01*
X27838259Y40622609D01*
X28048668Y40113379D01*
X28437935Y39723433D01*
X28946797Y39512135D01*
X29497784Y39511654D01*
X30007014Y39722063D01*
X30396960Y40111330D01*
X30608258Y40620192D01*
X30608739Y41171179D01*
X30398330Y41680409D01*
X30171575Y41907560D01*
X31270000Y41907560D01*
X31505317Y41951838D01*
X31721441Y42090910D01*
X31767969Y42159006D01*
X31910302Y42016673D01*
X32143691Y41920000D01*
X32734250Y41920000D01*
X32893000Y42078750D01*
X32893000Y43053000D01*
X33147000Y43053000D01*
X33147000Y42078750D01*
X33305750Y41920000D01*
X33896309Y41920000D01*
X34129698Y42016673D01*
X34308327Y42195301D01*
X34405000Y42428690D01*
X34405000Y42894250D01*
X34246250Y43053000D01*
X33147000Y43053000D01*
X32893000Y43053000D01*
X32873000Y43053000D01*
X32873000Y43307000D01*
X32893000Y43307000D01*
X32893000Y44281250D01*
X33147000Y44281250D01*
X33147000Y43307000D01*
X34246250Y43307000D01*
X34405000Y43465750D01*
X34405000Y43931310D01*
X34308327Y44164699D01*
X34129698Y44343327D01*
X33896309Y44440000D01*
X33305750Y44440000D01*
X33147000Y44281250D01*
X32893000Y44281250D01*
X32734250Y44440000D01*
X32143691Y44440000D01*
X31910302Y44343327D01*
X31769064Y44202090D01*
X31734090Y44256441D01*
X31521890Y44401431D01*
X31516254Y44402572D01*
X31521441Y44405910D01*
X31666431Y44618110D01*
X31717440Y44870000D01*
X31717440Y46570000D01*
X31673162Y46805317D01*
X31534090Y47021441D01*
X31321890Y47166431D01*
X31070000Y47217440D01*
X27770000Y47217440D01*
X27534683Y47173162D01*
X27318559Y47034090D01*
X27173569Y46821890D01*
X27122560Y46570000D01*
X27122560Y44870000D01*
X27166838Y44634683D01*
X27284108Y44452440D01*
X27170000Y44452440D01*
X26934683Y44408162D01*
X26718559Y44269090D01*
X26670866Y44199289D01*
X26634090Y44256441D01*
X26421890Y44401431D01*
X26170000Y44452440D01*
X26053234Y44452440D01*
X26166431Y44618110D01*
X26217440Y44870000D01*
X26217440Y46570000D01*
X26173162Y46805317D01*
X26034090Y47021441D01*
X25821890Y47166431D01*
X25570000Y47217440D01*
X22270000Y47217440D01*
X22034683Y47173162D01*
X21818559Y47034090D01*
X21673569Y46821890D01*
X21622560Y46570000D01*
X21622560Y46175000D01*
X18615468Y46175000D01*
X18200643Y46590551D01*
X18191628Y46594294D01*
X18230554Y46709841D01*
X17330000Y47610395D01*
X16429446Y46709841D01*
X16468207Y46594786D01*
X16461629Y46592068D01*
X16145000Y46275992D01*
X16145000Y46924766D01*
X16249841Y46889446D01*
X17150395Y47790000D01*
X17509605Y47790000D01*
X18410159Y46889446D01*
X18666643Y46975852D01*
X18876458Y47549336D01*
X18850839Y48159460D01*
X18666643Y48604148D01*
X18410159Y48690554D01*
X17509605Y47790000D01*
X17150395Y47790000D01*
X16249841Y48690554D01*
X16145000Y48655234D01*
X16145000Y49304356D01*
X16459357Y48989449D01*
X16468372Y48985706D01*
X16429446Y48870159D01*
X17330000Y47969605D01*
X18230554Y48870159D01*
X18191793Y48985214D01*
X18198371Y48987932D01*
X18630551Y49419357D01*
X18836360Y49915000D01*
X21629146Y49915000D01*
X21666838Y49714683D01*
X21805910Y49498559D01*
X22018110Y49353569D01*
X22270000Y49302560D01*
X25570000Y49302560D01*
X25805317Y49346838D01*
X26021441Y49485910D01*
X26166431Y49698110D01*
X26217440Y49950000D01*
X26217440Y51650000D01*
X26173162Y51885317D01*
X26055892Y52067560D01*
X26170000Y52067560D01*
X26405317Y52111838D01*
X26621441Y52250910D01*
X26669134Y52320711D01*
X26705910Y52263559D01*
X26918110Y52118569D01*
X27170000Y52067560D01*
X27286766Y52067560D01*
X27173569Y51901890D01*
X27122560Y51650000D01*
X27122560Y49950000D01*
X27166838Y49714683D01*
X27305910Y49498559D01*
X27518110Y49353569D01*
X27770000Y49302560D01*
X31070000Y49302560D01*
X31305317Y49346838D01*
X31521441Y49485910D01*
X31666431Y49698110D01*
X31710352Y49915000D01*
X34152098Y49915000D01*
X34153524Y49913574D01*
X34153168Y49505984D01*
X34363577Y48996754D01*
X34752844Y48606808D01*
X35261706Y48395510D01*
X35812693Y48395029D01*
X36321923Y48605438D01*
X36711869Y48994705D01*
X36923167Y49503567D01*
X36923648Y50054554D01*
X36713239Y50563784D01*
X36323972Y50953730D01*
X35815110Y51165028D01*
X35404870Y51165386D01*
X35144467Y51425790D01*
X35114535Y51445790D01*
X34857352Y51617633D01*
X34801161Y51628810D01*
X34518677Y51685001D01*
X34518672Y51685000D01*
X31710854Y51685000D01*
X31673162Y51885317D01*
X31534090Y52101441D01*
X31502598Y52122958D01*
X31701441Y52250910D01*
X31747969Y52319006D01*
X31890302Y52176673D01*
X32123691Y52080000D01*
X32714250Y52080000D01*
X32873000Y52238750D01*
X32873000Y53213000D01*
X33127000Y53213000D01*
X33127000Y52238750D01*
X33285750Y52080000D01*
X33876309Y52080000D01*
X34109698Y52176673D01*
X34288327Y52355301D01*
X34385000Y52588690D01*
X34385000Y53054250D01*
X44355000Y53054250D01*
X44355000Y52588690D01*
X44451673Y52355301D01*
X44630302Y52176673D01*
X44863691Y52080000D01*
X45454250Y52080000D01*
X45613000Y52238750D01*
X45613000Y53213000D01*
X44513750Y53213000D01*
X44355000Y53054250D01*
X34385000Y53054250D01*
X34226250Y53213000D01*
X33127000Y53213000D01*
X32873000Y53213000D01*
X32853000Y53213000D01*
X32853000Y53467000D01*
X32873000Y53467000D01*
X32873000Y54441250D01*
X33127000Y54441250D01*
X33127000Y53467000D01*
X34226250Y53467000D01*
X34385000Y53625750D01*
X34385000Y54091310D01*
X44355000Y54091310D01*
X44355000Y53625750D01*
X44513750Y53467000D01*
X45613000Y53467000D01*
X45613000Y54441250D01*
X45454250Y54600000D01*
X44863691Y54600000D01*
X44630302Y54503327D01*
X44451673Y54324699D01*
X44355000Y54091310D01*
X34385000Y54091310D01*
X34288327Y54324699D01*
X34109698Y54503327D01*
X33876309Y54600000D01*
X33285750Y54600000D01*
X33127000Y54441250D01*
X32873000Y54441250D01*
X32714250Y54600000D01*
X32123691Y54600000D01*
X31890302Y54503327D01*
X31749064Y54362090D01*
X31714090Y54416441D01*
X31501890Y54561431D01*
X31250000Y54612440D01*
X29750000Y54612440D01*
X29514683Y54568162D01*
X29298559Y54429090D01*
X29209667Y54298992D01*
X29134090Y54416441D01*
X28921890Y54561431D01*
X28670000Y54612440D01*
X27170000Y54612440D01*
X26934683Y54568162D01*
X26718559Y54429090D01*
X26670866Y54359289D01*
X26634090Y54416441D01*
X26421890Y54561431D01*
X26170000Y54612440D01*
X24670000Y54612440D01*
X24434683Y54568162D01*
X24218559Y54429090D01*
X24073569Y54216890D01*
X24022560Y53965000D01*
X24022560Y53194140D01*
X23294210Y52465790D01*
X23181723Y52297440D01*
X22270000Y52297440D01*
X22034683Y52253162D01*
X21818559Y52114090D01*
X21673569Y51901890D01*
X21629648Y51685000D01*
X18560043Y51685000D01*
X18577633Y51711325D01*
X18597525Y51811326D01*
X18645001Y52050000D01*
X18645000Y52050005D01*
X18645000Y52092962D01*
X18745317Y52111838D01*
X18961441Y52250910D01*
X19106431Y52463110D01*
X19157440Y52715000D01*
X19157440Y53965000D01*
X19113162Y54200317D01*
X18974090Y54416441D01*
X18761890Y54561431D01*
X18510000Y54612440D01*
X17909019Y54612440D01*
X18216827Y54920248D01*
X63865000Y54920248D01*
X63865000Y54587038D01*
M02*
