G04 #@! TF.FileFunction,Copper,L2,Bot,Signal*
%FSLAX46Y46*%
G04 Gerber Fmt 4.6, Leading zero omitted, Abs format (unit mm)*
G04 Created by KiCad (PCBNEW 4.0.6) date 09/09/17 17:19:42*
%MOMM*%
%LPD*%
G01*
G04 APERTURE LIST*
%ADD10C,0.100000*%
%ADD11R,1.700000X1.700000*%
%ADD12O,1.700000X1.700000*%
%ADD13C,1.800000*%
%ADD14C,3.000000*%
%ADD15R,1.600000X2.400000*%
%ADD16O,1.600000X2.400000*%
%ADD17C,1.500000*%
%ADD18C,0.500000*%
%ADD19C,0.254000*%
G04 APERTURE END LIST*
D10*
D11*
X5969000Y34671000D03*
D12*
X5969000Y32131000D03*
X5969000Y29591000D03*
X5969000Y27051000D03*
X5969000Y24511000D03*
X5969000Y21971000D03*
X5969000Y19431000D03*
X5969000Y16891000D03*
X5969000Y14351000D03*
X5969000Y11811000D03*
D13*
X76830000Y50290000D03*
X62330000Y50290000D03*
X62330000Y47790000D03*
X62330000Y45290000D03*
X76830000Y45290000D03*
D14*
X69830000Y42190000D03*
X69830000Y53390000D03*
D11*
X27940000Y4445000D03*
D12*
X30480000Y4445000D03*
X33020000Y4445000D03*
D11*
X73660000Y11430000D03*
D12*
X73660000Y13970000D03*
X73660000Y16510000D03*
X73660000Y19050000D03*
D15*
X30099000Y12573000D03*
D16*
X45339000Y20193000D03*
X32639000Y12573000D03*
X42799000Y20193000D03*
X35179000Y12573000D03*
X40259000Y20193000D03*
X37719000Y12573000D03*
X37719000Y20193000D03*
X40259000Y12573000D03*
X35179000Y20193000D03*
X42799000Y12573000D03*
X32639000Y20193000D03*
X45339000Y12573000D03*
X30099000Y20193000D03*
D13*
X2830000Y45290000D03*
X17330000Y45290000D03*
X17330000Y47790000D03*
X17330000Y50290000D03*
X2830000Y50290000D03*
D14*
X9830000Y53390000D03*
X9830000Y42190000D03*
D17*
X23260989Y22280391D03*
X35538408Y49780269D03*
X47253741Y31000054D03*
X42514660Y31000052D03*
X29223499Y40896894D03*
X11430000Y34290000D03*
X51435000Y17780000D03*
X54740815Y8115858D03*
X11430000Y32385000D03*
D18*
X23260989Y21219731D02*
X23260989Y22280391D01*
X25400000Y8890000D02*
X23260989Y11029011D01*
X36976000Y8890000D02*
X25400000Y8890000D01*
X40259000Y12173000D02*
X36976000Y8890000D01*
X40259000Y12573000D02*
X40259000Y12173000D01*
X23260989Y11029011D02*
X23260989Y21219731D01*
X35538408Y48719609D02*
X35538408Y49780269D01*
X35538408Y42829861D02*
X35538408Y48719609D01*
X26875935Y34167388D02*
X35538408Y42829861D01*
X26875935Y20876065D02*
X26875935Y34167388D01*
X33479000Y14273000D02*
X26875935Y20876065D01*
X33879000Y14273000D02*
X33479000Y14273000D01*
X35179000Y12573000D02*
X35179000Y12973000D01*
X35179000Y12973000D02*
X33879000Y14273000D01*
X32639000Y30099000D02*
X34855263Y32315263D01*
X45938532Y32315263D02*
X46503742Y31750053D01*
X32639000Y20193000D02*
X32639000Y30099000D01*
X34855263Y32315263D02*
X45938532Y32315263D01*
X46503742Y31750053D02*
X47253741Y31000054D01*
X41764661Y30250053D02*
X42514660Y31000052D01*
X37719000Y20193000D02*
X37719000Y26204392D01*
X37719000Y26204392D02*
X41764661Y30250053D01*
X24986304Y36659699D02*
X28473500Y40146895D01*
X30099000Y12573000D02*
X28799000Y12573000D01*
X28473500Y40146895D02*
X29223499Y40896894D01*
X24986304Y16385696D02*
X24986304Y36659699D01*
X28799000Y12573000D02*
X24986304Y16385696D01*
X20320000Y30480000D02*
X16510000Y34290000D01*
X16510000Y34290000D02*
X11430000Y34290000D01*
X20320000Y8515002D02*
X20320000Y30480000D01*
X22990001Y5845001D02*
X20320000Y8515002D01*
X51435000Y9525000D02*
X47755001Y5845001D01*
X47755001Y5845001D02*
X22990001Y5845001D01*
X51435000Y10160000D02*
X51435000Y9525000D01*
X51435000Y17780000D02*
X51435000Y10160000D01*
X11430000Y32385000D02*
X11430000Y13970000D01*
X53990816Y7365859D02*
X54740815Y8115858D01*
X11430000Y13970000D02*
X22355001Y3044999D01*
X22355001Y3044999D02*
X49669956Y3044999D01*
X49669956Y3044999D02*
X53990816Y7365859D01*
D19*
G36*
X77978000Y51312709D02*
X77700643Y51590551D01*
X77136670Y51824733D01*
X76526009Y51825265D01*
X75961629Y51592068D01*
X75529449Y51160643D01*
X75295267Y50596670D01*
X75294735Y49986009D01*
X75527932Y49421629D01*
X75959357Y48989449D01*
X76523330Y48755267D01*
X77133991Y48754735D01*
X77698371Y48987932D01*
X77978000Y49267073D01*
X77978000Y46167699D01*
X77910159Y46190554D01*
X77009605Y45290000D01*
X77910159Y44389446D01*
X77978000Y44412301D01*
X77978000Y710000D01*
X710000Y710000D01*
X710000Y11811000D01*
X4454907Y11811000D01*
X4567946Y11242715D01*
X4889853Y10760946D01*
X5371622Y10439039D01*
X5939907Y10326000D01*
X5998093Y10326000D01*
X6566378Y10439039D01*
X7048147Y10760946D01*
X7370054Y11242715D01*
X7483093Y11811000D01*
X7370054Y12379285D01*
X7048147Y12861054D01*
X6707447Y13088702D01*
X6850358Y13155817D01*
X7240645Y13584076D01*
X7410476Y13994110D01*
X7289155Y14224000D01*
X6096000Y14224000D01*
X6096000Y14204000D01*
X5842000Y14204000D01*
X5842000Y14224000D01*
X4648845Y14224000D01*
X4527524Y13994110D01*
X4697355Y13584076D01*
X5087642Y13155817D01*
X5230553Y13088702D01*
X4889853Y12861054D01*
X4567946Y12379285D01*
X4454907Y11811000D01*
X710000Y11811000D01*
X710000Y32131000D01*
X4454907Y32131000D01*
X4567946Y31562715D01*
X4889853Y31080946D01*
X5219026Y30861000D01*
X4889853Y30641054D01*
X4567946Y30159285D01*
X4454907Y29591000D01*
X4567946Y29022715D01*
X4889853Y28540946D01*
X5219026Y28321000D01*
X4889853Y28101054D01*
X4567946Y27619285D01*
X4454907Y27051000D01*
X4567946Y26482715D01*
X4889853Y26000946D01*
X5219026Y25781000D01*
X4889853Y25561054D01*
X4567946Y25079285D01*
X4454907Y24511000D01*
X4567946Y23942715D01*
X4889853Y23460946D01*
X5219026Y23241000D01*
X4889853Y23021054D01*
X4567946Y22539285D01*
X4454907Y21971000D01*
X4567946Y21402715D01*
X4889853Y20920946D01*
X5219026Y20701000D01*
X4889853Y20481054D01*
X4567946Y19999285D01*
X4454907Y19431000D01*
X4567946Y18862715D01*
X4889853Y18380946D01*
X5219026Y18161000D01*
X4889853Y17941054D01*
X4567946Y17459285D01*
X4454907Y16891000D01*
X4567946Y16322715D01*
X4889853Y15840946D01*
X5230553Y15613298D01*
X5087642Y15546183D01*
X4697355Y15117924D01*
X4527524Y14707890D01*
X4648845Y14478000D01*
X5842000Y14478000D01*
X5842000Y14498000D01*
X6096000Y14498000D01*
X6096000Y14478000D01*
X7289155Y14478000D01*
X7410476Y14707890D01*
X7240645Y15117924D01*
X6850358Y15546183D01*
X6707447Y15613298D01*
X7048147Y15840946D01*
X7370054Y16322715D01*
X7483093Y16891000D01*
X7370054Y17459285D01*
X7048147Y17941054D01*
X6718974Y18161000D01*
X7048147Y18380946D01*
X7370054Y18862715D01*
X7483093Y19431000D01*
X7370054Y19999285D01*
X7048147Y20481054D01*
X6718974Y20701000D01*
X7048147Y20920946D01*
X7370054Y21402715D01*
X7483093Y21971000D01*
X7370054Y22539285D01*
X7048147Y23021054D01*
X6718974Y23241000D01*
X7048147Y23460946D01*
X7370054Y23942715D01*
X7483093Y24511000D01*
X7370054Y25079285D01*
X7048147Y25561054D01*
X6718974Y25781000D01*
X7048147Y26000946D01*
X7370054Y26482715D01*
X7483093Y27051000D01*
X7370054Y27619285D01*
X7048147Y28101054D01*
X6718974Y28321000D01*
X7048147Y28540946D01*
X7370054Y29022715D01*
X7483093Y29591000D01*
X7370054Y30159285D01*
X7048147Y30641054D01*
X6718974Y30861000D01*
X7048147Y31080946D01*
X7370054Y31562715D01*
X7483093Y32131000D01*
X7370054Y32699285D01*
X7048147Y33181054D01*
X7006548Y33208850D01*
X7054317Y33217838D01*
X7270441Y33356910D01*
X7415431Y33569110D01*
X7466440Y33821000D01*
X7466440Y34015715D01*
X10044760Y34015715D01*
X10255169Y33506485D01*
X10423813Y33337547D01*
X10256539Y33170564D01*
X10045241Y32661702D01*
X10044760Y32110715D01*
X10255169Y31601485D01*
X10545000Y31311148D01*
X10545000Y13970005D01*
X10544999Y13970000D01*
X10584186Y13773000D01*
X10612367Y13631325D01*
X10729938Y13455367D01*
X10804210Y13344210D01*
X21729209Y2419212D01*
X21729211Y2419209D01*
X21921055Y2291024D01*
X22016327Y2227365D01*
X22355001Y2159998D01*
X22355006Y2159999D01*
X49669951Y2159999D01*
X49669956Y2159998D01*
X49952440Y2216189D01*
X50008631Y2227366D01*
X50295746Y2419209D01*
X54607510Y6730974D01*
X55015100Y6730618D01*
X55524330Y6941027D01*
X55914276Y7330294D01*
X56125574Y7839156D01*
X56126055Y8390143D01*
X55915646Y8899373D01*
X55526379Y9289319D01*
X55017517Y9500617D01*
X54466530Y9501098D01*
X53957300Y9290689D01*
X53567354Y8901422D01*
X53356056Y8392560D01*
X53355698Y7982320D01*
X49303376Y3929999D01*
X34408347Y3929999D01*
X34505000Y4415907D01*
X34505000Y4474093D01*
X34408347Y4960001D01*
X47754996Y4960001D01*
X47755001Y4960000D01*
X48037485Y5016191D01*
X48093676Y5027368D01*
X48380791Y5219211D01*
X52060787Y8899208D01*
X52060790Y8899210D01*
X52252633Y9186325D01*
X52320000Y9525000D01*
X52320000Y11144250D01*
X72175000Y11144250D01*
X72175000Y10453690D01*
X72271673Y10220301D01*
X72450302Y10041673D01*
X72683691Y9945000D01*
X73374250Y9945000D01*
X73533000Y10103750D01*
X73533000Y11303000D01*
X73787000Y11303000D01*
X73787000Y10103750D01*
X73945750Y9945000D01*
X74636309Y9945000D01*
X74869698Y10041673D01*
X75048327Y10220301D01*
X75145000Y10453690D01*
X75145000Y11144250D01*
X74986250Y11303000D01*
X73787000Y11303000D01*
X73533000Y11303000D01*
X72333750Y11303000D01*
X72175000Y11144250D01*
X52320000Y11144250D01*
X52320000Y16706477D01*
X52608461Y16994436D01*
X52819759Y17503298D01*
X52820240Y18054285D01*
X52609831Y18563515D01*
X52220564Y18953461D01*
X51988073Y19050000D01*
X72145907Y19050000D01*
X72258946Y18481715D01*
X72580853Y17999946D01*
X72910026Y17780000D01*
X72580853Y17560054D01*
X72258946Y17078285D01*
X72145907Y16510000D01*
X72258946Y15941715D01*
X72580853Y15459946D01*
X72910026Y15240000D01*
X72580853Y15020054D01*
X72258946Y14538285D01*
X72145907Y13970000D01*
X72258946Y13401715D01*
X72580853Y12919946D01*
X72624777Y12890597D01*
X72450302Y12818327D01*
X72271673Y12639699D01*
X72175000Y12406310D01*
X72175000Y11715750D01*
X72333750Y11557000D01*
X73533000Y11557000D01*
X73533000Y11577000D01*
X73787000Y11577000D01*
X73787000Y11557000D01*
X74986250Y11557000D01*
X75145000Y11715750D01*
X75145000Y12406310D01*
X75048327Y12639699D01*
X74869698Y12818327D01*
X74695223Y12890597D01*
X74739147Y12919946D01*
X75061054Y13401715D01*
X75174093Y13970000D01*
X75061054Y14538285D01*
X74739147Y15020054D01*
X74409974Y15240000D01*
X74739147Y15459946D01*
X75061054Y15941715D01*
X75174093Y16510000D01*
X75061054Y17078285D01*
X74739147Y17560054D01*
X74409974Y17780000D01*
X74739147Y17999946D01*
X75061054Y18481715D01*
X75174093Y19050000D01*
X75061054Y19618285D01*
X74739147Y20100054D01*
X74257378Y20421961D01*
X73689093Y20535000D01*
X73630907Y20535000D01*
X73062622Y20421961D01*
X72580853Y20100054D01*
X72258946Y19618285D01*
X72145907Y19050000D01*
X51988073Y19050000D01*
X51711702Y19164759D01*
X51160715Y19165240D01*
X50651485Y18954831D01*
X50261539Y18565564D01*
X50050241Y18056702D01*
X50049760Y17505715D01*
X50260169Y16996485D01*
X50550000Y16706148D01*
X50550000Y9891579D01*
X47388421Y6730001D01*
X23356580Y6730001D01*
X21205000Y8881582D01*
X21205000Y22006106D01*
X21875749Y22006106D01*
X22086158Y21496876D01*
X22375989Y21206539D01*
X22375989Y11029016D01*
X22375988Y11029011D01*
X22426203Y10776569D01*
X22443356Y10690336D01*
X22571419Y10498675D01*
X22635199Y10403221D01*
X24774208Y8264213D01*
X24774210Y8264210D01*
X25061325Y8072367D01*
X25400000Y8005000D01*
X36975995Y8005000D01*
X36976000Y8004999D01*
X37258484Y8061190D01*
X37314675Y8072367D01*
X37601790Y8264210D01*
X37601791Y8264211D01*
X40076025Y10738446D01*
X40259000Y10702050D01*
X40808151Y10811283D01*
X41273698Y11122352D01*
X41529000Y11504438D01*
X41784302Y11122352D01*
X42249849Y10811283D01*
X42799000Y10702050D01*
X43348151Y10811283D01*
X43813698Y11122352D01*
X44066507Y11500707D01*
X44414104Y11068500D01*
X44907181Y10798633D01*
X44989961Y10781096D01*
X45212000Y10903085D01*
X45212000Y12446000D01*
X45466000Y12446000D01*
X45466000Y10903085D01*
X45688039Y10781096D01*
X45770819Y10798633D01*
X46263896Y11068500D01*
X46616166Y11506517D01*
X46774000Y12046000D01*
X46774000Y12446000D01*
X45466000Y12446000D01*
X45212000Y12446000D01*
X45192000Y12446000D01*
X45192000Y12700000D01*
X45212000Y12700000D01*
X45212000Y14242915D01*
X45466000Y14242915D01*
X45466000Y12700000D01*
X46774000Y12700000D01*
X46774000Y13100000D01*
X46616166Y13639483D01*
X46263896Y14077500D01*
X45770819Y14347367D01*
X45688039Y14364904D01*
X45466000Y14242915D01*
X45212000Y14242915D01*
X44989961Y14364904D01*
X44907181Y14347367D01*
X44414104Y14077500D01*
X44066507Y13645293D01*
X43813698Y14023648D01*
X43348151Y14334717D01*
X42799000Y14443950D01*
X42249849Y14334717D01*
X41784302Y14023648D01*
X41529000Y13641562D01*
X41273698Y14023648D01*
X40808151Y14334717D01*
X40259000Y14443950D01*
X39709849Y14334717D01*
X39244302Y14023648D01*
X38989000Y13641562D01*
X38733698Y14023648D01*
X38268151Y14334717D01*
X37719000Y14443950D01*
X37169849Y14334717D01*
X36704302Y14023648D01*
X36449000Y13641562D01*
X36193698Y14023648D01*
X35728151Y14334717D01*
X35179000Y14443950D01*
X34996026Y14407554D01*
X34504790Y14898790D01*
X34217675Y15090633D01*
X34161484Y15101810D01*
X33879000Y15158001D01*
X33878995Y15158000D01*
X33845579Y15158000D01*
X30584882Y18418698D01*
X30648151Y18431283D01*
X31113698Y18742352D01*
X31369000Y19124438D01*
X31624302Y18742352D01*
X32089849Y18431283D01*
X32639000Y18322050D01*
X33188151Y18431283D01*
X33653698Y18742352D01*
X33909000Y19124438D01*
X34164302Y18742352D01*
X34629849Y18431283D01*
X35179000Y18322050D01*
X35728151Y18431283D01*
X36193698Y18742352D01*
X36449000Y19124438D01*
X36704302Y18742352D01*
X37169849Y18431283D01*
X37719000Y18322050D01*
X38268151Y18431283D01*
X38733698Y18742352D01*
X38989000Y19124438D01*
X39244302Y18742352D01*
X39709849Y18431283D01*
X40259000Y18322050D01*
X40808151Y18431283D01*
X41273698Y18742352D01*
X41529000Y19124438D01*
X41784302Y18742352D01*
X42249849Y18431283D01*
X42799000Y18322050D01*
X43348151Y18431283D01*
X43813698Y18742352D01*
X44069000Y19124438D01*
X44324302Y18742352D01*
X44789849Y18431283D01*
X45339000Y18322050D01*
X45888151Y18431283D01*
X46353698Y18742352D01*
X46664767Y19207899D01*
X46774000Y19757050D01*
X46774000Y20628950D01*
X46664767Y21178101D01*
X46353698Y21643648D01*
X45888151Y21954717D01*
X45339000Y22063950D01*
X44789849Y21954717D01*
X44324302Y21643648D01*
X44069000Y21261562D01*
X43813698Y21643648D01*
X43348151Y21954717D01*
X42799000Y22063950D01*
X42249849Y21954717D01*
X41784302Y21643648D01*
X41529000Y21261562D01*
X41273698Y21643648D01*
X40808151Y21954717D01*
X40259000Y22063950D01*
X39709849Y21954717D01*
X39244302Y21643648D01*
X38989000Y21261562D01*
X38733698Y21643648D01*
X38604000Y21730310D01*
X38604000Y25837812D01*
X42381355Y29615168D01*
X42788945Y29614812D01*
X43298175Y29825221D01*
X43688121Y30214488D01*
X43899419Y30723350D01*
X43899900Y31274337D01*
X43835473Y31430263D01*
X45571952Y31430263D01*
X45868857Y31133359D01*
X45868501Y30725769D01*
X46078910Y30216539D01*
X46468177Y29826593D01*
X46977039Y29615295D01*
X47528026Y29614814D01*
X48037256Y29825223D01*
X48427202Y30214490D01*
X48638500Y30723352D01*
X48638981Y31274339D01*
X48428572Y31783569D01*
X48039305Y32173515D01*
X47530443Y32384813D01*
X47120203Y32385171D01*
X46564322Y32941053D01*
X46277207Y33132896D01*
X46221016Y33144073D01*
X45938532Y33200264D01*
X45938527Y33200263D01*
X34855268Y33200263D01*
X34855263Y33200264D01*
X34516588Y33132896D01*
X34229473Y32941053D01*
X34229471Y32941050D01*
X32013210Y30724790D01*
X31821367Y30437675D01*
X31821367Y30437674D01*
X31753999Y30099000D01*
X31754000Y30098995D01*
X31754000Y21730310D01*
X31624302Y21643648D01*
X31369000Y21261562D01*
X31113698Y21643648D01*
X30648151Y21954717D01*
X30099000Y22063950D01*
X29549849Y21954717D01*
X29084302Y21643648D01*
X28773233Y21178101D01*
X28664000Y20628950D01*
X28664000Y20339580D01*
X27760935Y21242645D01*
X27760935Y33800808D01*
X35727311Y41767185D01*
X67694630Y41767185D01*
X68018980Y40982200D01*
X68619041Y40381091D01*
X69403459Y40055372D01*
X70252815Y40054630D01*
X71037800Y40378980D01*
X71638909Y40979041D01*
X71964628Y41763459D01*
X71965370Y42612815D01*
X71641020Y43397800D01*
X71040959Y43998909D01*
X70532979Y44209841D01*
X75929446Y44209841D01*
X76015852Y43953357D01*
X76589336Y43743542D01*
X77199460Y43769161D01*
X77644148Y43953357D01*
X77730554Y44209841D01*
X76830000Y45110395D01*
X75929446Y44209841D01*
X70532979Y44209841D01*
X70256541Y44324628D01*
X69407185Y44325370D01*
X68622200Y44001020D01*
X68021091Y43400959D01*
X67695372Y42616541D01*
X67694630Y41767185D01*
X35727311Y41767185D01*
X36164195Y42204069D01*
X36164198Y42204071D01*
X36356041Y42491186D01*
X36380976Y42616541D01*
X36423409Y42829861D01*
X36423408Y42829866D01*
X36423408Y44986009D01*
X60794735Y44986009D01*
X61027932Y44421629D01*
X61459357Y43989449D01*
X62023330Y43755267D01*
X62633991Y43754735D01*
X63198371Y43987932D01*
X63630551Y44419357D01*
X63864733Y44983330D01*
X63865209Y45530664D01*
X75283542Y45530664D01*
X75309161Y44920540D01*
X75493357Y44475852D01*
X75749841Y44389446D01*
X76650395Y45290000D01*
X75749841Y46190554D01*
X75493357Y46104148D01*
X75283542Y45530664D01*
X63865209Y45530664D01*
X63865265Y45593991D01*
X63632068Y46158371D01*
X63420650Y46370159D01*
X75929446Y46370159D01*
X76830000Y45469605D01*
X77730554Y46370159D01*
X77644148Y46626643D01*
X77070664Y46836458D01*
X76460540Y46810839D01*
X76015852Y46626643D01*
X75929446Y46370159D01*
X63420650Y46370159D01*
X63200643Y46590551D01*
X63191628Y46594294D01*
X63230554Y46709841D01*
X62330000Y47610395D01*
X61429446Y46709841D01*
X61468207Y46594786D01*
X61461629Y46592068D01*
X61029449Y46160643D01*
X60795267Y45596670D01*
X60794735Y44986009D01*
X36423408Y44986009D01*
X36423408Y48030664D01*
X60783542Y48030664D01*
X60809161Y47420540D01*
X60993357Y46975852D01*
X61249841Y46889446D01*
X62150395Y47790000D01*
X62509605Y47790000D01*
X63410159Y46889446D01*
X63666643Y46975852D01*
X63876458Y47549336D01*
X63850839Y48159460D01*
X63666643Y48604148D01*
X63410159Y48690554D01*
X62509605Y47790000D01*
X62150395Y47790000D01*
X61249841Y48690554D01*
X60993357Y48604148D01*
X60783542Y48030664D01*
X36423408Y48030664D01*
X36423408Y48706746D01*
X36711869Y48994705D01*
X36923167Y49503567D01*
X36923588Y49986009D01*
X60794735Y49986009D01*
X61027932Y49421629D01*
X61459357Y48989449D01*
X61468372Y48985706D01*
X61429446Y48870159D01*
X62330000Y47969605D01*
X63230554Y48870159D01*
X63191793Y48985214D01*
X63198371Y48987932D01*
X63630551Y49419357D01*
X63864733Y49983330D01*
X63865265Y50593991D01*
X63632068Y51158371D01*
X63200643Y51590551D01*
X62636670Y51824733D01*
X62026009Y51825265D01*
X61461629Y51592068D01*
X61029449Y51160643D01*
X60795267Y50596670D01*
X60794735Y49986009D01*
X36923588Y49986009D01*
X36923648Y50054554D01*
X36713239Y50563784D01*
X36323972Y50953730D01*
X35815110Y51165028D01*
X35264123Y51165509D01*
X34754893Y50955100D01*
X34364947Y50565833D01*
X34153649Y50056971D01*
X34153168Y49505984D01*
X34363577Y48996754D01*
X34653408Y48706417D01*
X34653408Y43196440D01*
X26250145Y34793178D01*
X26058302Y34506063D01*
X26058302Y34506062D01*
X25990934Y34167388D01*
X25990935Y34167383D01*
X25990935Y20876070D01*
X25990934Y20876065D01*
X26005476Y20802961D01*
X26058302Y20537390D01*
X26135429Y20421961D01*
X26250145Y20250275D01*
X32153119Y14347302D01*
X32089849Y14334717D01*
X31624302Y14023648D01*
X31526749Y13877650D01*
X31502162Y14008317D01*
X31363090Y14224441D01*
X31150890Y14369431D01*
X30899000Y14420440D01*
X29299000Y14420440D01*
X29063683Y14376162D01*
X28847559Y14237090D01*
X28702569Y14024890D01*
X28685075Y13938504D01*
X25871304Y16752276D01*
X25871304Y36293119D01*
X29090194Y39512010D01*
X29497784Y39511654D01*
X30007014Y39722063D01*
X30396960Y40111330D01*
X30608258Y40620192D01*
X30608739Y41171179D01*
X30398330Y41680409D01*
X30009063Y42070355D01*
X29500201Y42281653D01*
X28949214Y42282134D01*
X28439984Y42071725D01*
X28050038Y41682458D01*
X27838740Y41173596D01*
X27838382Y40763356D01*
X24360514Y37285489D01*
X24168671Y36998374D01*
X24168671Y36998373D01*
X24101303Y36659699D01*
X24101304Y36659694D01*
X24101304Y23399005D01*
X24046553Y23453852D01*
X23537691Y23665150D01*
X22986704Y23665631D01*
X22477474Y23455222D01*
X22087528Y23065955D01*
X21876230Y22557093D01*
X21875749Y22006106D01*
X21205000Y22006106D01*
X21205000Y30479995D01*
X21205001Y30480000D01*
X21137633Y30818674D01*
X21137633Y30818675D01*
X20945790Y31105790D01*
X20945787Y31105792D01*
X17135790Y34915790D01*
X16899736Y35073515D01*
X16848675Y35107633D01*
X16792484Y35118810D01*
X16510000Y35175001D01*
X16509995Y35175000D01*
X12503523Y35175000D01*
X12215564Y35463461D01*
X11706702Y35674759D01*
X11155715Y35675240D01*
X10646485Y35464831D01*
X10256539Y35075564D01*
X10045241Y34566702D01*
X10044760Y34015715D01*
X7466440Y34015715D01*
X7466440Y35521000D01*
X7422162Y35756317D01*
X7283090Y35972441D01*
X7070890Y36117431D01*
X6819000Y36168440D01*
X5119000Y36168440D01*
X4883683Y36124162D01*
X4667559Y35985090D01*
X4522569Y35772890D01*
X4471560Y35521000D01*
X4471560Y33821000D01*
X4515838Y33585683D01*
X4654910Y33369559D01*
X4867110Y33224569D01*
X4934541Y33210914D01*
X4889853Y33181054D01*
X4567946Y32699285D01*
X4454907Y32131000D01*
X710000Y32131000D01*
X710000Y41767185D01*
X7694630Y41767185D01*
X8018980Y40982200D01*
X8619041Y40381091D01*
X9403459Y40055372D01*
X10252815Y40054630D01*
X11037800Y40378980D01*
X11638909Y40979041D01*
X11964628Y41763459D01*
X11965370Y42612815D01*
X11641020Y43397800D01*
X11040959Y43998909D01*
X10256541Y44324628D01*
X9407185Y44325370D01*
X8622200Y44001020D01*
X8021091Y43400959D01*
X7695372Y42616541D01*
X7694630Y41767185D01*
X710000Y41767185D01*
X710000Y44986009D01*
X1294735Y44986009D01*
X1527932Y44421629D01*
X1959357Y43989449D01*
X2523330Y43755267D01*
X3133991Y43754735D01*
X3698371Y43987932D01*
X4130551Y44419357D01*
X4364733Y44983330D01*
X4364735Y44986009D01*
X15794735Y44986009D01*
X16027932Y44421629D01*
X16459357Y43989449D01*
X17023330Y43755267D01*
X17633991Y43754735D01*
X18198371Y43987932D01*
X18630551Y44419357D01*
X18864733Y44983330D01*
X18865265Y45593991D01*
X18632068Y46158371D01*
X18200643Y46590551D01*
X18191628Y46594294D01*
X18230554Y46709841D01*
X17330000Y47610395D01*
X16429446Y46709841D01*
X16468207Y46594786D01*
X16461629Y46592068D01*
X16029449Y46160643D01*
X15795267Y45596670D01*
X15794735Y44986009D01*
X4364735Y44986009D01*
X4365265Y45593991D01*
X4132068Y46158371D01*
X3700643Y46590551D01*
X3136670Y46824733D01*
X2526009Y46825265D01*
X1961629Y46592068D01*
X1529449Y46160643D01*
X1295267Y45596670D01*
X1294735Y44986009D01*
X710000Y44986009D01*
X710000Y48030664D01*
X15783542Y48030664D01*
X15809161Y47420540D01*
X15993357Y46975852D01*
X16249841Y46889446D01*
X17150395Y47790000D01*
X17509605Y47790000D01*
X18410159Y46889446D01*
X18666643Y46975852D01*
X18876458Y47549336D01*
X18850839Y48159460D01*
X18666643Y48604148D01*
X18410159Y48690554D01*
X17509605Y47790000D01*
X17150395Y47790000D01*
X16249841Y48690554D01*
X15993357Y48604148D01*
X15783542Y48030664D01*
X710000Y48030664D01*
X710000Y49209841D01*
X1929446Y49209841D01*
X2015852Y48953357D01*
X2589336Y48743542D01*
X3199460Y48769161D01*
X3644148Y48953357D01*
X3730554Y49209841D01*
X2830000Y50110395D01*
X1929446Y49209841D01*
X710000Y49209841D01*
X710000Y50530664D01*
X1283542Y50530664D01*
X1309161Y49920540D01*
X1493357Y49475852D01*
X1749841Y49389446D01*
X2650395Y50290000D01*
X3009605Y50290000D01*
X3910159Y49389446D01*
X4166643Y49475852D01*
X4353289Y49986009D01*
X15794735Y49986009D01*
X16027932Y49421629D01*
X16459357Y48989449D01*
X16468372Y48985706D01*
X16429446Y48870159D01*
X17330000Y47969605D01*
X18230554Y48870159D01*
X18191793Y48985214D01*
X18198371Y48987932D01*
X18630551Y49419357D01*
X18864733Y49983330D01*
X18865265Y50593991D01*
X18632068Y51158371D01*
X18200643Y51590551D01*
X17636670Y51824733D01*
X17026009Y51825265D01*
X16461629Y51592068D01*
X16029449Y51160643D01*
X15795267Y50596670D01*
X15794735Y49986009D01*
X4353289Y49986009D01*
X4376458Y50049336D01*
X4350839Y50659460D01*
X4166643Y51104148D01*
X3910159Y51190554D01*
X3009605Y50290000D01*
X2650395Y50290000D01*
X1749841Y51190554D01*
X1493357Y51104148D01*
X1283542Y50530664D01*
X710000Y50530664D01*
X710000Y51370159D01*
X1929446Y51370159D01*
X2830000Y50469605D01*
X3730554Y51370159D01*
X3644148Y51626643D01*
X3070664Y51836458D01*
X2460540Y51810839D01*
X2015852Y51626643D01*
X1929446Y51370159D01*
X710000Y51370159D01*
X710000Y52967185D01*
X7694630Y52967185D01*
X8018980Y52182200D01*
X8619041Y51581091D01*
X9403459Y51255372D01*
X10252815Y51254630D01*
X11037800Y51578980D01*
X11638909Y52179041D01*
X11964628Y52963459D01*
X11964631Y52967185D01*
X67694630Y52967185D01*
X68018980Y52182200D01*
X68619041Y51581091D01*
X69403459Y51255372D01*
X70252815Y51254630D01*
X71037800Y51578980D01*
X71638909Y52179041D01*
X71964628Y52963459D01*
X71965370Y53812815D01*
X71641020Y54597800D01*
X71040959Y55198909D01*
X70256541Y55524628D01*
X69407185Y55525370D01*
X68622200Y55201020D01*
X68021091Y54600959D01*
X67695372Y53816541D01*
X67694630Y52967185D01*
X11964631Y52967185D01*
X11965370Y53812815D01*
X11641020Y54597800D01*
X11040959Y55198909D01*
X10256541Y55524628D01*
X9407185Y55525370D01*
X8622200Y55201020D01*
X8021091Y54600959D01*
X7695372Y53816541D01*
X7694630Y52967185D01*
X710000Y52967185D01*
X710000Y58345000D01*
X77978000Y58345000D01*
X77978000Y51312709D01*
X77978000Y51312709D01*
G37*
X77978000Y51312709D02*
X77700643Y51590551D01*
X77136670Y51824733D01*
X76526009Y51825265D01*
X75961629Y51592068D01*
X75529449Y51160643D01*
X75295267Y50596670D01*
X75294735Y49986009D01*
X75527932Y49421629D01*
X75959357Y48989449D01*
X76523330Y48755267D01*
X77133991Y48754735D01*
X77698371Y48987932D01*
X77978000Y49267073D01*
X77978000Y46167699D01*
X77910159Y46190554D01*
X77009605Y45290000D01*
X77910159Y44389446D01*
X77978000Y44412301D01*
X77978000Y710000D01*
X710000Y710000D01*
X710000Y11811000D01*
X4454907Y11811000D01*
X4567946Y11242715D01*
X4889853Y10760946D01*
X5371622Y10439039D01*
X5939907Y10326000D01*
X5998093Y10326000D01*
X6566378Y10439039D01*
X7048147Y10760946D01*
X7370054Y11242715D01*
X7483093Y11811000D01*
X7370054Y12379285D01*
X7048147Y12861054D01*
X6707447Y13088702D01*
X6850358Y13155817D01*
X7240645Y13584076D01*
X7410476Y13994110D01*
X7289155Y14224000D01*
X6096000Y14224000D01*
X6096000Y14204000D01*
X5842000Y14204000D01*
X5842000Y14224000D01*
X4648845Y14224000D01*
X4527524Y13994110D01*
X4697355Y13584076D01*
X5087642Y13155817D01*
X5230553Y13088702D01*
X4889853Y12861054D01*
X4567946Y12379285D01*
X4454907Y11811000D01*
X710000Y11811000D01*
X710000Y32131000D01*
X4454907Y32131000D01*
X4567946Y31562715D01*
X4889853Y31080946D01*
X5219026Y30861000D01*
X4889853Y30641054D01*
X4567946Y30159285D01*
X4454907Y29591000D01*
X4567946Y29022715D01*
X4889853Y28540946D01*
X5219026Y28321000D01*
X4889853Y28101054D01*
X4567946Y27619285D01*
X4454907Y27051000D01*
X4567946Y26482715D01*
X4889853Y26000946D01*
X5219026Y25781000D01*
X4889853Y25561054D01*
X4567946Y25079285D01*
X4454907Y24511000D01*
X4567946Y23942715D01*
X4889853Y23460946D01*
X5219026Y23241000D01*
X4889853Y23021054D01*
X4567946Y22539285D01*
X4454907Y21971000D01*
X4567946Y21402715D01*
X4889853Y20920946D01*
X5219026Y20701000D01*
X4889853Y20481054D01*
X4567946Y19999285D01*
X4454907Y19431000D01*
X4567946Y18862715D01*
X4889853Y18380946D01*
X5219026Y18161000D01*
X4889853Y17941054D01*
X4567946Y17459285D01*
X4454907Y16891000D01*
X4567946Y16322715D01*
X4889853Y15840946D01*
X5230553Y15613298D01*
X5087642Y15546183D01*
X4697355Y15117924D01*
X4527524Y14707890D01*
X4648845Y14478000D01*
X5842000Y14478000D01*
X5842000Y14498000D01*
X6096000Y14498000D01*
X6096000Y14478000D01*
X7289155Y14478000D01*
X7410476Y14707890D01*
X7240645Y15117924D01*
X6850358Y15546183D01*
X6707447Y15613298D01*
X7048147Y15840946D01*
X7370054Y16322715D01*
X7483093Y16891000D01*
X7370054Y17459285D01*
X7048147Y17941054D01*
X6718974Y18161000D01*
X7048147Y18380946D01*
X7370054Y18862715D01*
X7483093Y19431000D01*
X7370054Y19999285D01*
X7048147Y20481054D01*
X6718974Y20701000D01*
X7048147Y20920946D01*
X7370054Y21402715D01*
X7483093Y21971000D01*
X7370054Y22539285D01*
X7048147Y23021054D01*
X6718974Y23241000D01*
X7048147Y23460946D01*
X7370054Y23942715D01*
X7483093Y24511000D01*
X7370054Y25079285D01*
X7048147Y25561054D01*
X6718974Y25781000D01*
X7048147Y26000946D01*
X7370054Y26482715D01*
X7483093Y27051000D01*
X7370054Y27619285D01*
X7048147Y28101054D01*
X6718974Y28321000D01*
X7048147Y28540946D01*
X7370054Y29022715D01*
X7483093Y29591000D01*
X7370054Y30159285D01*
X7048147Y30641054D01*
X6718974Y30861000D01*
X7048147Y31080946D01*
X7370054Y31562715D01*
X7483093Y32131000D01*
X7370054Y32699285D01*
X7048147Y33181054D01*
X7006548Y33208850D01*
X7054317Y33217838D01*
X7270441Y33356910D01*
X7415431Y33569110D01*
X7466440Y33821000D01*
X7466440Y34015715D01*
X10044760Y34015715D01*
X10255169Y33506485D01*
X10423813Y33337547D01*
X10256539Y33170564D01*
X10045241Y32661702D01*
X10044760Y32110715D01*
X10255169Y31601485D01*
X10545000Y31311148D01*
X10545000Y13970005D01*
X10544999Y13970000D01*
X10584186Y13773000D01*
X10612367Y13631325D01*
X10729938Y13455367D01*
X10804210Y13344210D01*
X21729209Y2419212D01*
X21729211Y2419209D01*
X21921055Y2291024D01*
X22016327Y2227365D01*
X22355001Y2159998D01*
X22355006Y2159999D01*
X49669951Y2159999D01*
X49669956Y2159998D01*
X49952440Y2216189D01*
X50008631Y2227366D01*
X50295746Y2419209D01*
X54607510Y6730974D01*
X55015100Y6730618D01*
X55524330Y6941027D01*
X55914276Y7330294D01*
X56125574Y7839156D01*
X56126055Y8390143D01*
X55915646Y8899373D01*
X55526379Y9289319D01*
X55017517Y9500617D01*
X54466530Y9501098D01*
X53957300Y9290689D01*
X53567354Y8901422D01*
X53356056Y8392560D01*
X53355698Y7982320D01*
X49303376Y3929999D01*
X34408347Y3929999D01*
X34505000Y4415907D01*
X34505000Y4474093D01*
X34408347Y4960001D01*
X47754996Y4960001D01*
X47755001Y4960000D01*
X48037485Y5016191D01*
X48093676Y5027368D01*
X48380791Y5219211D01*
X52060787Y8899208D01*
X52060790Y8899210D01*
X52252633Y9186325D01*
X52320000Y9525000D01*
X52320000Y11144250D01*
X72175000Y11144250D01*
X72175000Y10453690D01*
X72271673Y10220301D01*
X72450302Y10041673D01*
X72683691Y9945000D01*
X73374250Y9945000D01*
X73533000Y10103750D01*
X73533000Y11303000D01*
X73787000Y11303000D01*
X73787000Y10103750D01*
X73945750Y9945000D01*
X74636309Y9945000D01*
X74869698Y10041673D01*
X75048327Y10220301D01*
X75145000Y10453690D01*
X75145000Y11144250D01*
X74986250Y11303000D01*
X73787000Y11303000D01*
X73533000Y11303000D01*
X72333750Y11303000D01*
X72175000Y11144250D01*
X52320000Y11144250D01*
X52320000Y16706477D01*
X52608461Y16994436D01*
X52819759Y17503298D01*
X52820240Y18054285D01*
X52609831Y18563515D01*
X52220564Y18953461D01*
X51988073Y19050000D01*
X72145907Y19050000D01*
X72258946Y18481715D01*
X72580853Y17999946D01*
X72910026Y17780000D01*
X72580853Y17560054D01*
X72258946Y17078285D01*
X72145907Y16510000D01*
X72258946Y15941715D01*
X72580853Y15459946D01*
X72910026Y15240000D01*
X72580853Y15020054D01*
X72258946Y14538285D01*
X72145907Y13970000D01*
X72258946Y13401715D01*
X72580853Y12919946D01*
X72624777Y12890597D01*
X72450302Y12818327D01*
X72271673Y12639699D01*
X72175000Y12406310D01*
X72175000Y11715750D01*
X72333750Y11557000D01*
X73533000Y11557000D01*
X73533000Y11577000D01*
X73787000Y11577000D01*
X73787000Y11557000D01*
X74986250Y11557000D01*
X75145000Y11715750D01*
X75145000Y12406310D01*
X75048327Y12639699D01*
X74869698Y12818327D01*
X74695223Y12890597D01*
X74739147Y12919946D01*
X75061054Y13401715D01*
X75174093Y13970000D01*
X75061054Y14538285D01*
X74739147Y15020054D01*
X74409974Y15240000D01*
X74739147Y15459946D01*
X75061054Y15941715D01*
X75174093Y16510000D01*
X75061054Y17078285D01*
X74739147Y17560054D01*
X74409974Y17780000D01*
X74739147Y17999946D01*
X75061054Y18481715D01*
X75174093Y19050000D01*
X75061054Y19618285D01*
X74739147Y20100054D01*
X74257378Y20421961D01*
X73689093Y20535000D01*
X73630907Y20535000D01*
X73062622Y20421961D01*
X72580853Y20100054D01*
X72258946Y19618285D01*
X72145907Y19050000D01*
X51988073Y19050000D01*
X51711702Y19164759D01*
X51160715Y19165240D01*
X50651485Y18954831D01*
X50261539Y18565564D01*
X50050241Y18056702D01*
X50049760Y17505715D01*
X50260169Y16996485D01*
X50550000Y16706148D01*
X50550000Y9891579D01*
X47388421Y6730001D01*
X23356580Y6730001D01*
X21205000Y8881582D01*
X21205000Y22006106D01*
X21875749Y22006106D01*
X22086158Y21496876D01*
X22375989Y21206539D01*
X22375989Y11029016D01*
X22375988Y11029011D01*
X22426203Y10776569D01*
X22443356Y10690336D01*
X22571419Y10498675D01*
X22635199Y10403221D01*
X24774208Y8264213D01*
X24774210Y8264210D01*
X25061325Y8072367D01*
X25400000Y8005000D01*
X36975995Y8005000D01*
X36976000Y8004999D01*
X37258484Y8061190D01*
X37314675Y8072367D01*
X37601790Y8264210D01*
X37601791Y8264211D01*
X40076025Y10738446D01*
X40259000Y10702050D01*
X40808151Y10811283D01*
X41273698Y11122352D01*
X41529000Y11504438D01*
X41784302Y11122352D01*
X42249849Y10811283D01*
X42799000Y10702050D01*
X43348151Y10811283D01*
X43813698Y11122352D01*
X44066507Y11500707D01*
X44414104Y11068500D01*
X44907181Y10798633D01*
X44989961Y10781096D01*
X45212000Y10903085D01*
X45212000Y12446000D01*
X45466000Y12446000D01*
X45466000Y10903085D01*
X45688039Y10781096D01*
X45770819Y10798633D01*
X46263896Y11068500D01*
X46616166Y11506517D01*
X46774000Y12046000D01*
X46774000Y12446000D01*
X45466000Y12446000D01*
X45212000Y12446000D01*
X45192000Y12446000D01*
X45192000Y12700000D01*
X45212000Y12700000D01*
X45212000Y14242915D01*
X45466000Y14242915D01*
X45466000Y12700000D01*
X46774000Y12700000D01*
X46774000Y13100000D01*
X46616166Y13639483D01*
X46263896Y14077500D01*
X45770819Y14347367D01*
X45688039Y14364904D01*
X45466000Y14242915D01*
X45212000Y14242915D01*
X44989961Y14364904D01*
X44907181Y14347367D01*
X44414104Y14077500D01*
X44066507Y13645293D01*
X43813698Y14023648D01*
X43348151Y14334717D01*
X42799000Y14443950D01*
X42249849Y14334717D01*
X41784302Y14023648D01*
X41529000Y13641562D01*
X41273698Y14023648D01*
X40808151Y14334717D01*
X40259000Y14443950D01*
X39709849Y14334717D01*
X39244302Y14023648D01*
X38989000Y13641562D01*
X38733698Y14023648D01*
X38268151Y14334717D01*
X37719000Y14443950D01*
X37169849Y14334717D01*
X36704302Y14023648D01*
X36449000Y13641562D01*
X36193698Y14023648D01*
X35728151Y14334717D01*
X35179000Y14443950D01*
X34996026Y14407554D01*
X34504790Y14898790D01*
X34217675Y15090633D01*
X34161484Y15101810D01*
X33879000Y15158001D01*
X33878995Y15158000D01*
X33845579Y15158000D01*
X30584882Y18418698D01*
X30648151Y18431283D01*
X31113698Y18742352D01*
X31369000Y19124438D01*
X31624302Y18742352D01*
X32089849Y18431283D01*
X32639000Y18322050D01*
X33188151Y18431283D01*
X33653698Y18742352D01*
X33909000Y19124438D01*
X34164302Y18742352D01*
X34629849Y18431283D01*
X35179000Y18322050D01*
X35728151Y18431283D01*
X36193698Y18742352D01*
X36449000Y19124438D01*
X36704302Y18742352D01*
X37169849Y18431283D01*
X37719000Y18322050D01*
X38268151Y18431283D01*
X38733698Y18742352D01*
X38989000Y19124438D01*
X39244302Y18742352D01*
X39709849Y18431283D01*
X40259000Y18322050D01*
X40808151Y18431283D01*
X41273698Y18742352D01*
X41529000Y19124438D01*
X41784302Y18742352D01*
X42249849Y18431283D01*
X42799000Y18322050D01*
X43348151Y18431283D01*
X43813698Y18742352D01*
X44069000Y19124438D01*
X44324302Y18742352D01*
X44789849Y18431283D01*
X45339000Y18322050D01*
X45888151Y18431283D01*
X46353698Y18742352D01*
X46664767Y19207899D01*
X46774000Y19757050D01*
X46774000Y20628950D01*
X46664767Y21178101D01*
X46353698Y21643648D01*
X45888151Y21954717D01*
X45339000Y22063950D01*
X44789849Y21954717D01*
X44324302Y21643648D01*
X44069000Y21261562D01*
X43813698Y21643648D01*
X43348151Y21954717D01*
X42799000Y22063950D01*
X42249849Y21954717D01*
X41784302Y21643648D01*
X41529000Y21261562D01*
X41273698Y21643648D01*
X40808151Y21954717D01*
X40259000Y22063950D01*
X39709849Y21954717D01*
X39244302Y21643648D01*
X38989000Y21261562D01*
X38733698Y21643648D01*
X38604000Y21730310D01*
X38604000Y25837812D01*
X42381355Y29615168D01*
X42788945Y29614812D01*
X43298175Y29825221D01*
X43688121Y30214488D01*
X43899419Y30723350D01*
X43899900Y31274337D01*
X43835473Y31430263D01*
X45571952Y31430263D01*
X45868857Y31133359D01*
X45868501Y30725769D01*
X46078910Y30216539D01*
X46468177Y29826593D01*
X46977039Y29615295D01*
X47528026Y29614814D01*
X48037256Y29825223D01*
X48427202Y30214490D01*
X48638500Y30723352D01*
X48638981Y31274339D01*
X48428572Y31783569D01*
X48039305Y32173515D01*
X47530443Y32384813D01*
X47120203Y32385171D01*
X46564322Y32941053D01*
X46277207Y33132896D01*
X46221016Y33144073D01*
X45938532Y33200264D01*
X45938527Y33200263D01*
X34855268Y33200263D01*
X34855263Y33200264D01*
X34516588Y33132896D01*
X34229473Y32941053D01*
X34229471Y32941050D01*
X32013210Y30724790D01*
X31821367Y30437675D01*
X31821367Y30437674D01*
X31753999Y30099000D01*
X31754000Y30098995D01*
X31754000Y21730310D01*
X31624302Y21643648D01*
X31369000Y21261562D01*
X31113698Y21643648D01*
X30648151Y21954717D01*
X30099000Y22063950D01*
X29549849Y21954717D01*
X29084302Y21643648D01*
X28773233Y21178101D01*
X28664000Y20628950D01*
X28664000Y20339580D01*
X27760935Y21242645D01*
X27760935Y33800808D01*
X35727311Y41767185D01*
X67694630Y41767185D01*
X68018980Y40982200D01*
X68619041Y40381091D01*
X69403459Y40055372D01*
X70252815Y40054630D01*
X71037800Y40378980D01*
X71638909Y40979041D01*
X71964628Y41763459D01*
X71965370Y42612815D01*
X71641020Y43397800D01*
X71040959Y43998909D01*
X70532979Y44209841D01*
X75929446Y44209841D01*
X76015852Y43953357D01*
X76589336Y43743542D01*
X77199460Y43769161D01*
X77644148Y43953357D01*
X77730554Y44209841D01*
X76830000Y45110395D01*
X75929446Y44209841D01*
X70532979Y44209841D01*
X70256541Y44324628D01*
X69407185Y44325370D01*
X68622200Y44001020D01*
X68021091Y43400959D01*
X67695372Y42616541D01*
X67694630Y41767185D01*
X35727311Y41767185D01*
X36164195Y42204069D01*
X36164198Y42204071D01*
X36356041Y42491186D01*
X36380976Y42616541D01*
X36423409Y42829861D01*
X36423408Y42829866D01*
X36423408Y44986009D01*
X60794735Y44986009D01*
X61027932Y44421629D01*
X61459357Y43989449D01*
X62023330Y43755267D01*
X62633991Y43754735D01*
X63198371Y43987932D01*
X63630551Y44419357D01*
X63864733Y44983330D01*
X63865209Y45530664D01*
X75283542Y45530664D01*
X75309161Y44920540D01*
X75493357Y44475852D01*
X75749841Y44389446D01*
X76650395Y45290000D01*
X75749841Y46190554D01*
X75493357Y46104148D01*
X75283542Y45530664D01*
X63865209Y45530664D01*
X63865265Y45593991D01*
X63632068Y46158371D01*
X63420650Y46370159D01*
X75929446Y46370159D01*
X76830000Y45469605D01*
X77730554Y46370159D01*
X77644148Y46626643D01*
X77070664Y46836458D01*
X76460540Y46810839D01*
X76015852Y46626643D01*
X75929446Y46370159D01*
X63420650Y46370159D01*
X63200643Y46590551D01*
X63191628Y46594294D01*
X63230554Y46709841D01*
X62330000Y47610395D01*
X61429446Y46709841D01*
X61468207Y46594786D01*
X61461629Y46592068D01*
X61029449Y46160643D01*
X60795267Y45596670D01*
X60794735Y44986009D01*
X36423408Y44986009D01*
X36423408Y48030664D01*
X60783542Y48030664D01*
X60809161Y47420540D01*
X60993357Y46975852D01*
X61249841Y46889446D01*
X62150395Y47790000D01*
X62509605Y47790000D01*
X63410159Y46889446D01*
X63666643Y46975852D01*
X63876458Y47549336D01*
X63850839Y48159460D01*
X63666643Y48604148D01*
X63410159Y48690554D01*
X62509605Y47790000D01*
X62150395Y47790000D01*
X61249841Y48690554D01*
X60993357Y48604148D01*
X60783542Y48030664D01*
X36423408Y48030664D01*
X36423408Y48706746D01*
X36711869Y48994705D01*
X36923167Y49503567D01*
X36923588Y49986009D01*
X60794735Y49986009D01*
X61027932Y49421629D01*
X61459357Y48989449D01*
X61468372Y48985706D01*
X61429446Y48870159D01*
X62330000Y47969605D01*
X63230554Y48870159D01*
X63191793Y48985214D01*
X63198371Y48987932D01*
X63630551Y49419357D01*
X63864733Y49983330D01*
X63865265Y50593991D01*
X63632068Y51158371D01*
X63200643Y51590551D01*
X62636670Y51824733D01*
X62026009Y51825265D01*
X61461629Y51592068D01*
X61029449Y51160643D01*
X60795267Y50596670D01*
X60794735Y49986009D01*
X36923588Y49986009D01*
X36923648Y50054554D01*
X36713239Y50563784D01*
X36323972Y50953730D01*
X35815110Y51165028D01*
X35264123Y51165509D01*
X34754893Y50955100D01*
X34364947Y50565833D01*
X34153649Y50056971D01*
X34153168Y49505984D01*
X34363577Y48996754D01*
X34653408Y48706417D01*
X34653408Y43196440D01*
X26250145Y34793178D01*
X26058302Y34506063D01*
X26058302Y34506062D01*
X25990934Y34167388D01*
X25990935Y34167383D01*
X25990935Y20876070D01*
X25990934Y20876065D01*
X26005476Y20802961D01*
X26058302Y20537390D01*
X26135429Y20421961D01*
X26250145Y20250275D01*
X32153119Y14347302D01*
X32089849Y14334717D01*
X31624302Y14023648D01*
X31526749Y13877650D01*
X31502162Y14008317D01*
X31363090Y14224441D01*
X31150890Y14369431D01*
X30899000Y14420440D01*
X29299000Y14420440D01*
X29063683Y14376162D01*
X28847559Y14237090D01*
X28702569Y14024890D01*
X28685075Y13938504D01*
X25871304Y16752276D01*
X25871304Y36293119D01*
X29090194Y39512010D01*
X29497784Y39511654D01*
X30007014Y39722063D01*
X30396960Y40111330D01*
X30608258Y40620192D01*
X30608739Y41171179D01*
X30398330Y41680409D01*
X30009063Y42070355D01*
X29500201Y42281653D01*
X28949214Y42282134D01*
X28439984Y42071725D01*
X28050038Y41682458D01*
X27838740Y41173596D01*
X27838382Y40763356D01*
X24360514Y37285489D01*
X24168671Y36998374D01*
X24168671Y36998373D01*
X24101303Y36659699D01*
X24101304Y36659694D01*
X24101304Y23399005D01*
X24046553Y23453852D01*
X23537691Y23665150D01*
X22986704Y23665631D01*
X22477474Y23455222D01*
X22087528Y23065955D01*
X21876230Y22557093D01*
X21875749Y22006106D01*
X21205000Y22006106D01*
X21205000Y30479995D01*
X21205001Y30480000D01*
X21137633Y30818674D01*
X21137633Y30818675D01*
X20945790Y31105790D01*
X20945787Y31105792D01*
X17135790Y34915790D01*
X16899736Y35073515D01*
X16848675Y35107633D01*
X16792484Y35118810D01*
X16510000Y35175001D01*
X16509995Y35175000D01*
X12503523Y35175000D01*
X12215564Y35463461D01*
X11706702Y35674759D01*
X11155715Y35675240D01*
X10646485Y35464831D01*
X10256539Y35075564D01*
X10045241Y34566702D01*
X10044760Y34015715D01*
X7466440Y34015715D01*
X7466440Y35521000D01*
X7422162Y35756317D01*
X7283090Y35972441D01*
X7070890Y36117431D01*
X6819000Y36168440D01*
X5119000Y36168440D01*
X4883683Y36124162D01*
X4667559Y35985090D01*
X4522569Y35772890D01*
X4471560Y35521000D01*
X4471560Y33821000D01*
X4515838Y33585683D01*
X4654910Y33369559D01*
X4867110Y33224569D01*
X4934541Y33210914D01*
X4889853Y33181054D01*
X4567946Y32699285D01*
X4454907Y32131000D01*
X710000Y32131000D01*
X710000Y41767185D01*
X7694630Y41767185D01*
X8018980Y40982200D01*
X8619041Y40381091D01*
X9403459Y40055372D01*
X10252815Y40054630D01*
X11037800Y40378980D01*
X11638909Y40979041D01*
X11964628Y41763459D01*
X11965370Y42612815D01*
X11641020Y43397800D01*
X11040959Y43998909D01*
X10256541Y44324628D01*
X9407185Y44325370D01*
X8622200Y44001020D01*
X8021091Y43400959D01*
X7695372Y42616541D01*
X7694630Y41767185D01*
X710000Y41767185D01*
X710000Y44986009D01*
X1294735Y44986009D01*
X1527932Y44421629D01*
X1959357Y43989449D01*
X2523330Y43755267D01*
X3133991Y43754735D01*
X3698371Y43987932D01*
X4130551Y44419357D01*
X4364733Y44983330D01*
X4364735Y44986009D01*
X15794735Y44986009D01*
X16027932Y44421629D01*
X16459357Y43989449D01*
X17023330Y43755267D01*
X17633991Y43754735D01*
X18198371Y43987932D01*
X18630551Y44419357D01*
X18864733Y44983330D01*
X18865265Y45593991D01*
X18632068Y46158371D01*
X18200643Y46590551D01*
X18191628Y46594294D01*
X18230554Y46709841D01*
X17330000Y47610395D01*
X16429446Y46709841D01*
X16468207Y46594786D01*
X16461629Y46592068D01*
X16029449Y46160643D01*
X15795267Y45596670D01*
X15794735Y44986009D01*
X4364735Y44986009D01*
X4365265Y45593991D01*
X4132068Y46158371D01*
X3700643Y46590551D01*
X3136670Y46824733D01*
X2526009Y46825265D01*
X1961629Y46592068D01*
X1529449Y46160643D01*
X1295267Y45596670D01*
X1294735Y44986009D01*
X710000Y44986009D01*
X710000Y48030664D01*
X15783542Y48030664D01*
X15809161Y47420540D01*
X15993357Y46975852D01*
X16249841Y46889446D01*
X17150395Y47790000D01*
X17509605Y47790000D01*
X18410159Y46889446D01*
X18666643Y46975852D01*
X18876458Y47549336D01*
X18850839Y48159460D01*
X18666643Y48604148D01*
X18410159Y48690554D01*
X17509605Y47790000D01*
X17150395Y47790000D01*
X16249841Y48690554D01*
X15993357Y48604148D01*
X15783542Y48030664D01*
X710000Y48030664D01*
X710000Y49209841D01*
X1929446Y49209841D01*
X2015852Y48953357D01*
X2589336Y48743542D01*
X3199460Y48769161D01*
X3644148Y48953357D01*
X3730554Y49209841D01*
X2830000Y50110395D01*
X1929446Y49209841D01*
X710000Y49209841D01*
X710000Y50530664D01*
X1283542Y50530664D01*
X1309161Y49920540D01*
X1493357Y49475852D01*
X1749841Y49389446D01*
X2650395Y50290000D01*
X3009605Y50290000D01*
X3910159Y49389446D01*
X4166643Y49475852D01*
X4353289Y49986009D01*
X15794735Y49986009D01*
X16027932Y49421629D01*
X16459357Y48989449D01*
X16468372Y48985706D01*
X16429446Y48870159D01*
X17330000Y47969605D01*
X18230554Y48870159D01*
X18191793Y48985214D01*
X18198371Y48987932D01*
X18630551Y49419357D01*
X18864733Y49983330D01*
X18865265Y50593991D01*
X18632068Y51158371D01*
X18200643Y51590551D01*
X17636670Y51824733D01*
X17026009Y51825265D01*
X16461629Y51592068D01*
X16029449Y51160643D01*
X15795267Y50596670D01*
X15794735Y49986009D01*
X4353289Y49986009D01*
X4376458Y50049336D01*
X4350839Y50659460D01*
X4166643Y51104148D01*
X3910159Y51190554D01*
X3009605Y50290000D01*
X2650395Y50290000D01*
X1749841Y51190554D01*
X1493357Y51104148D01*
X1283542Y50530664D01*
X710000Y50530664D01*
X710000Y51370159D01*
X1929446Y51370159D01*
X2830000Y50469605D01*
X3730554Y51370159D01*
X3644148Y51626643D01*
X3070664Y51836458D01*
X2460540Y51810839D01*
X2015852Y51626643D01*
X1929446Y51370159D01*
X710000Y51370159D01*
X710000Y52967185D01*
X7694630Y52967185D01*
X8018980Y52182200D01*
X8619041Y51581091D01*
X9403459Y51255372D01*
X10252815Y51254630D01*
X11037800Y51578980D01*
X11638909Y52179041D01*
X11964628Y52963459D01*
X11964631Y52967185D01*
X67694630Y52967185D01*
X68018980Y52182200D01*
X68619041Y51581091D01*
X69403459Y51255372D01*
X70252815Y51254630D01*
X71037800Y51578980D01*
X71638909Y52179041D01*
X71964628Y52963459D01*
X71965370Y53812815D01*
X71641020Y54597800D01*
X71040959Y55198909D01*
X70256541Y55524628D01*
X69407185Y55525370D01*
X68622200Y55201020D01*
X68021091Y54600959D01*
X67695372Y53816541D01*
X67694630Y52967185D01*
X11964631Y52967185D01*
X11965370Y53812815D01*
X11641020Y54597800D01*
X11040959Y55198909D01*
X10256541Y55524628D01*
X9407185Y55525370D01*
X8622200Y55201020D01*
X8021091Y54600959D01*
X7695372Y53816541D01*
X7694630Y52967185D01*
X710000Y52967185D01*
X710000Y58345000D01*
X77978000Y58345000D01*
X77978000Y51312709D01*
M02*
