M48
METRIC,TZ
T1C0.800
T2C1.000
T3C2.200
%
G90
G05
T1
X11430Y34290
X11430Y32385
X23261Y22280
X29223Y40897
X30099Y20193
X30099Y12573
X32639Y20193
X32639Y12573
X35179Y20193
X35179Y12573
X35538Y49780
X37719Y20193
X37719Y12573
X40259Y20193
X40259Y12573
X42515Y31000
X42799Y20193
X42799Y12573
X45339Y20193
X45339Y12573
X47254Y31000
X51435Y17780
X54741Y8116
T2
X2830Y50290
X2830Y45290
X5969Y34671
X5969Y32131
X5969Y29591
X5969Y27051
X5969Y24511
X5969Y21971
X5969Y19431
X5969Y16891
X5969Y14351
X5969Y11811
X17330Y50290
X17330Y47790
X17330Y45290
X27940Y4445
X30480Y4445
X33020Y4445
X62330Y50290
X62330Y47790
X62330Y45290
X73660Y19050
X73660Y16510
X73660Y13970
X73660Y11430
X76830Y50290
X76830Y45290
T3
X9830Y53390
X9830Y42190
X69830Y53390
X69830Y42190
T0
M30
